<svg width="550" height="634" viewBox="0 0 550 634" fill="none" xmlns="http://www.w3.org/2000/svg">
<g opacity="0.5" style="mix-blend-mode:screen">
<path d="M389.85 363.465H275.668C267.978 363.465 261.721 369.708 261.721 377.381V417.095C261.721 425.577 254.806 432.477 246.307 432.477H180.407C172.717 432.477 166.461 438.719 166.461 446.393V538.191C166.461 546.672 159.546 553.572 151.046 553.572H4.94824e-05V552.107H151.046C158.736 552.107 164.993 545.865 164.993 538.191V446.392C164.993 437.911 171.908 431.011 180.407 431.011H246.307C253.997 431.011 260.253 424.769 260.253 417.095V377.381C260.253 368.9 267.168 362 275.668 362H389.85C397.54 362 403.796 355.757 403.796 348.083V331.237C403.796 323.564 397.54 317.321 389.85 317.321H4.94824e-05V315.857H389.85C398.349 315.857 405.264 322.757 405.264 331.238V348.084C405.264 356.565 398.349 363.465 389.85 363.465Z" fill="#99C36B"/>
<path d="M177.145 509.301H78.6224C70.9324 509.301 64.6759 515.544 64.6759 523.217V627.06H63.2079V523.217C63.2079 514.736 70.1228 507.836 78.6224 507.836H177.145C184.835 507.836 191.092 501.593 191.092 493.92V146.909C191.092 139.235 184.835 132.993 177.145 132.993H0.000120232V131.528H177.145C185.645 131.528 192.56 138.428 192.56 146.909V493.92C192.56 502.401 185.645 509.301 177.145 509.301Z" fill="#99C36B"/>
<path d="M348.598 608.552V234.7C348.598 227.276 342.349 221.236 334.668 221.236H254.504C246.014 221.236 239.106 214.56 239.106 206.354V65.8852C239.106 58.4608 232.857 52.4209 225.175 52.4209H75.2757C67.5943 52.4209 61.3448 58.4608 61.3448 65.8852V222.732C61.3448 230.938 54.4377 237.614 45.9475 237.614H0.000120232V236.197H45.9475C53.6289 236.197 59.8784 230.156 59.8784 222.732V65.8852C59.8784 57.6798 66.7856 51.0035 75.2757 51.0035H225.175C233.666 51.0035 240.573 57.6798 240.573 65.8852V206.354C240.573 213.779 246.822 219.819 254.504 219.819H334.668C343.158 219.819 350.065 226.495 350.065 234.7V608.552H348.598Z" fill="#99C36B"/>
<path d="M99.7462 405.376V273.213C99.7462 264.732 106.661 257.832 115.161 257.832H285.455C293.145 257.832 299.401 251.589 299.401 243.915V175.555C299.401 167.074 306.316 160.174 314.816 160.174H357.227C364.917 160.174 371.173 153.931 371.173 146.258V4.65406H372.641V146.258C372.641 154.739 365.726 161.639 357.227 161.639H314.816C307.126 161.639 300.87 167.882 300.87 175.555V243.916C300.87 252.396 293.955 259.297 285.455 259.297H115.161C107.471 259.297 101.214 265.539 101.214 273.213V405.376C101.214 413.858 94.2994 420.757 85.7997 420.757H4.94824e-05V419.293H85.7997C93.4897 419.293 99.7462 413.05 99.7462 405.376Z" fill="#99C36B"/>
<path d="M88.0018 627.06V489.362C88.0018 481.688 81.7454 475.446 74.0553 475.446H0.000120232V473.981H74.0553C82.555 473.981 89.4699 480.881 89.4699 489.362V627.06H88.0018Z" fill="#99C36B"/>
<path d="M294.181 627.06V585.718C294.181 578.044 287.925 571.801 280.235 571.801H184.322C176.632 571.801 170.376 578.044 170.376 585.718V627.06H168.908V585.718C168.908 577.236 175.823 570.337 184.322 570.337H280.235C288.735 570.337 295.65 577.236 295.65 585.718V627.06H294.181Z" fill="#99C36B"/>
<path d="M403.796 627.06V472.435C403.796 464.761 397.54 458.518 389.85 458.518H309.596C301.906 458.518 295.649 464.761 295.649 472.435V476.992C295.649 485.473 288.735 492.373 280.235 492.373H250.874C242.374 492.373 235.459 485.473 235.459 476.992V409.934C235.459 401.453 242.374 394.553 250.874 394.553H299.809C307.499 394.553 313.756 388.31 313.756 380.636V297.953C313.756 289.472 320.671 282.572 329.17 282.572H376.8C384.49 282.572 390.747 276.329 390.747 268.656V210.061C390.747 202.388 384.49 196.145 376.8 196.145H0.000120232V194.68H376.801C385.3 194.68 392.215 201.58 392.215 210.061V268.656C392.215 277.137 385.3 284.037 376.801 284.037H329.17C321.48 284.037 315.224 290.28 315.224 297.953V380.636C315.224 389.118 308.309 396.018 299.809 396.018H250.874C243.184 396.018 236.927 402.26 236.927 409.934V476.992C236.927 484.666 243.184 490.908 250.874 490.908H280.235C287.925 490.908 294.181 484.666 294.181 476.992V472.435C294.181 463.953 301.096 457.054 309.596 457.054H389.85C398.349 457.054 405.264 463.953 405.264 472.435V627.06H403.796Z" fill="#99C36B"/>
<path d="M130.82 463.727H4.94824e-05V462.262H130.82C138.51 462.262 144.767 456.019 144.767 448.346V379.985C144.767 372.312 138.51 366.069 130.82 366.069H4.94824e-05V364.604H130.82C139.32 364.604 146.235 371.504 146.235 379.985V448.346C146.235 456.827 139.32 463.727 130.82 463.727Z" fill="#99C36B"/>
<path d="M93.3517 77.0998V51.0894C93.3517 43.8805 100.276 38.015 108.788 38.015H266.252C274.764 38.015 281.688 43.8805 281.688 51.0894V99.2361C281.688 105.759 287.954 111.065 295.654 111.065H399.542C407.242 111.065 413.507 105.759 413.507 99.2361V20.9285H414.978V99.2364C414.978 106.445 408.053 112.311 399.542 112.311H295.654C287.143 112.311 280.218 106.445 280.218 99.2364V51.0898C280.218 44.567 273.953 39.2605 266.252 39.2605H108.788C101.087 39.2605 94.8218 44.567 94.8218 51.0898V77.1001C94.8218 84.309 87.8972 90.1745 79.3857 90.1745H0.000120232V88.9293H79.3857C87.0865 88.929 93.3517 83.6225 93.3517 77.0998Z" fill="#99C36B"/>
<path d="M4.94824e-05 394.553H39.8008C47.4909 394.553 53.7473 388.31 53.7473 380.637V292.744C53.7473 285.071 47.4909 278.828 39.8008 278.828H4.94824e-05V277.363H39.8008C48.3005 277.363 55.2154 284.264 55.2154 292.744V380.637C55.2154 389.118 48.3005 396.018 39.8008 396.018H4.94824e-05V394.553Z" fill="#99C36B"/>
<path d="M159.773 208.758V4.65378H161.241V208.758C161.241 217.239 154.326 224.139 145.827 224.139H-2.12668e-05V222.674H145.827C153.517 222.674 159.773 216.432 159.773 208.758Z" fill="#99C36B"/>
<path d="M316.529 4.65428V47.2978C316.529 54.971 322.786 61.2141 330.476 61.2141H505.011V62.6789H330.476C321.976 62.6789 315.061 55.7787 315.061 47.2978V4.65428H316.529Z" fill="#99C36B"/>
<path d="M316.529 558.374V627.06H315.061V558.374C315.061 549.893 321.976 542.993 330.476 542.993H480.217V544.458H330.476C322.786 544.458 316.529 550.7 316.529 558.374Z" fill="#99C36B"/>
<path d="M321.748 449.363V504.337C321.748 512.818 314.833 519.718 306.334 519.718H244.349C240.644 519.718 237.193 521.166 234.631 523.797C232.07 526.428 230.719 529.911 230.825 533.607C230.834 533.908 231.703 564.157 232.082 594.495C232.251 608.016 232.29 618.664 232.24 627.06H230.778C230.927 600.751 230.198 562.697 229.358 533.649C229.24 529.554 230.738 525.693 233.578 522.776C236.419 519.859 240.244 518.253 244.349 518.253H306.334C314.024 518.253 320.28 512.01 320.28 504.336V449.363C320.28 440.882 327.195 433.982 335.695 433.982H447.593V435.447H335.695C328.004 435.447 321.748 441.69 321.748 449.363Z" fill="#99C36B"/>
<path d="M379.349 401.936V575.006H377.885V401.936C377.885 395.315 384.78 389.928 393.256 389.928H520.461V391.072H393.256C385.588 391.072 379.349 395.946 379.349 401.936Z" fill="#99C36B"/>
<path d="M439.763 38.2793V265.334C439.763 272.066 446.02 277.543 453.71 277.543H520.67V278.828H453.71C445.211 278.828 438.295 272.774 438.295 265.334V38.2793H439.763Z" fill="#99C36B"/>
<path d="M488.373 332.215C479.873 332.215 472.958 325.315 472.958 316.834V234.15C472.958 226.477 466.702 220.234 459.012 220.234H419.211C410.711 220.234 403.796 213.334 403.796 204.853V157.326C403.796 148.845 410.711 141.945 419.211 141.945H453.792C461.482 141.945 467.738 135.702 467.738 128.029V4.65428H469.207V128.029C469.207 136.509 462.291 143.41 453.792 143.41H419.211C411.521 143.41 405.264 149.652 405.264 157.326V204.852C405.264 212.526 411.521 218.769 419.211 218.769H459.012C467.511 218.769 474.426 225.669 474.426 234.15V316.834C474.426 324.507 480.683 330.75 488.373 330.75H546.768V332.215H488.373Z" fill="#99C36B"/>
<path d="M394.575 316.589C394.575 313.984 392.46 311.873 389.849 311.873C387.239 311.873 385.123 313.984 385.123 316.589C385.123 319.194 387.239 321.305 389.849 321.305C392.46 321.305 394.575 319.194 394.575 316.589Z" fill="#99C36B"/>
<path d="M389.85 311.507C387.042 311.507 384.757 313.787 384.757 316.59C384.757 319.391 387.042 321.672 389.85 321.672C392.658 321.672 394.943 319.392 394.943 316.59C394.943 313.787 392.658 311.507 389.85 311.507ZM389.85 320.939C387.446 320.939 385.491 318.988 385.491 316.59C385.491 314.191 387.446 312.24 389.85 312.24C392.253 312.24 394.209 314.191 394.209 316.59C394.209 318.988 392.253 320.939 389.85 320.939Z" fill="#99C36B"/>
<path d="M407.651 331.238C407.651 329.519 406.254 328.125 404.531 328.125C402.807 328.125 401.411 329.519 401.411 331.238C401.411 332.957 402.807 334.351 404.531 334.351C406.254 334.351 407.651 332.957 407.651 331.238Z" fill="#99C36B"/>
<path d="M404.53 327.759C402.608 327.759 401.043 329.319 401.043 331.238C401.043 333.157 402.608 334.717 404.53 334.717C406.453 334.717 408.017 333.157 408.017 331.238C408.017 329.319 406.453 327.759 404.53 327.759ZM404.53 333.985C403.013 333.985 401.777 332.753 401.777 331.238C401.777 329.724 403.013 328.491 404.53 328.491C406.048 328.491 407.283 329.724 407.283 331.238C407.283 332.753 406.048 333.985 404.53 333.985Z" fill="#99C36B"/>
<path d="M409.18 348.084C409.18 345.521 407.098 343.444 404.53 343.444C401.962 343.444 399.879 345.521 399.879 348.084C399.879 350.647 401.962 352.724 404.53 352.724C407.098 352.724 409.18 350.647 409.18 348.084Z" fill="#99C36B"/>
<path d="M404.53 343.077C401.764 343.077 399.513 345.323 399.513 348.084C399.513 350.845 401.764 353.091 404.53 353.091C407.297 353.091 409.548 350.845 409.548 348.084C409.548 345.324 407.297 343.077 404.53 343.077ZM404.53 352.358C402.168 352.358 400.247 350.441 400.247 348.084C400.247 345.727 402.168 343.81 404.53 343.81C406.892 343.81 408.814 345.727 408.814 348.084C408.814 350.441 406.892 352.358 404.53 352.358Z" fill="#99C36B"/>
<path d="M394.423 362.732C394.423 360.212 392.376 358.169 389.85 358.169C387.324 358.169 385.276 360.212 385.276 362.732C385.276 365.253 387.324 367.296 389.85 367.296C392.376 367.296 394.423 365.253 394.423 362.732Z" fill="#99C36B"/>
<path d="M389.85 357.802C387.126 357.802 384.909 360.014 384.909 362.732C384.909 365.45 387.126 367.662 389.85 367.662C392.574 367.662 394.791 365.45 394.791 362.732C394.791 360.014 392.574 357.802 389.85 357.802ZM389.85 366.93C387.531 366.93 385.643 365.047 385.643 362.732C385.643 360.417 387.531 358.534 389.85 358.534C392.17 358.534 394.057 360.417 394.057 362.732C394.057 365.047 392.17 366.93 389.85 366.93Z" fill="#99C36B"/>
<path d="M279.158 362.732C279.158 360.809 277.595 359.249 275.667 359.249C273.739 359.249 272.177 360.808 272.177 362.732C272.177 364.656 273.739 366.216 275.667 366.216C277.595 366.216 279.158 364.656 279.158 362.732Z" fill="#99C36B"/>
<path d="M275.668 358.883C273.54 358.883 271.81 360.61 271.81 362.732C271.81 364.855 273.54 366.582 275.668 366.582C277.795 366.582 279.526 364.855 279.526 362.732C279.526 360.61 277.795 358.883 275.668 358.883ZM275.668 365.85C273.946 365.85 272.544 364.451 272.544 362.732C272.544 361.013 273.945 359.615 275.668 359.615C277.39 359.615 278.792 361.013 278.792 362.732C278.792 364.451 277.39 365.85 275.668 365.85Z" fill="#99C36B"/>
<path d="M260.988 372.642C263.611 372.642 265.737 374.764 265.737 377.381C265.737 379.999 263.611 382.12 260.988 382.12C258.365 382.12 256.238 379.999 256.238 377.381C256.238 374.764 258.365 372.642 260.988 372.642Z" fill="#99C36B"/>
<path d="M260.987 372.276C258.166 372.276 255.871 374.566 255.871 377.381C255.871 380.197 258.166 382.487 260.987 382.487C263.809 382.487 266.104 380.196 266.104 377.381C266.104 374.566 263.808 372.276 260.987 372.276ZM260.987 381.754C258.57 381.754 256.605 379.793 256.605 377.381C256.605 374.969 258.57 373.008 260.987 373.008C263.404 373.008 265.37 374.97 265.37 377.381C265.37 379.793 263.404 381.754 260.987 381.754Z" fill="#99C36B"/>
<path d="M260.988 412.97C263.271 412.97 265.122 414.817 265.122 417.095C265.122 419.374 263.271 421.22 260.988 421.22C258.704 421.22 256.854 419.374 256.854 417.095C256.854 414.817 258.704 412.97 260.988 412.97Z" fill="#99C36B"/>
<path d="M260.987 412.604C258.505 412.604 256.486 414.619 256.486 417.096C256.486 419.572 258.505 421.587 260.987 421.587C263.469 421.587 265.488 419.572 265.488 417.096C265.488 414.619 263.469 412.604 260.987 412.604ZM260.987 420.854C258.91 420.854 257.22 419.168 257.22 417.096C257.22 415.023 258.91 413.337 260.987 413.337C263.064 413.337 264.754 415.023 264.754 417.096C264.754 419.168 263.064 420.854 260.987 420.854Z" fill="#99C36B"/>
<path d="M249.557 431.744C249.557 429.953 248.102 428.501 246.306 428.501C244.511 428.501 243.056 429.953 243.056 431.744C243.056 433.536 244.511 434.988 246.306 434.988C248.102 434.988 249.557 433.536 249.557 431.744Z" fill="#99C36B"/>
<path d="M246.306 428.134C244.311 428.134 242.689 429.753 242.689 431.744C242.689 433.735 244.312 435.354 246.306 435.354C248.301 435.354 249.924 433.735 249.924 431.744C249.924 429.753 248.301 428.134 246.306 428.134ZM246.306 434.622C244.716 434.622 243.423 433.331 243.423 431.744C243.423 430.157 244.716 428.867 246.306 428.867C247.896 428.867 249.19 430.157 249.19 431.744C249.19 433.331 247.896 434.622 246.306 434.622Z" fill="#99C36B"/>
<path d="M184.552 431.744C184.552 429.46 182.696 427.608 180.407 427.608C178.118 427.608 176.262 429.46 176.262 431.744C176.262 434.028 178.118 435.88 180.407 435.88C182.696 435.88 184.552 434.028 184.552 431.744Z" fill="#99C36B"/>
<path d="M180.407 427.242C177.92 427.242 175.896 429.262 175.896 431.744C175.896 434.227 177.92 436.246 180.407 436.246C182.895 436.246 184.92 434.227 184.92 431.744C184.92 429.262 182.895 427.242 180.407 427.242ZM180.407 435.514C178.324 435.514 176.63 433.823 176.63 431.744C176.63 429.665 178.324 427.974 180.407 427.974C182.491 427.974 184.186 429.665 184.186 431.744C184.186 433.822 182.491 435.514 180.407 435.514Z" fill="#99C36B"/>
<path d="M168.549 446.393C168.549 444.838 167.285 443.576 165.726 443.576C164.167 443.576 162.903 444.838 162.903 446.393C162.903 447.949 164.167 449.21 165.726 449.21C167.286 449.21 168.549 447.949 168.549 446.393Z" fill="#99C36B"/>
<path d="M165.726 443.21C163.968 443.21 162.537 444.637 162.537 446.393C162.537 448.148 163.968 449.576 165.726 449.576C167.485 449.576 168.916 448.148 168.916 446.393C168.917 444.637 167.485 443.21 165.726 443.21ZM165.726 448.843C164.372 448.843 163.271 447.744 163.271 446.393C163.271 445.042 164.372 443.942 165.726 443.942C167.081 443.942 168.182 445.042 168.182 446.393C168.183 447.744 167.081 448.843 165.726 448.843Z" fill="#99C36B"/>
<path d="M170.124 538.191C170.124 535.768 168.155 533.805 165.727 533.805C163.299 533.805 161.331 535.769 161.331 538.191C161.331 540.614 163.299 542.578 165.727 542.578C168.155 542.578 170.124 540.614 170.124 538.191Z" fill="#99C36B"/>
<path d="M165.727 533.438C163.1 533.438 160.963 535.57 160.963 538.191C160.963 540.812 163.1 542.944 165.727 542.944C168.354 542.944 170.49 540.812 170.49 538.191C170.491 535.57 168.354 533.438 165.727 533.438ZM165.727 542.212C163.505 542.212 161.697 540.408 161.697 538.191C161.697 535.975 163.505 534.171 165.727 534.171C167.949 534.171 169.756 535.975 169.756 538.191C169.757 540.408 167.949 542.212 165.727 542.212Z" fill="#99C36B"/>
<path d="M155.372 552.839C155.372 550.456 153.435 548.523 151.046 548.523C148.657 548.523 146.72 550.456 146.72 552.839C146.72 555.223 148.657 557.156 151.046 557.156C153.435 557.156 155.372 555.224 155.372 552.839Z" fill="#99C36B"/>
<path d="M151.046 548.157C148.458 548.157 146.353 550.257 146.353 552.839C146.353 555.422 148.458 557.522 151.046 557.522C153.634 557.522 155.739 555.422 155.739 552.839C155.739 550.257 153.634 548.157 151.046 548.157ZM151.046 556.789C148.863 556.789 147.087 555.017 147.087 552.839C147.087 550.661 148.863 548.889 151.046 548.889C153.229 548.889 155.005 550.661 155.005 552.839C155.005 555.017 153.229 556.789 151.046 556.789Z" fill="#99C36B"/>
<path d="M181.921 132.26C181.921 129.629 179.783 127.496 177.146 127.496C174.509 127.496 172.371 129.629 172.371 132.26C172.371 134.891 174.509 137.025 177.146 137.025C179.783 137.025 181.921 134.892 181.921 132.26Z" fill="#99C36B"/>
<path d="M177.145 127.129C174.31 127.129 172.003 129.431 172.003 132.26C172.003 135.088 174.31 137.39 177.145 137.39C179.98 137.39 182.287 135.088 182.287 132.26C182.287 129.431 179.98 127.129 177.145 127.129ZM177.145 136.658C174.715 136.658 172.737 134.686 172.737 132.26C172.737 129.835 174.715 127.862 177.145 127.862C179.576 127.862 181.553 129.835 181.553 132.26C181.553 134.686 179.576 136.658 177.145 136.658Z" fill="#99C36B"/>
<path d="M195.625 146.909C195.625 144.815 193.923 143.118 191.825 143.118C189.727 143.118 188.026 144.815 188.026 146.909C188.026 149.002 189.727 150.7 191.825 150.7C193.924 150.7 195.625 149.002 195.625 146.909Z" fill="#99C36B"/>
<path d="M191.826 142.752C189.529 142.752 187.66 144.616 187.66 146.909C187.66 149.202 189.529 151.066 191.826 151.066C194.124 151.066 195.992 149.201 195.992 146.909C195.992 144.617 194.123 142.752 191.826 142.752ZM191.826 150.333C189.934 150.333 188.394 148.797 188.394 146.909C188.394 145.02 189.933 143.484 191.826 143.484C193.718 143.484 195.258 145.02 195.258 146.909C195.258 148.797 193.718 150.333 191.826 150.333Z" fill="#99C36B"/>
<path d="M195.684 493.92C195.684 491.793 193.957 490.07 191.825 490.07C189.694 490.07 187.967 491.793 187.967 493.92C187.967 496.046 189.694 497.77 191.825 497.77C193.957 497.77 195.684 496.046 195.684 493.92Z" fill="#99C36B"/>
<path d="M191.826 489.703C189.496 489.703 187.6 491.594 187.6 493.92C187.6 496.244 189.496 498.136 191.826 498.136C194.156 498.136 196.052 496.245 196.052 493.92C196.051 491.594 194.156 489.703 191.826 489.703ZM191.826 497.403C189.9 497.403 188.334 495.84 188.334 493.92C188.334 491.998 189.9 490.436 191.826 490.436C193.751 490.436 195.318 491.999 195.318 493.92C195.317 495.84 193.751 497.403 191.826 497.403Z" fill="#99C36B"/>
<path d="M177.145 505.102C179.064 505.102 180.619 506.654 180.619 508.568C180.619 510.482 179.064 512.034 177.145 512.034C175.227 512.034 173.672 510.482 173.672 508.568C173.672 506.654 175.227 505.102 177.145 505.102Z" fill="#99C36B"/>
<path d="M177.145 504.736C175.027 504.736 173.304 506.455 173.304 508.569C173.304 510.682 175.027 512.401 177.145 512.401C179.263 512.401 180.986 510.682 180.986 508.569C180.986 506.455 179.263 504.736 177.145 504.736ZM177.145 511.668C175.432 511.668 174.038 510.278 174.038 508.568C174.038 506.859 175.432 505.468 177.145 505.468C178.858 505.468 180.252 506.859 180.252 508.568C180.252 510.278 178.858 511.668 177.145 511.668Z" fill="#99C36B"/>
<path d="M78.6225 505.692C80.2143 505.692 81.5047 506.98 81.5047 508.568C81.5047 510.156 80.2143 511.444 78.6225 511.444C77.0307 511.444 75.7404 510.156 75.7404 508.568C75.7404 506.98 77.0307 505.692 78.6225 505.692Z" fill="#99C36B"/>
<path d="M78.6223 505.326C76.8305 505.326 75.3728 506.78 75.3728 508.568C75.3728 510.356 76.8305 511.81 78.6223 511.81C80.414 511.81 81.8715 510.356 81.8715 508.568C81.8718 506.78 80.414 505.326 78.6223 505.326ZM78.6223 511.078C77.2353 511.078 76.1068 509.952 76.1068 508.569C76.1068 507.185 77.235 506.059 78.6223 506.059C80.0092 506.059 81.1374 507.185 81.1374 508.569C81.1378 509.952 80.0092 511.078 78.6223 511.078Z" fill="#99C36B"/>
<path d="M63.942 518.596C66.4992 518.596 68.5723 520.665 68.5723 523.216C68.5723 525.768 66.4992 527.837 63.942 527.837C61.3848 527.837 59.3118 525.768 59.3118 523.216C59.3118 520.665 61.3848 518.596 63.942 518.596Z" fill="#99C36B"/>
<path d="M63.9418 518.231C61.1863 518.231 58.9449 520.468 58.9449 523.217C58.9449 525.967 61.1863 528.203 63.9418 528.203C66.6974 528.203 68.9387 525.967 68.9387 523.217C68.9387 520.468 66.6974 518.231 63.9418 518.231ZM63.9418 527.471C61.5915 527.471 59.679 525.563 59.679 523.217C59.679 520.871 61.5915 518.963 63.9418 518.963C66.2922 518.963 68.2047 520.871 68.2047 523.217C68.2047 525.563 66.2922 527.471 63.9418 527.471Z" fill="#99C36B"/>
<path d="M353.587 240.66C353.587 238.531 351.857 236.805 349.723 236.805C347.589 236.805 345.86 238.531 345.86 240.66C345.86 242.789 347.589 244.516 349.723 244.516C351.857 244.516 353.587 242.789 353.587 240.66Z" fill="#99C36B"/>
<path d="M349.723 236.439C347.39 236.439 345.492 238.333 345.492 240.66C345.492 242.988 347.39 244.882 349.723 244.882C352.056 244.882 353.953 242.988 353.953 240.66C353.954 238.333 352.056 236.439 349.723 236.439ZM349.723 244.149C347.795 244.149 346.226 242.585 346.226 240.66C346.226 238.736 347.795 237.171 349.723 237.171C351.651 237.171 353.219 238.736 353.219 240.66C353.22 242.585 351.651 244.149 349.723 244.149Z" fill="#99C36B"/>
<path d="M338.845 226.012C338.845 223.916 337.142 222.218 335.042 222.218C332.942 222.218 331.24 223.916 331.24 226.012C331.24 228.107 332.943 229.806 335.042 229.806C337.143 229.806 338.845 228.107 338.845 226.012Z" fill="#99C36B"/>
<path d="M335.043 221.851C332.744 221.851 330.874 223.717 330.874 226.011C330.874 228.306 332.744 230.172 335.043 230.172C337.342 230.172 339.212 228.306 339.212 226.011C339.213 223.717 337.342 221.851 335.043 221.851ZM335.043 229.44C333.149 229.44 331.608 227.902 331.608 226.011C331.608 224.122 333.149 222.584 335.043 222.584C336.937 222.584 338.478 224.122 338.478 226.011C338.479 227.902 336.937 229.44 335.043 229.44Z" fill="#99C36B"/>
<path d="M259.945 226.012C259.945 223.17 257.636 220.866 254.788 220.866C251.94 220.866 249.632 223.17 249.632 226.012C249.632 228.853 251.94 231.157 254.788 231.157C257.636 231.157 259.945 228.853 259.945 226.012Z" fill="#99C36B"/>
<path d="M254.789 220.5C251.743 220.5 249.265 222.972 249.265 226.012C249.265 229.051 251.743 231.523 254.789 231.523C257.835 231.523 260.313 229.051 260.313 226.012C260.313 222.972 257.835 220.5 254.789 220.5ZM254.789 230.791C252.148 230.791 249.999 228.647 249.999 226.012C249.999 223.377 252.148 221.233 254.789 221.233C257.43 221.233 259.579 223.377 259.579 226.012C259.579 228.647 257.43 230.791 254.789 230.791Z" fill="#99C36B"/>
<path d="M244.19 211.363C244.19 209.114 242.363 207.291 240.108 207.291C237.854 207.291 236.027 209.114 236.027 211.363C236.027 213.612 237.854 215.436 240.108 215.436C242.363 215.436 244.19 213.612 244.19 211.363Z" fill="#99C36B"/>
<path d="M240.108 206.924C237.655 206.924 235.66 208.915 235.66 211.363C235.66 213.81 237.655 215.802 240.108 215.802C242.561 215.802 244.557 213.81 244.557 211.363C244.557 208.915 242.561 206.924 240.108 206.924ZM240.108 215.069C238.06 215.069 236.394 213.406 236.394 211.363C236.394 209.319 238.06 207.656 240.108 207.656C242.156 207.656 243.823 209.319 243.823 211.363C243.823 213.406 242.156 215.069 240.108 215.069Z" fill="#99C36B"/>
<path d="M243.837 66.1783C243.837 64.1236 242.167 62.4578 240.108 62.4578C238.049 62.4578 236.379 64.1236 236.379 66.1783C236.379 68.2333 238.049 69.8989 240.108 69.8989C242.167 69.8989 243.837 68.233 243.837 66.1783Z" fill="#99C36B"/>
<path d="M240.108 62.0918C237.85 62.0918 236.013 63.9249 236.013 66.1788C236.013 68.4326 237.85 70.2658 240.108 70.2658C242.366 70.2658 244.204 68.4326 244.204 66.1788C244.204 63.9249 242.366 62.0918 240.108 62.0918ZM240.108 69.5335C238.254 69.5335 236.747 68.0288 236.747 66.1791C236.747 64.3295 238.254 62.8244 240.108 62.8244C241.962 62.8244 243.47 64.3291 243.47 66.1791C243.47 68.0284 241.962 69.5335 240.108 69.5335Z" fill="#99C36B"/>
<path d="M228.363 51.5298C228.363 49.9123 227.049 48.6013 225.428 48.6013C223.807 48.6013 222.493 49.9123 222.493 51.5298C222.493 53.1473 223.807 54.4584 225.428 54.4584C227.049 54.4588 228.363 53.1473 228.363 51.5298Z" fill="#99C36B"/>
<path d="M225.428 48.2346C223.607 48.2346 222.126 49.713 222.126 51.5297C222.126 53.3464 223.607 54.8241 225.428 54.8241C227.249 54.8241 228.73 53.3464 228.73 51.5297C228.73 49.713 227.249 48.2346 225.428 48.2346ZM225.428 54.0922C224.012 54.0922 222.86 52.9426 222.86 51.5301C222.86 50.1169 224.012 48.9673 225.428 48.9673C226.844 48.9673 227.996 50.1165 227.996 51.5301C227.996 52.9426 226.844 54.0922 225.428 54.0922Z" fill="#99C36B"/>
<path d="M79.7666 51.5297C79.7666 49.1012 77.7939 47.1329 75.3603 47.1329C72.9266 47.1329 70.9539 49.1016 70.9539 51.5297C70.9539 53.9581 72.9266 55.9264 75.3603 55.9264C77.7939 55.9268 79.7666 53.9581 79.7666 51.5297Z" fill="#99C36B"/>
<path d="M75.3601 46.7673C72.7279 46.7673 70.5864 48.9036 70.5864 51.5301C70.5864 54.1567 72.7279 56.293 75.3601 56.293C77.9923 56.293 80.1335 54.1563 80.1335 51.5301C80.1335 48.9039 77.9923 46.7673 75.3601 46.7673ZM75.3601 55.5607C73.1327 55.5607 71.3204 53.7525 71.3204 51.5301C71.3204 49.3078 73.1327 47.4995 75.3601 47.4995C77.5872 47.4995 79.3995 49.3078 79.3995 51.5301C79.3995 53.7525 77.5875 55.5607 75.3601 55.5607Z" fill="#99C36B"/>
<path d="M64.4344 66.1788C64.4344 64.1095 62.7531 62.4323 60.6795 62.4323C58.6059 62.4323 56.9246 64.1099 56.9246 66.1788C56.9246 68.2481 58.6059 69.9257 60.6795 69.9257C62.7535 69.9253 64.4344 68.2481 64.4344 66.1788Z" fill="#99C36B"/>
<path d="M60.6798 62.0664C58.4069 62.0664 56.5579 63.9113 56.5579 66.1794C56.5579 68.4475 58.4069 70.292 60.6798 70.292C62.9523 70.292 64.8017 68.4472 64.8017 66.1794C64.8017 63.9109 62.9527 62.0664 60.6798 62.0664ZM60.6798 69.5594C58.8117 69.5594 57.2919 68.0429 57.2919 66.179C57.2919 64.3151 58.812 62.7987 60.6798 62.7987C62.5479 62.7987 64.0677 64.3151 64.0677 66.179C64.0677 68.0429 62.5479 69.5594 60.6798 69.5594Z" fill="#99C36B"/>
<path d="M65.858 228.29C65.858 225.437 63.5396 223.123 60.6798 223.123C57.8201 223.123 55.5017 225.437 55.5017 228.29C55.5017 231.144 57.8201 233.458 60.6798 233.458C63.5396 233.458 65.858 231.144 65.858 228.29Z" fill="#99C36B"/>
<path d="M60.6799 222.758C57.6224 222.758 55.1347 225.239 55.1347 228.291C55.1347 231.342 57.6224 233.824 60.6799 233.824C63.7375 233.824 66.2251 231.342 66.2251 228.291C66.2255 225.239 63.7379 222.758 60.6799 222.758ZM60.6799 233.092C58.0272 233.092 55.8688 230.938 55.8688 228.291C55.8688 225.644 58.0272 223.49 60.6799 223.49C63.3331 223.49 65.4911 225.643 65.4911 228.291C65.4915 230.938 63.3331 233.092 60.6799 233.092Z" fill="#99C36B"/>
<path d="M49.0816 242.939C49.0816 241.24 47.7016 239.863 45.999 239.863C44.2968 239.863 42.9168 241.24 42.9168 242.939C42.9168 244.638 44.2968 246.015 45.999 246.015C47.7016 246.014 49.0816 244.637 49.0816 242.939Z" fill="#99C36B"/>
<path d="M45.9986 239.497C44.0964 239.497 42.5494 241.041 42.5494 242.939C42.5494 244.837 44.0967 246.381 45.9986 246.381C47.9008 246.381 49.4482 244.837 49.4482 242.939C49.4482 241.041 47.9008 239.497 45.9986 239.497ZM45.9986 245.648C44.5016 245.648 43.2834 244.433 43.2834 242.939C43.2834 241.445 44.5016 240.229 45.9986 240.229C47.4956 240.229 48.7141 241.445 48.7141 242.939C48.7141 244.433 47.496 245.648 45.9986 245.648Z" fill="#99C36B"/>
<path d="M376.543 146.258C376.543 143.703 374.468 141.632 371.907 141.632C369.346 141.632 367.271 143.703 367.271 146.258C367.271 148.813 369.346 150.884 371.907 150.884C374.468 150.884 376.543 148.813 376.543 146.258Z" fill="#99C36B"/>
<path d="M371.907 141.265C369.148 141.265 366.903 143.505 366.903 146.258C366.903 149.011 369.148 151.25 371.907 151.25C374.666 151.25 376.91 149.011 376.91 146.258C376.91 143.505 374.666 141.265 371.907 141.265ZM371.907 150.518C369.553 150.518 367.637 148.607 367.637 146.258C367.637 143.909 369.553 141.998 371.907 141.998C374.261 141.998 376.176 143.909 376.176 146.258C376.176 148.607 374.261 150.518 371.907 150.518Z" fill="#99C36B"/>
<path d="M360.3 160.907C360.3 159.213 358.924 157.84 357.227 157.84C355.529 157.84 354.154 159.213 354.154 160.907C354.154 162.6 355.529 163.973 357.227 163.973C358.924 163.973 360.3 162.6 360.3 160.907Z" fill="#99C36B"/>
<path d="M357.226 157.474C355.33 157.474 353.786 159.014 353.786 160.907C353.786 162.799 355.33 164.339 357.226 164.339C359.123 164.339 360.666 162.799 360.666 160.907C360.666 159.014 359.123 157.474 357.226 157.474ZM357.226 163.607C355.734 163.607 354.52 162.396 354.52 160.907C354.52 159.417 355.734 158.206 357.226 158.206C358.719 158.206 359.932 159.417 359.932 160.907C359.932 162.396 358.719 163.607 357.226 163.607Z" fill="#99C36B"/>
<path d="M318.809 160.906C318.809 158.706 317.021 156.923 314.816 156.923C312.611 156.923 310.824 158.706 310.824 160.906C310.824 163.106 312.611 164.89 314.816 164.89C317.021 164.89 318.809 163.107 318.809 160.906Z" fill="#99C36B"/>
<path d="M314.816 156.556C312.412 156.556 310.457 158.508 310.457 160.907C310.457 163.306 312.412 165.257 314.816 165.257C317.22 165.257 319.176 163.306 319.176 160.907C319.176 158.508 317.22 156.556 314.816 156.556ZM314.816 164.524C312.818 164.524 311.191 162.901 311.191 160.907C311.191 158.912 312.818 157.289 314.816 157.289C316.815 157.289 318.442 158.912 318.442 160.907C318.442 162.902 316.815 164.524 314.816 164.524Z" fill="#99C36B"/>
<path d="M303.022 175.555C303.022 173.964 301.729 172.675 300.135 172.675C298.541 172.675 297.249 173.964 297.249 175.555C297.249 177.146 298.541 178.435 300.135 178.435C301.729 178.435 303.022 177.145 303.022 175.555Z" fill="#99C36B"/>
<path d="M300.136 172.309C298.341 172.309 296.882 173.765 296.882 175.555C296.882 177.346 298.342 178.802 300.136 178.802C301.93 178.802 303.389 177.346 303.389 175.555C303.389 173.765 301.93 172.309 300.136 172.309ZM300.136 178.069C298.746 178.069 297.616 176.941 297.616 175.555C297.616 174.169 298.746 173.041 300.136 173.041C301.525 173.041 302.655 174.169 302.655 175.555C302.655 176.941 301.525 178.069 300.136 178.069Z" fill="#99C36B"/>
<path d="M304.382 243.915C304.382 241.575 302.481 239.677 300.135 239.677C297.79 239.677 295.888 241.575 295.888 243.915C295.888 246.256 297.79 248.153 300.135 248.153C302.481 248.154 304.382 246.256 304.382 243.915Z" fill="#99C36B"/>
<path d="M300.135 239.311C297.59 239.311 295.521 241.377 295.521 243.916C295.521 246.454 297.591 248.52 300.135 248.52C302.679 248.52 304.749 246.454 304.749 243.916C304.749 241.377 302.679 239.311 300.135 239.311ZM300.135 247.787C297.996 247.787 296.255 246.05 296.255 243.915C296.255 241.78 297.996 240.043 300.135 240.043C302.274 240.043 304.015 241.78 304.015 243.915C304.015 246.05 302.274 247.787 300.135 247.787Z" fill="#99C36B"/>
<path d="M288.593 258.565C288.593 256.835 287.188 255.433 285.455 255.433C283.722 255.433 282.317 256.835 282.317 258.565C282.317 260.294 283.722 261.696 285.455 261.696C287.188 261.696 288.593 260.294 288.593 258.565Z" fill="#99C36B"/>
<path d="M285.455 255.066C283.522 255.066 281.95 256.636 281.95 258.564C281.95 260.493 283.522 262.062 285.455 262.062C287.388 262.062 288.961 260.493 288.961 258.564C288.961 256.636 287.388 255.066 285.455 255.066ZM285.455 261.33C283.927 261.33 282.684 260.089 282.684 258.564C282.684 257.039 283.927 255.799 285.455 255.799C286.983 255.799 288.227 257.039 288.227 258.564C288.227 260.089 286.983 261.33 285.455 261.33Z" fill="#99C36B"/>
<path d="M119.209 258.564C119.209 256.333 117.397 254.524 115.16 254.524C112.924 254.524 111.111 256.333 111.111 258.564C111.111 260.796 112.924 262.604 115.16 262.604C117.397 262.604 119.209 260.796 119.209 258.564Z" fill="#99C36B"/>
<path d="M115.16 254.157C112.725 254.157 110.744 256.134 110.744 258.563C110.744 260.993 112.725 262.97 115.16 262.97C117.595 262.97 119.576 260.993 119.576 258.563C119.576 256.134 117.595 254.157 115.16 254.157ZM115.16 262.238C113.13 262.238 111.479 260.59 111.479 258.564C111.479 256.538 113.13 254.89 115.16 254.89C117.19 254.89 118.842 256.538 118.842 258.564C118.842 260.59 117.19 262.238 115.16 262.238Z" fill="#99C36B"/>
<path d="M100.48 269.835C102.349 269.835 103.865 271.347 103.865 273.213C103.865 275.078 102.349 276.591 100.48 276.591C98.6106 276.591 97.0951 275.078 97.0951 273.213C97.0951 271.347 98.6106 269.835 100.48 269.835Z" fill="#99C36B"/>
<path d="M100.48 269.469C98.4109 269.469 96.7278 271.148 96.7278 273.213C96.7278 275.278 98.4109 276.957 100.48 276.957C102.549 276.957 104.232 275.278 104.232 273.213C104.232 271.148 102.549 269.469 100.48 269.469ZM100.48 276.225C98.8161 276.225 97.4618 274.874 97.4618 273.213C97.4618 271.553 98.8158 270.201 100.48 270.201C102.145 270.201 103.498 271.552 103.498 273.213C103.498 274.874 102.144 276.225 100.48 276.225Z" fill="#99C36B"/>
<path d="M103.352 405.377C103.352 403.794 102.066 402.511 100.48 402.511C98.8935 402.511 97.6079 403.794 97.6079 405.377C97.6079 406.959 98.8935 408.242 100.48 408.242C102.066 408.242 103.352 406.959 103.352 405.377Z" fill="#99C36B"/>
<path d="M100.48 402.145C98.694 402.145 97.241 403.595 97.241 405.377C97.241 407.159 98.694 408.609 100.48 408.609C102.265 408.609 103.718 407.159 103.718 405.377C103.718 403.595 102.265 402.145 100.48 402.145ZM100.48 407.876C99.0985 407.876 97.975 406.755 97.975 405.377C97.975 403.998 99.0988 402.877 100.48 402.877C101.861 402.877 102.984 403.998 102.984 405.377C102.984 406.755 101.861 407.876 100.48 407.876Z" fill="#99C36B"/>
<path d="M88.6256 420.025C88.6256 418.468 87.3605 417.206 85.8003 417.206C84.2398 417.206 82.9751 418.469 82.9751 420.025C82.9751 421.582 84.2402 422.845 85.8003 422.845C87.3605 422.845 88.6256 421.583 88.6256 420.025Z" fill="#99C36B"/>
<path d="M85.7998 416.84C84.0396 416.84 82.6075 418.269 82.6075 420.025C82.6075 421.781 84.0396 423.211 85.7998 423.211C87.56 423.211 88.9921 421.782 88.9921 420.025C88.9921 418.269 87.56 416.84 85.7998 416.84ZM85.7998 422.478C84.4444 422.478 83.3416 421.378 83.3416 420.025C83.3416 418.673 84.4444 417.572 85.7998 417.572C87.1552 417.572 88.2581 418.673 88.2581 420.025C88.2581 421.378 87.1552 422.478 85.7998 422.478Z" fill="#99C36B"/>
<path d="M74.0558 469.639C76.8644 469.639 79.1411 471.911 79.1411 474.714C79.1411 477.516 76.8644 479.788 74.0558 479.788C71.2473 479.788 68.9705 477.516 68.9705 474.714C68.9705 471.911 71.2473 469.639 74.0558 469.639Z" fill="#99C36B"/>
<path d="M74.0555 469.273C71.0493 469.273 68.6032 471.713 68.6032 474.713C68.6032 477.713 71.0493 480.154 74.0555 480.154C77.0618 480.154 79.5079 477.713 79.5079 474.713C79.5079 471.713 77.0618 469.273 74.0555 469.273ZM74.0555 479.422C71.4538 479.422 69.3372 477.31 69.3372 474.713C69.3372 472.117 71.4542 470.005 74.0555 470.005C76.6573 470.005 78.7739 472.117 78.7739 474.713C78.7739 477.309 76.6573 479.422 74.0555 479.422Z" fill="#99C36B"/>
<path d="M92.8728 489.362C92.8728 487.082 91.0205 485.234 88.7355 485.234C86.4504 485.234 84.5981 487.082 84.5981 489.362C84.5981 491.642 86.4504 493.49 88.7355 493.49C91.0205 493.49 92.8728 491.642 92.8728 489.362Z" fill="#99C36B"/>
<path d="M88.7359 484.867C86.2524 484.867 84.232 486.884 84.232 489.362C84.232 491.84 86.2527 493.857 88.7359 493.857C91.2191 493.857 93.2399 491.84 93.2399 489.362C93.2399 486.884 91.2191 484.867 88.7359 484.867ZM88.7359 493.124C86.6572 493.124 84.966 491.436 84.966 489.361C84.966 487.287 86.6572 485.6 88.7359 485.6C90.8147 485.6 92.5059 487.287 92.5059 489.361C92.5059 491.436 90.8147 493.124 88.7359 493.124Z" fill="#99C36B"/>
<path d="M174.822 585.692C174.84 588.55 172.531 590.882 169.666 590.9C166.801 590.917 164.464 588.614 164.447 585.755C164.43 582.896 166.738 580.564 169.603 580.546C172.468 580.529 174.805 582.833 174.822 585.692Z" fill="#99C36B"/>
<path d="M169.642 580.176C166.579 580.176 164.087 582.662 164.087 585.718C164.087 588.775 166.579 591.261 169.642 591.261C172.705 591.261 175.196 588.775 175.196 585.718C175.196 582.662 172.705 580.176 169.642 580.176ZM169.642 590.528C166.984 590.528 164.821 588.37 164.821 585.718C164.821 583.066 166.984 580.908 169.642 580.908C172.3 580.908 174.462 583.066 174.462 585.718C174.462 588.37 172.3 590.528 169.642 590.528Z" fill="#99C36B"/>
<path d="M187.174 571.07C187.174 569.498 185.897 568.223 184.322 568.223C182.746 568.223 181.469 569.497 181.469 571.07C181.469 572.641 182.746 573.916 184.322 573.916C185.897 573.916 187.174 572.641 187.174 571.07Z" fill="#99C36B"/>
<path d="M184.322 567.857C182.547 567.857 181.103 569.298 181.103 571.069C181.103 572.84 182.547 574.281 184.322 574.281C186.097 574.281 187.541 572.84 187.541 571.069C187.542 569.298 186.097 567.857 184.322 567.857ZM184.322 573.549C182.952 573.549 181.837 572.436 181.837 571.069C181.837 569.702 182.952 568.589 184.322 568.589C185.693 568.589 186.807 569.702 186.807 571.069C186.808 572.436 185.693 573.549 184.322 573.549Z" fill="#99C36B"/>
<path d="M284.646 571.069C284.646 568.638 282.671 566.668 280.235 566.668C277.799 566.668 275.824 568.638 275.824 571.069C275.824 573.5 277.799 575.471 280.235 575.471C282.671 575.471 284.646 573.5 284.646 571.069Z" fill="#99C36B"/>
<path d="M280.235 566.302C277.6 566.302 275.457 568.44 275.457 571.069C275.457 573.698 277.6 575.837 280.235 575.837C282.87 575.837 285.013 573.698 285.013 571.069C285.013 568.44 282.87 566.302 280.235 566.302ZM280.235 575.104C278.005 575.104 276.191 573.294 276.191 571.069C276.191 568.844 278.005 567.034 280.235 567.034C282.465 567.034 284.279 568.845 284.279 571.069C284.279 573.294 282.464 575.104 280.235 575.104Z" fill="#99C36B"/>
<path d="M298.71 585.718C298.71 583.627 297.011 581.932 294.916 581.932C292.82 581.932 291.121 583.627 291.121 585.718C291.121 587.809 292.82 589.504 294.916 589.504C297.011 589.504 298.71 587.809 298.71 585.718Z" fill="#99C36B"/>
<path d="M294.916 581.566C292.621 581.566 290.754 583.428 290.754 585.718C290.754 588.007 292.621 589.87 294.916 589.87C297.21 589.87 299.077 588.007 299.077 585.718C299.077 583.428 297.21 581.566 294.916 581.566ZM294.916 589.138C293.026 589.138 291.488 587.604 291.488 585.718C291.488 583.832 293.026 582.298 294.916 582.298C296.805 582.298 298.343 583.833 298.343 585.718C298.343 587.604 296.806 589.138 294.916 589.138Z" fill="#99C36B"/>
<path d="M376.8 192.333C378.505 192.333 379.886 193.712 379.886 195.412C379.886 197.113 378.505 198.492 376.8 198.492C375.096 198.492 373.714 197.113 373.714 195.412C373.714 193.712 375.096 192.333 376.8 192.333Z" fill="#99C36B"/>
<path d="M376.8 191.967C374.896 191.967 373.347 193.512 373.347 195.413C373.347 197.313 374.896 198.858 376.8 198.858C378.705 198.858 380.254 197.313 380.254 195.413C380.254 193.512 378.705 191.967 376.8 191.967ZM376.8 198.126C375.301 198.126 374.081 196.908 374.081 195.413C374.081 193.916 375.301 192.699 376.8 192.699C378.3 192.699 379.52 193.916 379.52 195.413C379.52 196.908 378.299 198.126 376.8 198.126Z" fill="#99C36B"/>
<path d="M395.964 210.062C395.964 207.591 393.956 205.588 391.481 205.588C389.005 205.588 386.998 207.591 386.998 210.062C386.998 212.532 389.005 214.535 391.481 214.535C393.957 214.535 395.964 212.532 395.964 210.062Z" fill="#99C36B"/>
<path d="M391.481 205.222C388.807 205.222 386.631 207.392 386.631 210.061C386.631 212.73 388.807 214.9 391.481 214.9C394.155 214.9 396.331 212.73 396.331 210.061C396.331 207.393 394.155 205.222 391.481 205.222ZM391.481 214.168C389.211 214.168 387.365 212.326 387.365 210.061C387.365 207.796 389.211 205.954 391.481 205.954C393.75 205.954 395.597 207.797 395.597 210.061C395.597 212.326 393.75 214.168 391.481 214.168Z" fill="#99C36B"/>
<path d="M394.943 268.656C394.943 266.747 393.393 265.201 391.481 265.201C389.568 265.201 388.018 266.747 388.018 268.656C388.018 270.564 389.568 272.111 391.481 272.111C393.393 272.111 394.943 270.564 394.943 268.656Z" fill="#99C36B"/>
<path d="M391.481 264.834C389.369 264.834 387.651 266.548 387.651 268.655C387.651 270.762 389.369 272.476 391.481 272.476C393.593 272.476 395.311 270.762 395.311 268.655C395.311 266.548 393.593 264.834 391.481 264.834ZM391.481 271.744C389.775 271.744 388.385 270.359 388.385 268.655C388.385 266.951 389.774 265.566 391.481 265.566C393.188 265.566 394.577 266.951 394.577 268.655C394.577 270.359 393.188 271.744 391.481 271.744Z" fill="#99C36B"/>
<path d="M376.8 278.905C379.235 278.905 381.209 280.875 381.209 283.305C381.209 285.734 379.235 287.704 376.8 287.704C374.366 287.704 372.392 285.734 372.392 283.305C372.392 280.875 374.366 278.905 376.8 278.905Z" fill="#99C36B"/>
<path d="M376.8 278.539C374.167 278.539 372.024 280.677 372.024 283.305C372.024 285.933 374.167 288.07 376.8 288.07C379.434 288.07 381.577 285.933 381.577 283.305C381.577 280.677 379.434 278.539 376.8 278.539ZM376.8 287.338C374.572 287.338 372.758 285.528 372.758 283.305C372.758 281.081 374.571 279.271 376.8 279.271C379.029 279.271 380.843 281.081 380.843 283.305C380.843 285.528 379.029 287.338 376.8 287.338Z" fill="#99C36B"/>
<path d="M329.171 279.399C331.332 279.399 333.085 281.147 333.085 283.304C333.085 285.461 331.332 287.21 329.171 287.21C327.009 287.21 325.256 285.461 325.256 283.304C325.256 281.147 327.009 279.399 329.171 279.399Z" fill="#99C36B"/>
<path d="M329.17 279.033C326.809 279.033 324.889 280.949 324.889 283.305C324.889 285.66 326.809 287.576 329.17 287.576C331.531 287.576 333.451 285.66 333.451 283.305C333.451 280.949 331.531 279.033 329.17 279.033ZM329.17 286.844C327.214 286.844 325.623 285.256 325.623 283.305C325.623 281.353 327.214 279.765 329.17 279.765C331.126 279.765 332.717 281.353 332.717 283.305C332.717 285.256 331.126 286.844 329.17 286.844Z" fill="#99C36B"/>
<path d="M314.49 295.165C316.033 295.165 317.283 296.413 317.283 297.953C317.283 299.492 316.033 300.74 314.49 300.74C312.947 300.74 311.696 299.492 311.696 297.953C311.696 296.413 312.947 295.165 314.49 295.165Z" fill="#99C36B"/>
<path d="M314.489 294.799C312.746 294.799 311.329 296.214 311.329 297.953C311.329 299.691 312.746 301.106 314.489 301.106C316.232 301.106 317.65 299.692 317.65 297.953C317.65 296.214 316.232 294.799 314.489 294.799ZM314.489 300.374C313.151 300.374 312.063 299.287 312.063 297.953C312.063 296.618 313.151 295.532 314.489 295.532C315.827 295.532 316.916 296.618 316.916 297.953C316.916 299.287 315.828 300.374 314.489 300.374Z" fill="#99C36B"/>
<path d="M318.503 380.636C318.503 378.425 316.706 376.632 314.489 376.632C312.273 376.632 310.476 378.425 310.476 380.636C310.476 382.848 312.273 384.641 314.489 384.641C316.706 384.641 318.503 382.848 318.503 380.636Z" fill="#99C36B"/>
<path d="M314.49 376.266C312.074 376.266 310.109 378.226 310.109 380.636C310.109 383.046 312.074 385.007 314.49 385.007C316.905 385.007 318.87 383.046 318.87 380.636C318.87 378.226 316.905 376.266 314.49 376.266ZM314.49 384.274C312.479 384.274 310.843 382.642 310.843 380.636C310.843 378.63 312.479 376.998 314.49 376.998C316.5 376.998 318.136 378.63 318.136 380.636C318.136 382.642 316.5 384.274 314.49 384.274Z" fill="#99C36B"/>
<path d="M302.813 395.286C302.813 393.63 301.468 392.289 299.809 392.289C298.15 392.289 296.805 393.63 296.805 395.286C296.805 396.941 298.15 398.283 299.809 398.283C301.468 398.283 302.813 396.94 302.813 395.286Z" fill="#99C36B"/>
<path d="M299.809 391.922C297.951 391.922 296.439 393.431 296.439 395.285C296.439 397.14 297.951 398.648 299.809 398.648C301.667 398.648 303.18 397.14 303.18 395.285C303.18 393.431 301.668 391.922 299.809 391.922ZM299.809 397.916C298.355 397.916 297.173 396.736 297.173 395.286C297.173 393.835 298.355 392.655 299.809 392.655C301.263 392.655 302.446 393.835 302.446 395.286C302.446 396.736 301.263 397.916 299.809 397.916Z" fill="#99C36B"/>
<path d="M253.834 395.285C253.834 393.654 252.509 392.332 250.874 392.332C249.239 392.332 247.914 393.654 247.914 395.285C247.914 396.917 249.239 398.239 250.874 398.239C252.509 398.239 253.834 396.916 253.834 395.285Z" fill="#99C36B"/>
<path d="M250.874 391.966C249.039 391.966 247.547 393.455 247.547 395.286C247.547 397.116 249.039 398.606 250.874 398.606C252.709 398.606 254.201 397.116 254.201 395.286C254.202 393.455 252.709 391.966 250.874 391.966ZM250.874 397.873C249.444 397.873 248.281 396.712 248.281 395.286C248.281 393.859 249.444 392.698 250.874 392.698C252.304 392.698 253.467 393.859 253.467 395.286C253.468 396.712 252.304 397.873 250.874 397.873Z" fill="#99C36B"/>
<path d="M239.729 409.934C239.729 407.986 238.146 406.406 236.194 406.406C234.242 406.406 232.659 407.986 232.659 409.934C232.659 411.882 234.242 413.461 236.194 413.461C238.146 413.461 239.729 411.882 239.729 409.934Z" fill="#99C36B"/>
<path d="M236.193 406.041C234.042 406.041 232.291 407.787 232.291 409.934C232.291 412.082 234.042 413.828 236.193 413.828C238.345 413.828 240.096 412.082 240.096 409.934C240.096 407.787 238.345 406.041 236.193 406.041ZM236.193 413.096C234.446 413.096 233.025 411.678 233.025 409.934C233.025 408.191 234.446 406.773 236.193 406.773C237.94 406.773 239.362 408.191 239.362 409.934C239.362 411.678 237.94 413.096 236.193 413.096Z" fill="#99C36B"/>
<path d="M239.444 476.992C239.444 475.201 237.989 473.749 236.193 473.749C234.398 473.749 232.943 475.201 232.943 476.992C232.943 478.784 234.398 480.236 236.193 480.236C237.989 480.236 239.444 478.784 239.444 476.992Z" fill="#99C36B"/>
<path d="M236.193 473.382C234.199 473.382 232.576 475.002 232.576 476.992C232.576 478.982 234.199 480.602 236.193 480.602C238.188 480.602 239.811 478.982 239.811 476.992C239.811 475.002 238.188 473.382 236.193 473.382ZM236.193 479.869C234.604 479.869 233.31 478.579 233.31 476.992C233.31 475.406 234.604 474.115 236.193 474.115C237.783 474.115 239.077 475.406 239.077 476.992C239.077 478.578 237.783 479.869 236.193 479.869Z" fill="#99C36B"/>
<path d="M256.014 491.641C256.014 488.809 253.713 486.513 250.874 486.513C248.036 486.513 245.735 488.809 245.735 491.641C245.735 494.473 248.036 496.769 250.874 496.769C253.712 496.769 256.014 494.473 256.014 491.641Z" fill="#99C36B"/>
<path d="M250.874 486.147C247.838 486.147 245.368 488.612 245.368 491.641C245.368 494.671 247.838 497.136 250.874 497.136C253.91 497.136 256.38 494.671 256.38 491.641C256.38 488.612 253.91 486.147 250.874 486.147ZM250.874 496.403C248.243 496.403 246.102 494.267 246.102 491.641C246.102 489.015 248.243 486.879 250.874 486.879C253.506 486.879 255.646 489.015 255.646 491.641C255.646 494.267 253.506 496.403 250.874 496.403Z" fill="#99C36B"/>
<path d="M283.853 491.641C283.853 489.647 282.233 488.031 280.236 488.031C278.237 488.031 276.618 489.647 276.618 491.641C276.618 493.634 278.237 495.25 280.236 495.25C282.233 495.25 283.853 493.634 283.853 491.641Z" fill="#99C36B"/>
<path d="M280.235 487.665C278.038 487.665 276.251 489.448 276.251 491.64C276.251 493.833 278.038 495.616 280.235 495.616C282.432 495.616 284.219 493.833 284.219 491.64C284.22 489.448 282.432 487.665 280.235 487.665ZM280.235 494.884C278.443 494.884 276.985 493.429 276.985 491.64C276.985 489.852 278.443 488.397 280.235 488.397C282.028 488.397 283.485 489.852 283.485 491.64C283.486 493.429 282.028 494.884 280.235 494.884Z" fill="#99C36B"/>
<path d="M298.03 476.992C298.03 475.276 296.636 473.885 294.916 473.885C293.196 473.885 291.802 475.276 291.802 476.992C291.802 478.708 293.197 480.099 294.916 480.099C296.636 480.099 298.03 478.708 298.03 476.992Z" fill="#99C36B"/>
<path d="M294.916 473.518C292.996 473.518 291.435 475.077 291.435 476.992C291.435 478.907 292.997 480.465 294.916 480.465C296.835 480.465 298.396 478.907 298.396 476.992C298.396 475.077 296.835 473.518 294.916 473.518ZM294.916 479.733C293.401 479.733 292.169 478.503 292.169 476.992C292.169 475.481 293.401 474.251 294.916 474.251C296.43 474.251 297.662 475.481 297.662 476.992C297.663 478.503 296.43 479.733 294.916 479.733Z" fill="#99C36B"/>
<path d="M298.125 472.435C298.125 470.666 296.688 469.232 294.915 469.232C293.142 469.232 291.706 470.666 291.706 472.435C291.706 474.203 293.142 475.637 294.915 475.637C296.688 475.637 298.125 474.203 298.125 472.435Z" fill="#99C36B"/>
<path d="M294.915 468.866C292.943 468.866 291.339 470.467 291.339 472.435C291.339 474.402 292.943 476.003 294.915 476.003C296.887 476.003 298.492 474.403 298.492 472.435C298.492 470.467 296.887 468.866 294.915 468.866ZM294.915 475.271C293.347 475.271 292.073 473.999 292.073 472.435C292.073 470.871 293.348 469.598 294.915 469.598C296.482 469.598 297.758 470.871 297.758 472.435C297.758 473.999 296.483 475.271 294.915 475.271Z" fill="#99C36B"/>
<path d="M312.612 457.787C312.612 456.125 311.262 454.778 309.596 454.778C307.931 454.778 306.581 456.125 306.581 457.787C306.581 459.449 307.931 460.796 309.596 460.796C311.262 460.796 312.612 459.449 312.612 457.787Z" fill="#99C36B"/>
<path d="M309.596 454.411C307.731 454.411 306.213 455.925 306.213 457.787C306.213 459.648 307.731 461.162 309.596 461.162C311.461 461.162 312.979 459.648 312.979 457.787C312.979 455.925 311.461 454.411 309.596 454.411ZM309.596 460.43C308.135 460.43 306.947 459.244 306.947 457.787C306.947 456.329 308.135 455.143 309.596 455.143C311.056 455.143 312.245 456.329 312.245 457.787C312.245 459.244 311.056 460.43 309.596 460.43Z" fill="#99C36B"/>
<path d="M395.012 457.786C395.012 454.941 392.7 452.635 389.85 452.635C386.998 452.635 384.687 454.941 384.687 457.786C384.687 460.631 386.999 462.938 389.85 462.938C392.7 462.938 395.012 460.631 395.012 457.786Z" fill="#99C36B"/>
<path d="M389.849 452.269C386.8 452.269 384.32 454.744 384.32 457.787C384.32 460.829 386.801 463.304 389.849 463.304C392.898 463.304 395.379 460.829 395.379 457.787C395.379 454.744 392.898 452.269 389.849 452.269ZM389.849 462.572C387.205 462.572 385.054 460.425 385.054 457.787C385.054 455.148 387.205 453.001 389.849 453.001C392.494 453.001 394.645 455.148 394.645 457.787C394.645 460.425 392.494 462.572 389.849 462.572Z" fill="#99C36B"/>
<path d="M408.064 472.435C408.064 470.488 406.482 468.909 404.53 468.909C402.579 468.909 400.997 470.488 400.997 472.435C400.997 474.383 402.579 475.961 404.53 475.961C406.482 475.961 408.064 474.383 408.064 472.435Z" fill="#99C36B"/>
<path d="M404.53 468.543C402.379 468.543 400.629 470.289 400.629 472.435C400.629 474.581 402.379 476.327 404.53 476.327C406.681 476.327 408.43 474.581 408.43 472.435C408.43 470.289 406.681 468.543 404.53 468.543ZM404.53 475.595C402.784 475.595 401.363 474.177 401.363 472.435C401.363 470.693 402.784 469.275 404.53 469.275C406.276 469.275 407.696 470.693 407.696 472.435C407.696 474.177 406.276 475.595 404.53 475.595Z" fill="#99C36B"/>
<path d="M135.352 462.995C135.352 460.497 133.323 458.473 130.82 458.473C128.317 458.473 126.288 460.497 126.288 462.995C126.288 465.493 128.317 467.517 130.82 467.517C133.323 467.517 135.352 465.493 135.352 462.995Z" fill="#99C36B"/>
<path d="M130.82 458.106C128.119 458.106 125.921 460.299 125.921 462.994C125.921 465.69 128.118 467.883 130.82 467.883C133.521 467.883 135.719 465.69 135.719 462.994C135.719 460.299 133.521 458.106 130.82 458.106ZM130.82 467.151C128.523 467.151 126.655 465.286 126.655 462.994C126.655 460.703 128.523 458.838 130.82 458.838C133.117 458.838 134.985 460.703 134.985 462.994C134.985 465.286 133.117 467.151 130.82 467.151Z" fill="#99C36B"/>
<path d="M149.827 448.346C149.827 445.961 147.89 444.028 145.5 444.028C143.111 444.028 141.174 445.961 141.174 448.346C141.174 450.73 143.111 452.663 145.5 452.663C147.89 452.663 149.827 450.73 149.827 448.346Z" fill="#99C36B"/>
<path d="M145.501 443.662C142.913 443.662 140.807 445.763 140.807 448.345C140.807 450.928 142.913 453.028 145.501 453.028C148.089 453.028 150.195 450.927 150.195 448.345C150.195 445.763 148.089 443.662 145.501 443.662ZM145.501 452.297C143.318 452.297 141.541 450.524 141.541 448.345C141.541 446.167 143.318 444.394 145.501 444.394C147.684 444.394 149.461 446.167 149.461 448.345C149.461 450.524 147.684 452.297 145.501 452.297Z" fill="#99C36B"/>
<path d="M145.5 376.082C147.661 376.082 149.413 377.83 149.413 379.986C149.413 382.142 147.661 383.89 145.5 383.89C143.34 383.89 141.588 382.142 141.588 379.986C141.588 377.83 143.34 376.082 145.5 376.082Z" fill="#99C36B"/>
<path d="M145.501 375.716C143.141 375.716 141.221 377.631 141.221 379.986C141.221 382.34 143.141 384.256 145.501 384.256C147.861 384.256 149.78 382.34 149.78 379.986C149.78 377.631 147.861 375.716 145.501 375.716ZM145.501 383.524C143.546 383.524 141.955 381.936 141.955 379.986C141.955 378.035 143.546 376.448 145.501 376.448C147.455 376.448 149.046 378.035 149.046 379.986C149.046 381.936 147.455 383.524 145.501 383.524Z" fill="#99C36B"/>
<path d="M130.82 360.461C133.519 360.461 135.707 362.644 135.707 365.337C135.707 368.029 133.519 370.212 130.82 370.212C128.122 370.212 125.934 368.029 125.934 365.337C125.934 362.644 128.122 360.461 130.82 360.461Z" fill="#99C36B"/>
<path d="M130.821 360.095C127.924 360.095 125.568 362.447 125.568 365.337C125.568 368.227 127.924 370.578 130.821 370.578C133.717 370.578 136.074 368.226 136.074 365.337C136.073 362.447 133.717 360.095 130.821 360.095ZM130.821 369.846C128.329 369.846 126.302 367.823 126.302 365.337C126.302 362.85 128.329 360.827 130.821 360.827C133.312 360.827 135.34 362.85 135.34 365.337C135.339 367.823 133.312 369.846 130.821 369.846Z" fill="#99C36B"/>
<path d="M418.417 96.7773C418.417 94.1588 416.289 92.0364 413.665 92.0364C411.041 92.0364 408.914 94.1591 408.914 96.7773C408.914 99.3958 411.041 101.519 413.665 101.519C416.289 101.519 418.417 99.3958 418.417 96.7773Z" fill="#99C36B"/>
<path d="M413.665 91.6706C410.843 91.6706 408.547 93.9618 408.547 96.7776C408.547 99.5942 410.843 101.885 413.665 101.885C416.487 101.885 418.783 99.5942 418.783 96.7776C418.783 93.9614 416.487 91.6706 413.665 91.6706ZM413.665 101.153C411.247 101.153 409.281 99.19 409.281 96.7776C409.281 94.3656 411.247 92.4032 413.665 92.4032C416.082 92.4032 418.049 94.366 418.049 96.7776C418.049 99.19 416.082 101.153 413.665 101.153Z" fill="#99C36B"/>
<path d="M401.986 111.427C401.986 109.773 400.642 108.432 398.984 108.432C397.326 108.432 395.982 109.773 395.982 111.427C395.982 113.081 397.326 114.422 398.984 114.422C400.642 114.422 401.986 113.081 401.986 111.427Z" fill="#99C36B"/>
<path d="M398.984 108.065C397.127 108.065 395.615 109.573 395.615 111.427C395.615 113.281 397.126 114.788 398.984 114.788C400.842 114.788 402.353 113.281 402.353 111.427C402.353 109.573 400.841 108.065 398.984 108.065ZM398.984 114.056C397.531 114.056 396.349 112.877 396.349 111.427C396.349 109.977 397.531 108.797 398.984 108.797C400.437 108.797 401.619 109.977 401.619 111.427C401.619 112.876 400.437 114.056 398.984 114.056Z" fill="#99C36B"/>
<path d="M299.016 111.427C299.016 109.346 297.326 107.66 295.242 107.66C293.157 107.66 291.467 109.346 291.467 111.427C291.467 113.507 293.157 115.193 295.242 115.193C297.326 115.193 299.016 113.507 299.016 111.427Z" fill="#99C36B"/>
<path d="M295.242 107.294C292.958 107.294 291.101 109.148 291.101 111.426C291.101 113.705 292.959 115.559 295.242 115.559C297.526 115.559 299.384 113.705 299.384 111.426C299.384 109.148 297.526 107.294 295.242 107.294ZM295.242 114.827C293.363 114.827 291.835 113.301 291.835 111.426C291.835 109.552 293.363 108.026 295.242 108.026C297.121 108.026 298.65 109.552 298.65 111.426C298.65 113.301 297.121 114.827 295.242 114.827Z" fill="#99C36B"/>
<path d="M284.582 96.7783C284.582 94.5629 282.782 92.7667 280.561 92.7667C278.341 92.7667 276.541 94.5626 276.541 96.7783C276.541 98.9937 278.341 100.79 280.561 100.79C282.782 100.79 284.582 98.9941 284.582 96.7783Z" fill="#99C36B"/>
<path d="M280.561 92.4009C278.142 92.4009 276.174 94.3644 276.174 96.7782C276.174 99.192 278.142 101.156 280.561 101.156C282.98 101.156 284.948 99.192 284.948 96.7782C284.948 94.3644 282.98 92.4009 280.561 92.4009ZM280.561 100.424C278.547 100.424 276.908 98.7882 276.908 96.7782C276.908 94.7682 278.547 93.1331 280.561 93.1331C282.576 93.1331 284.214 94.7682 284.214 96.7782C284.214 98.7882 282.576 100.424 280.561 100.424Z" fill="#99C36B"/>
<path d="M280.561 35.3579C283.207 35.3579 285.351 37.4975 285.351 40.1369C285.351 42.7762 283.207 44.9159 280.561 44.9159C277.916 44.9159 275.772 42.7762 275.772 40.1369C275.772 37.4975 277.916 35.3579 280.561 35.3579Z" fill="#99C36B"/>
<path d="M280.562 34.9906C277.718 34.9906 275.405 37.2987 275.405 40.1361C275.405 42.9735 277.718 45.2816 280.562 45.2816C283.405 45.2816 285.719 42.9735 285.719 40.1361C285.719 37.2987 283.405 34.9906 280.562 34.9906ZM280.562 44.5493C278.123 44.5493 276.139 42.5693 276.139 40.1361C276.139 37.7029 278.123 35.7229 280.562 35.7229C283.001 35.7229 284.985 37.7029 284.985 40.1361C284.985 42.5697 283 44.5493 280.562 44.5493Z" fill="#99C36B"/>
<path d="M108.635 20.6836C111.294 20.6836 113.45 22.8344 113.45 25.4875C113.45 28.1406 111.294 30.2914 108.635 30.2914C105.977 30.2914 103.821 28.1406 103.821 25.4875C103.821 22.8344 105.977 20.6836 108.635 20.6836Z" fill="#99C36B"/>
<path d="M108.636 20.3175C105.779 20.3175 103.455 22.6365 103.455 25.4875C103.455 28.3385 105.779 30.6575 108.636 30.6575C111.493 30.6575 113.817 28.3385 113.817 25.4875C113.817 22.6365 111.493 20.3175 108.636 20.3175ZM108.636 29.9249C106.183 29.9249 104.189 27.9343 104.189 25.4875C104.189 23.0407 106.183 21.0501 108.636 21.0501C111.088 21.0501 113.083 23.0407 113.083 25.4875C113.083 27.9343 111.088 29.9249 108.636 29.9249Z" fill="#99C36B"/>
<path d="M97.5365 40.1365C97.5365 38.1628 95.933 36.5628 93.9552 36.5628C91.9774 36.5628 90.3739 38.1628 90.3739 40.1365C90.3739 42.1103 91.9774 43.7102 93.9552 43.7102C95.933 43.7102 97.5365 42.1103 97.5365 40.1365Z" fill="#99C36B"/>
<path d="M93.9557 36.197C91.7785 36.197 90.0073 37.9643 90.0073 40.1369C90.0073 42.3094 91.7785 44.0767 93.9557 44.0767C96.1332 44.0767 97.9044 42.3094 97.9044 40.1369C97.9044 37.9643 96.1328 36.197 93.9557 36.197ZM93.9557 43.3437C92.1834 43.3437 90.7414 41.9045 90.7414 40.1365C90.7414 38.3685 92.1834 36.9293 93.9557 36.9293C95.7283 36.9293 97.1703 38.3685 97.1703 40.1365C97.17 41.9048 95.7283 43.3437 93.9557 43.3437Z" fill="#99C36B"/>
<path d="M97.4506 70.7362C97.4506 68.81 95.8857 67.2489 93.9556 67.2489C92.0254 67.2489 90.4605 68.8104 90.4605 70.7362C90.4605 72.6623 92.0251 74.2235 93.9556 74.2235C95.8857 74.2235 97.4506 72.662 97.4506 70.7362Z" fill="#99C36B"/>
<path d="M93.955 66.8827C91.8255 66.8827 90.0929 68.6114 90.0929 70.7357C90.0929 72.8606 91.8255 74.5895 93.955 74.5895C96.0847 74.5895 97.8171 72.8606 97.8171 70.7357C97.8171 68.6114 96.0844 66.8827 93.955 66.8827ZM93.955 73.8572C92.2304 73.8572 90.8269 72.4568 90.8269 70.7357C90.8269 69.0145 92.23 67.6149 93.955 67.6149C95.6799 67.6149 97.083 69.0145 97.083 70.7357C97.083 72.4564 95.6799 73.8572 93.955 73.8572Z" fill="#99C36B"/>
<path d="M82.6733 85.3849C82.6733 83.5122 81.152 81.9943 79.2751 81.9943C77.3982 81.9943 75.8769 83.5122 75.8769 85.3849C75.8769 87.2576 77.3985 88.7755 79.2751 88.7755C81.1516 88.7755 82.6733 87.2576 82.6733 85.3849Z" fill="#99C36B"/>
<path d="M79.2745 81.6281C77.1986 81.6281 75.5093 83.3133 75.5093 85.3845C75.5093 87.4567 77.1983 89.1416 79.2745 89.1416C81.3507 89.1416 83.04 87.4564 83.04 85.3845C83.0397 83.3133 81.3507 81.6281 79.2745 81.6281ZM79.2745 88.4093C77.6031 88.4093 76.2433 87.0525 76.2433 85.3845C76.2433 83.7172 77.6031 82.3603 79.2745 82.3603C80.9462 82.3603 82.306 83.7172 82.306 85.3845C82.3056 87.0525 80.9458 88.4093 79.2745 88.4093Z" fill="#99C36B"/>
<path d="M43.3909 395.285C43.3909 393.307 41.7834 391.703 39.8004 391.703C37.8175 391.703 36.21 393.306 36.21 395.285C36.21 397.264 37.8175 398.868 39.8004 398.868C41.7834 398.868 43.3909 397.264 43.3909 395.285Z" fill="#99C36B"/>
<path d="M39.8008 391.336C37.6185 391.336 35.8432 393.107 35.8432 395.285C35.8432 397.463 37.6185 399.234 39.8008 399.234C41.9827 399.234 43.7579 397.463 43.7579 395.285C43.7579 393.107 41.9827 391.336 39.8008 391.336ZM39.8008 398.502C38.0233 398.502 36.5773 397.059 36.5773 395.285C36.5773 393.512 38.0233 392.069 39.8008 392.069C41.5782 392.069 43.0238 393.512 43.0238 395.285C43.0238 397.059 41.5782 398.502 39.8008 398.502Z" fill="#99C36B"/>
<path d="M58.4795 380.637C58.4795 378.433 56.6893 376.647 54.4809 376.647C52.2726 376.647 50.4823 378.433 50.4823 380.637C50.4823 382.84 52.2726 384.627 54.4809 384.627C56.6893 384.627 58.4795 382.84 58.4795 380.637Z" fill="#99C36B"/>
<path d="M54.4811 376.281C52.0735 376.281 50.1155 378.235 50.1155 380.637C50.1155 383.038 52.0739 384.993 54.4811 384.993C56.8884 384.993 58.8468 383.039 58.8468 380.637C58.8464 378.235 56.888 376.281 54.4811 376.281ZM54.4811 384.26C52.4787 384.26 50.8496 382.635 50.8496 380.637C50.8496 378.639 52.4787 377.013 54.4811 377.013C56.4836 377.013 58.1127 378.639 58.1127 380.637C58.1124 382.635 56.4836 384.26 54.4811 384.26Z" fill="#99C36B"/>
<path d="M57.2365 292.745C57.2365 291.226 56.0026 289.995 54.4806 289.995C52.9586 289.995 51.7247 291.226 51.7247 292.745C51.7247 294.263 52.9586 295.495 54.4806 295.495C56.0026 295.495 57.2365 294.263 57.2365 292.745Z" fill="#99C36B"/>
<path d="M54.4812 289.629C52.7595 289.629 51.3583 291.026 51.3583 292.744C51.3583 294.462 52.7592 295.861 54.4812 295.861C56.2028 295.861 57.6037 294.462 57.6037 292.744C57.6037 291.026 56.2028 289.629 54.4812 289.629ZM54.4812 295.128C53.164 295.128 52.0923 294.059 52.0923 292.745C52.0923 291.431 53.164 290.361 54.4812 290.361C55.7984 290.361 56.8697 291.431 56.8697 292.745C56.8697 294.059 55.7984 295.128 54.4812 295.128Z" fill="#99C36B"/>
<path d="M42.7191 278.096C42.7191 276.488 41.4125 275.185 39.801 275.185C38.1894 275.185 36.8828 276.488 36.8828 278.096C36.8828 279.705 38.1894 281.008 39.801 281.008C41.4125 281.008 42.7191 279.704 42.7191 278.096Z" fill="#99C36B"/>
<path d="M39.801 274.818C37.9895 274.818 36.5156 276.289 36.5156 278.096C36.5156 279.903 37.9895 281.374 39.801 281.374C41.6126 281.374 43.0862 279.903 43.0862 278.096C43.0862 276.289 41.6123 274.818 39.801 274.818ZM39.801 280.642C38.3943 280.642 37.2496 279.5 37.2496 278.096C37.2496 276.693 38.3943 275.551 39.801 275.551C41.2078 275.551 42.3522 276.693 42.3522 278.096C42.3522 279.5 41.2078 280.642 39.801 280.642Z" fill="#99C36B"/>
<path d="M150.255 223.407C150.255 220.966 148.272 218.988 145.826 218.988C143.38 218.988 141.397 220.966 141.397 223.407C141.397 225.848 143.38 227.826 145.826 227.826C148.272 227.826 150.255 225.848 150.255 223.407Z" fill="#99C36B"/>
<path d="M145.826 218.622C143.181 218.622 141.03 220.769 141.03 223.407C141.03 226.046 143.181 228.193 145.826 228.193C148.47 228.193 150.622 226.046 150.622 223.407C150.622 220.769 148.471 218.622 145.826 218.622ZM145.826 227.461C143.586 227.461 141.764 225.643 141.764 223.407C141.764 221.173 143.586 219.355 145.826 219.355C148.066 219.355 149.888 221.173 149.888 223.407C149.888 225.643 148.066 227.461 145.826 227.461Z" fill="#99C36B"/>
<path d="M163.634 208.759C163.634 207.036 162.234 205.639 160.507 205.639C158.78 205.639 157.38 207.036 157.38 208.759C157.38 210.482 158.78 211.879 160.507 211.879C162.234 211.879 163.634 210.482 163.634 208.759Z" fill="#99C36B"/>
<path d="M160.506 205.273C158.58 205.273 157.013 206.836 157.013 208.759C157.013 210.681 158.58 212.246 160.506 212.246C162.433 212.246 164 210.681 164 208.759C164 206.836 162.433 205.273 160.506 205.273ZM160.506 211.513C158.985 211.513 157.747 210.277 157.747 208.759C157.747 207.24 158.985 206.005 160.506 206.005C162.028 206.005 163.266 207.24 163.266 208.759C163.266 210.277 162.028 211.513 160.506 211.513Z" fill="#99C36B"/>
<path d="M510.233 61.9462C510.233 59.0678 507.895 56.7345 505.01 56.7345C502.125 56.7345 499.787 59.0678 499.787 61.9462C499.787 64.8247 502.125 67.1583 505.01 67.1583C507.895 67.1583 510.233 64.8247 510.233 61.9462Z" fill="#99C36B"/>
<path d="M505.01 56.3686C501.928 56.3686 499.42 58.8707 499.42 61.9461C499.42 65.0215 501.928 67.5243 505.01 67.5243C508.092 67.5243 510.6 65.0215 510.6 61.9461C510.6 58.8707 508.092 56.3686 505.01 56.3686ZM505.01 66.7924C502.333 66.7924 500.154 64.6188 500.154 61.9465C500.154 59.2749 502.333 57.1012 505.01 57.1012C507.688 57.1012 509.866 59.2749 509.866 61.9465C509.866 64.6184 507.688 66.7924 505.01 66.7924Z" fill="#99C36B"/>
<path d="M334.997 61.9469C334.997 59.4547 332.973 57.4344 330.475 57.4344C327.978 57.4344 325.953 59.4547 325.953 61.9469C325.953 64.4391 327.978 66.4593 330.475 66.4593C332.973 66.4593 334.997 64.4391 334.997 61.9469Z" fill="#99C36B"/>
<path d="M330.475 57.0686C327.779 57.0686 325.586 59.2565 325.586 61.9468C325.586 64.637 327.78 66.8257 330.475 66.8257C333.171 66.8257 335.364 64.637 335.364 61.9468C335.364 59.2565 333.171 57.0686 330.475 57.0686ZM330.475 66.0931C328.184 66.0931 326.32 64.2328 326.32 61.9468C326.32 59.6607 328.184 57.8012 330.475 57.8012C332.766 57.8012 334.63 59.6607 334.63 61.9468C334.63 64.2328 332.766 66.0931 330.475 66.0931Z" fill="#99C36B"/>
<path d="M319.236 47.2978C319.236 45.4013 317.695 43.8639 315.795 43.8639C313.895 43.8639 312.354 45.4013 312.354 47.2978C312.354 49.1943 313.895 50.7316 315.795 50.7316C317.695 50.7316 319.236 49.1943 319.236 47.2978Z" fill="#99C36B"/>
<path d="M315.795 43.4979C313.695 43.4979 311.987 45.2026 311.987 47.2976C311.987 49.3932 313.695 51.0979 315.795 51.0979C317.895 51.0979 319.603 49.3936 319.603 47.2976C319.603 45.2026 317.895 43.4979 315.795 43.4979ZM315.795 50.3653C314.1 50.3653 312.721 48.989 312.721 47.2976C312.721 45.6068 314.1 44.2306 315.795 44.2306C317.49 44.2306 318.869 45.6068 318.869 47.2976C318.869 48.9894 317.49 50.3653 315.795 50.3653Z" fill="#99C36B"/>
<path d="M483.815 543.725C483.815 541.742 482.204 540.134 480.217 540.134C478.229 540.134 476.618 541.742 476.618 543.725C476.618 545.708 478.229 547.316 480.217 547.316C482.204 547.316 483.815 545.708 483.815 543.725Z" fill="#99C36B"/>
<path d="M480.217 539.768C478.03 539.768 476.25 541.543 476.25 543.725C476.25 545.907 478.03 547.682 480.217 547.682C482.403 547.682 484.182 545.907 484.182 543.725C484.182 541.543 482.403 539.768 480.217 539.768ZM480.217 546.949C478.435 546.949 476.984 545.503 476.984 543.725C476.984 541.947 478.434 540.5 480.217 540.5C481.998 540.5 483.448 541.947 483.448 543.725C483.448 545.503 481.998 546.949 480.217 546.949Z" fill="#99C36B"/>
<path d="M405.034 626.086C402.847 626.086 401.068 627.861 401.068 630.043C401.068 632.225 402.847 634 405.034 634C407.22 634 409 632.225 409 630.043C409 627.861 407.22 626.086 405.034 626.086ZM405.034 633.267C403.252 633.267 401.802 631.821 401.802 630.043C401.802 628.265 403.252 626.818 405.034 626.818C406.816 626.818 408.266 628.265 408.266 630.043C408.266 631.821 406.816 633.267 405.034 633.267Z" fill="#99C36B"/>
<path d="M405.034 633.267C403.252 633.267 401.802 631.821 401.802 630.043C401.802 628.265 403.252 626.818 405.034 626.818C406.816 626.818 408.266 628.265 408.266 630.043C408.266 631.821 406.816 633.267 405.034 633.267Z" fill="#99C36B"/>
<path d="M378.373 570.562C376.186 570.562 374.407 572.338 374.407 574.52C374.407 576.702 376.186 578.477 378.373 578.477C380.56 578.477 382.339 576.702 382.339 574.52C382.339 572.338 380.56 570.562 378.373 570.562ZM378.373 577.744C376.592 577.744 375.141 576.297 375.141 574.519C375.141 572.741 376.591 571.295 378.373 571.295C380.155 571.295 381.605 572.741 381.605 574.519C381.605 576.297 380.155 577.744 378.373 577.744Z" fill="#99C36B"/>
<path d="M378.373 577.744C376.592 577.744 375.141 576.297 375.141 574.519C375.141 572.741 376.591 571.295 378.373 571.295C380.155 571.295 381.605 572.741 381.605 574.519C381.605 576.297 380.155 577.744 378.373 577.744Z" fill="#99C36B"/>
<path d="M348.235 601.794C346.048 601.794 344.269 603.57 344.269 605.752C344.269 607.934 346.048 609.708 348.235 609.708C350.422 609.708 352.201 607.934 352.201 605.752C352.201 603.57 350.422 601.794 348.235 601.794ZM348.235 608.976C346.454 608.976 345.003 607.529 345.003 605.751C345.003 603.973 346.453 602.527 348.235 602.527C350.017 602.527 351.467 603.973 351.467 605.751C351.467 607.529 350.017 608.976 348.235 608.976Z" fill="#99C36B"/>
<path d="M348.235 608.976C346.454 608.976 345.003 607.529 345.003 605.751C345.003 603.973 346.453 602.527 348.235 602.527C350.017 602.527 351.467 603.973 351.467 605.751C351.467 607.529 350.017 608.976 348.235 608.976Z" fill="#99C36B"/>
<path d="M334.586 543.725C334.586 541.459 332.746 539.623 330.476 539.623C328.205 539.623 326.365 541.459 326.365 543.725C326.365 545.991 328.205 547.827 330.476 547.827C332.746 547.827 334.586 545.991 334.586 543.725Z" fill="#99C36B"/>
<path d="M330.476 539.257C328.007 539.257 325.998 541.261 325.998 543.725C325.998 546.189 328.007 548.193 330.476 548.193C332.945 548.193 334.954 546.189 334.954 543.725C334.954 541.261 332.945 539.257 330.476 539.257ZM330.476 547.461C328.412 547.461 326.732 545.785 326.732 543.725C326.732 541.665 328.412 539.989 330.476 539.989C332.541 539.989 334.22 541.665 334.22 543.725C334.22 545.785 332.541 547.461 330.476 547.461Z" fill="#99C36B"/>
<path d="M315.795 554.987C317.67 554.987 319.19 556.503 319.19 558.374C319.19 560.245 317.67 561.761 315.795 561.761C313.92 561.761 312.4 560.245 312.4 558.374C312.4 556.503 313.92 554.987 315.795 554.987Z" fill="#99C36B"/>
<path d="M315.795 554.62C313.721 554.62 312.033 556.304 312.033 558.374C312.033 560.443 313.721 562.127 315.795 562.127C317.869 562.127 319.557 560.443 319.557 558.374C319.557 556.304 317.869 554.62 315.795 554.62ZM315.795 561.395C314.126 561.395 312.767 560.04 312.767 558.374C312.767 556.708 314.126 555.353 315.795 555.353C317.465 555.353 318.823 556.708 318.823 558.374C318.823 560.04 317.465 561.395 315.795 561.395Z" fill="#99C36B"/>
<path d="M451.612 434.714C451.612 432.5 449.813 430.705 447.593 430.705C445.374 430.705 443.575 432.5 443.575 434.714C443.575 436.929 445.374 438.724 447.593 438.724C449.813 438.724 451.612 436.929 451.612 434.714Z" fill="#99C36B"/>
<path d="M447.593 430.339C445.176 430.339 443.208 432.302 443.208 434.715C443.208 437.127 445.176 439.09 447.593 439.09C450.011 439.09 451.978 437.127 451.978 434.715C451.978 432.302 450.011 430.339 447.593 430.339ZM447.593 438.358C445.58 438.358 443.942 436.723 443.942 434.715C443.942 432.705 445.58 431.071 447.593 431.071C449.606 431.071 451.244 432.705 451.244 434.715C451.244 436.723 449.606 438.358 447.593 438.358Z" fill="#99C36B"/>
<path d="M335.695 429.98C338.316 429.98 340.44 432.1 340.44 434.714C340.44 437.329 338.316 439.449 335.695 439.449C333.075 439.449 330.95 437.329 330.95 434.714C330.95 432.1 333.075 429.98 335.695 429.98Z" fill="#99C36B"/>
<path d="M335.694 429.614C332.876 429.614 330.583 431.902 330.583 434.714C330.583 437.527 332.876 439.815 335.694 439.815C338.513 439.815 340.806 437.527 340.806 434.714C340.806 431.902 338.513 429.614 335.694 429.614ZM335.694 439.083C333.281 439.083 331.317 437.123 331.317 434.714C331.317 432.306 333.281 430.346 335.694 430.346C338.108 430.346 340.072 432.306 340.072 434.714C340.072 437.123 338.108 439.083 335.694 439.083Z" fill="#99C36B"/>
<path d="M321.015 446.185C322.774 446.185 324.2 447.608 324.2 449.363C324.2 451.119 322.774 452.542 321.015 452.542C319.255 452.542 317.829 451.119 317.829 449.363C317.829 447.608 319.255 446.185 321.015 446.185Z" fill="#99C36B"/>
<path d="M321.014 445.819C319.056 445.819 317.462 447.409 317.462 449.363C317.462 451.318 319.056 452.908 321.014 452.908C322.973 452.908 324.567 451.318 324.567 449.363C324.566 447.409 322.973 445.819 321.014 445.819ZM321.014 452.176C319.46 452.176 318.196 450.914 318.196 449.363C318.196 447.812 319.46 446.551 321.014 446.551C322.568 446.551 323.833 447.812 323.833 449.363C323.832 450.914 322.568 452.176 321.014 452.176Z" fill="#99C36B"/>
<path d="M321.015 500.561C323.105 500.561 324.799 502.251 324.799 504.336C324.799 506.421 323.105 508.112 321.015 508.112C318.926 508.112 317.232 506.421 317.232 504.336C317.232 502.251 318.926 500.561 321.015 500.561Z" fill="#99C36B"/>
<path d="M321.015 500.195C318.726 500.195 316.864 502.053 316.864 504.337C316.864 506.62 318.726 508.478 321.015 508.478C323.303 508.478 325.165 506.62 325.165 504.337C325.165 502.053 323.303 500.195 321.015 500.195ZM321.015 507.745C319.131 507.745 317.598 506.216 317.598 504.337C317.598 502.456 319.131 500.927 321.015 500.927C322.898 500.927 324.431 502.456 324.431 504.337C324.431 506.216 322.898 507.745 321.015 507.745Z" fill="#99C36B"/>
<path d="M306.334 515.342C308.351 515.342 309.985 516.973 309.985 518.985C309.985 520.997 308.351 522.629 306.334 522.629C304.318 522.629 302.683 520.997 302.683 518.985C302.683 516.973 304.318 515.342 306.334 515.342Z" fill="#99C36B"/>
<path d="M306.334 514.976C304.119 514.976 302.316 516.774 302.316 518.985C302.316 521.196 304.119 522.994 306.334 522.994C308.55 522.994 310.353 521.195 310.353 518.985C310.353 516.774 308.55 514.976 306.334 514.976ZM306.334 522.262C304.524 522.262 303.05 520.792 303.05 518.985C303.05 517.178 304.524 515.708 306.334 515.708C308.145 515.708 309.619 517.178 309.619 518.985C309.619 520.792 308.145 522.262 306.334 522.262Z" fill="#99C36B"/>
<path d="M244.349 515.557C246.247 515.557 247.785 517.092 247.785 518.985C247.785 520.878 246.247 522.413 244.349 522.413C242.452 522.413 240.914 520.878 240.914 518.985C240.914 517.092 242.452 515.557 244.349 515.557Z" fill="#99C36B"/>
<path d="M244.349 515.191C242.252 515.191 240.547 516.893 240.547 518.985C240.547 521.077 242.253 522.78 244.349 522.78C246.446 522.78 248.151 521.077 248.151 518.985C248.151 516.893 246.446 515.191 244.349 515.191ZM244.349 522.047C242.657 522.047 241.281 520.674 241.281 518.985C241.281 517.297 242.657 515.924 244.349 515.924C246.041 515.924 247.417 517.297 247.417 518.985C247.417 520.674 246.041 522.047 244.349 522.047Z" fill="#99C36B"/>
<path d="M235.157 533.628C235.157 530.837 232.889 528.575 230.093 528.575C227.296 528.575 225.028 530.837 225.028 533.628C225.028 536.419 227.296 538.681 230.093 538.681C232.889 538.681 235.157 536.419 235.157 533.628Z" fill="#99C36B"/>
<path d="M230.092 528.209C227.098 528.209 224.661 530.64 224.661 533.628C224.661 536.616 227.098 539.048 230.092 539.048C233.087 539.048 235.523 536.617 235.523 533.628C235.523 530.64 233.087 528.209 230.092 528.209ZM230.092 538.315C227.502 538.315 225.395 536.212 225.395 533.628C225.395 531.044 227.502 528.942 230.092 528.942C232.682 528.942 234.789 531.044 234.789 533.628C234.789 536.212 232.682 538.315 230.092 538.315Z" fill="#99C36B"/>
<path d="M520.669 387.023C522.72 387.023 524.383 388.682 524.383 390.728C524.383 392.775 522.72 394.434 520.669 394.434C518.618 394.434 516.956 392.775 516.956 390.728C516.956 388.682 518.618 387.023 520.669 387.023Z" fill="#99C36B"/>
<path d="M520.67 386.656C518.419 386.656 516.589 388.483 516.589 390.728C516.589 392.973 518.419 394.8 520.67 394.8C522.92 394.8 524.75 392.973 524.75 390.728C524.75 388.483 522.92 386.656 520.67 386.656ZM520.67 394.067C518.825 394.067 517.323 392.569 517.323 390.728C517.323 388.887 518.825 387.389 520.67 387.389C522.515 387.389 524.016 388.887 524.016 390.728C524.016 392.569 522.515 394.067 520.67 394.067Z" fill="#99C36B"/>
<path d="M396.681 390.728C396.681 388.761 395.083 387.167 393.112 387.167C391.141 387.167 389.543 388.762 389.543 390.728C389.543 392.694 391.14 394.289 393.112 394.289C395.083 394.289 396.681 392.695 396.681 390.728Z" fill="#99C36B"/>
<path d="M393.112 386.8C390.942 386.8 389.176 388.562 389.176 390.727C389.176 392.893 390.942 394.654 393.112 394.654C395.282 394.654 397.048 392.893 397.048 390.727C397.048 388.562 395.282 386.8 393.112 386.8ZM393.112 393.922C391.346 393.922 389.91 392.489 389.91 390.728C389.91 388.966 391.346 387.533 393.112 387.533C394.878 387.533 396.314 388.966 396.314 390.728C396.314 392.489 394.877 393.922 393.112 393.922Z" fill="#99C36B"/>
<path d="M378.432 401.476C380.591 401.476 382.341 403.222 382.341 405.377C382.341 407.531 380.591 409.278 378.432 409.278C376.273 409.278 374.522 407.531 374.522 405.377C374.522 403.222 376.273 401.476 378.432 401.476Z" fill="#99C36B"/>
<path d="M378.431 401.109C376.073 401.109 374.155 403.024 374.155 405.377C374.155 407.729 376.074 409.644 378.431 409.644C380.789 409.644 382.708 407.729 382.708 405.377C382.708 403.024 380.79 401.109 378.431 401.109ZM378.431 408.911C376.478 408.911 374.889 407.326 374.889 405.377C374.889 403.427 376.478 401.842 378.431 401.842C380.385 401.842 381.974 403.427 381.974 405.377C381.974 407.326 380.385 408.911 378.431 408.911Z" fill="#99C36B"/>
<path d="M525.865 278.096C525.865 275.234 523.539 272.913 520.67 272.913C517.801 272.913 515.475 275.234 515.475 278.096C515.475 280.959 517.801 283.28 520.67 283.28C523.539 283.279 525.865 280.959 525.865 278.096Z" fill="#99C36B"/>
<path d="M520.67 272.546C517.604 272.546 515.109 275.036 515.109 278.095C515.109 281.155 517.604 283.645 520.67 283.645C523.737 283.645 526.231 281.155 526.231 278.095C526.232 275.036 523.737 272.546 520.67 272.546ZM520.67 282.913C518.008 282.913 515.843 280.752 515.843 278.095C515.843 275.439 518.008 273.278 520.67 273.278C523.332 273.278 525.497 275.439 525.497 278.095C525.497 280.752 523.332 282.913 520.67 282.913Z" fill="#99C36B"/>
<path d="M457.459 278.096C457.459 276.03 455.781 274.355 453.71 274.355C451.64 274.355 449.962 276.03 449.962 278.096C449.962 280.162 451.64 281.837 453.71 281.837C455.781 281.837 457.459 280.162 457.459 278.096Z" fill="#99C36B"/>
<path d="M453.71 273.989C451.441 273.989 449.594 275.831 449.594 278.096C449.594 280.36 451.441 282.203 453.71 282.203C455.98 282.203 457.827 280.36 457.827 278.096C457.827 275.831 455.98 273.989 453.71 273.989ZM453.71 281.47C451.845 281.47 450.328 279.957 450.328 278.096C450.328 276.235 451.845 274.721 453.71 274.721C455.576 274.721 457.092 276.235 457.092 278.096C457.092 279.957 455.576 281.47 453.71 281.47Z" fill="#99C36B"/>
<path d="M439.029 258.748C441.63 258.748 443.739 260.852 443.739 263.447C443.739 266.043 441.63 268.147 439.029 268.147C436.428 268.147 434.32 266.043 434.32 263.447C434.32 260.852 436.428 258.748 439.029 258.748Z" fill="#99C36B"/>
<path d="M439.03 258.382C436.23 258.382 433.953 260.655 433.953 263.448C433.953 266.241 436.23 268.513 439.03 268.513C441.829 268.513 444.106 266.241 444.106 263.448C444.106 260.654 441.829 258.382 439.03 258.382ZM439.03 267.78C436.635 267.78 434.687 265.836 434.687 263.447C434.687 261.058 436.635 259.114 439.03 259.114C441.424 259.114 443.372 261.058 443.372 263.447C443.372 265.836 441.424 267.78 439.03 267.78Z" fill="#99C36B"/>
<path d="M549.633 331.482C549.633 329.904 548.35 328.624 546.769 328.624C545.187 328.624 543.905 329.904 543.905 331.482C543.905 333.061 545.187 334.34 546.769 334.34C548.35 334.34 549.633 333.061 549.633 331.482Z" fill="#99C36B"/>
<path d="M546.768 328.258C544.987 328.258 543.538 329.705 543.538 331.482C543.538 333.26 544.987 334.706 546.768 334.706C548.551 334.706 550 333.26 550 331.482C550 329.705 548.55 328.258 546.768 328.258ZM546.768 333.974C545.391 333.974 544.272 332.856 544.272 331.482C544.272 330.108 545.391 328.991 546.768 328.991C548.145 328.991 549.266 330.109 549.266 331.482C549.266 332.856 548.145 333.974 546.768 333.974Z" fill="#99C36B"/>
<path d="M414.977 15.1447C413.06 15.1447 411.5 16.7013 411.5 18.6151C411.5 20.5284 413.06 22.0851 414.977 22.0851C416.895 22.0851 418.455 20.5284 418.455 18.6151C418.455 16.7013 416.895 15.1447 414.977 15.1447ZM414.977 21.2969C413.495 21.2969 412.29 20.0937 412.29 18.6151C412.29 17.136 413.495 15.9333 414.977 15.9333C416.459 15.9333 417.665 17.1364 417.665 18.6151C417.665 20.0937 416.459 21.2969 414.977 21.2969Z" fill="#99C36B"/>
<path d="M414.977 21.2969C413.495 21.2969 412.29 20.0937 412.29 18.6151C412.29 17.136 413.495 15.9333 414.977 15.9333C416.459 15.9333 417.665 17.1364 417.665 18.6151C417.665 20.0937 416.459 21.2969 414.977 21.2969Z" fill="#99C36B"/>
<path d="M439.319 34.8093C437.403 34.8093 435.842 36.3659 435.842 38.2796C435.842 40.193 437.402 41.7497 439.319 41.7497C441.238 41.7497 442.797 40.193 442.797 38.2796C442.797 36.3659 441.237 34.8093 439.319 34.8093ZM439.319 40.9615C437.837 40.9615 436.632 39.7583 436.632 38.2796C436.632 36.8006 437.837 35.5978 439.319 35.5978C440.801 35.5978 442.007 36.801 442.007 38.2796C442.007 39.7583 440.801 40.9615 439.319 40.9615Z" fill="#99C36B"/>
<path d="M439.319 40.9615C437.837 40.9615 436.632 39.7583 436.632 38.2796C436.632 36.8006 437.837 35.5978 439.319 35.5978C440.801 35.5978 442.007 36.801 442.007 38.2796C442.007 39.7583 440.801 40.9615 439.319 40.9615Z" fill="#99C36B"/>
<path d="M372.088 2.42058C370.172 2.42058 368.611 3.9772 368.611 5.89094C368.611 7.80428 370.171 9.36101 372.088 9.36101C374.007 9.36101 375.566 7.80428 375.566 5.89094C375.566 3.9772 374.006 2.42058 372.088 2.42058ZM372.088 8.57281C370.606 8.57281 369.401 7.36959 369.401 5.89094C369.401 4.41189 370.606 3.20913 372.088 3.20913C373.57 3.20913 374.776 4.41228 374.776 5.89094C374.776 7.36959 373.57 8.57281 372.088 8.57281Z" fill="#99C36B"/>
<path d="M372.088 8.57281C370.606 8.57281 369.401 7.36959 369.401 5.89094C369.401 4.41189 370.606 3.20913 372.088 3.20913C373.57 3.20913 374.776 4.41228 374.776 5.89094C374.776 7.36959 373.57 8.57281 372.088 8.57281Z" fill="#99C36B"/>
<path d="M488.373 328.123C490.233 328.123 491.74 329.627 491.74 331.483C491.74 333.338 490.233 334.842 488.373 334.842C486.513 334.842 485.006 333.338 485.006 331.483C485.006 329.627 486.513 328.123 488.373 328.123Z" fill="#99C36B"/>
<path d="M488.373 327.756C486.314 327.756 484.638 329.428 484.638 331.482C484.638 333.537 486.314 335.208 488.373 335.208C490.432 335.208 492.107 333.537 492.107 331.482C492.107 329.427 490.432 327.756 488.373 327.756ZM488.373 334.475C486.719 334.475 485.372 333.132 485.372 331.482C485.372 329.831 486.719 328.488 488.373 328.488C490.028 328.488 491.373 329.831 491.373 331.482C491.373 333.132 490.028 334.475 488.373 334.475Z" fill="#99C36B"/>
<path d="M478.05 316.833C478.05 314.432 476.099 312.485 473.692 312.485C471.285 312.485 469.334 314.432 469.334 316.833C469.334 319.235 471.285 321.182 473.692 321.182C476.099 321.182 478.05 319.235 478.05 316.833Z" fill="#99C36B"/>
<path d="M473.692 312.119C471.086 312.119 468.966 314.234 468.966 316.833C468.966 319.433 471.086 321.548 473.692 321.548C476.297 321.548 478.416 319.433 478.416 316.833C478.417 314.234 476.297 312.119 473.692 312.119ZM473.692 320.815C471.491 320.815 469.7 319.029 469.7 316.833C469.7 314.638 471.491 312.851 473.692 312.851C475.892 312.851 477.682 314.638 477.682 316.833C477.683 319.029 475.893 320.815 473.692 320.815Z" fill="#99C36B"/>
<path d="M478.401 234.15C478.401 231.555 476.292 229.451 473.692 229.451C471.091 229.451 468.983 231.555 468.983 234.15C468.983 236.745 471.091 238.849 473.692 238.849C476.292 238.849 478.401 236.745 478.401 234.15Z" fill="#99C36B"/>
<path d="M473.692 229.085C470.893 229.085 468.615 231.357 468.615 234.151C468.615 236.944 470.893 239.216 473.692 239.216C476.49 239.216 478.768 236.944 478.768 234.151C478.768 231.357 476.49 229.085 473.692 229.085ZM473.692 238.483C471.298 238.483 469.349 236.539 469.349 234.15C469.349 231.761 471.298 229.817 473.692 229.817C476.086 229.817 478.034 231.761 478.034 234.15C478.034 236.539 476.086 238.483 473.692 238.483Z" fill="#99C36B"/>
<path d="M459.011 215.308C461.332 215.308 463.214 217.185 463.214 219.501C463.214 221.817 461.332 223.695 459.011 223.695C456.69 223.695 454.809 221.817 454.809 219.501C454.809 217.185 456.69 215.308 459.011 215.308Z" fill="#99C36B"/>
<path d="M459.011 214.941C456.492 214.941 454.442 216.987 454.442 219.501C454.442 222.015 456.492 224.06 459.011 224.06C461.531 224.06 463.581 222.015 463.581 219.501C463.581 216.987 461.531 214.941 459.011 214.941ZM459.011 223.329C456.896 223.329 455.176 221.612 455.176 219.501C455.176 217.39 456.896 215.674 459.011 215.674C461.127 215.674 462.847 217.39 462.847 219.501C462.847 221.612 461.127 223.329 459.011 223.329Z" fill="#99C36B"/>
<path d="M419.211 216.741C420.739 216.741 421.978 217.977 421.978 219.501C421.978 221.026 420.739 222.262 419.211 222.262C417.683 222.262 416.444 221.026 416.444 219.501C416.444 217.977 417.683 216.741 419.211 216.741Z" fill="#99C36B"/>
<path d="M419.21 216.374C417.482 216.374 416.076 217.777 416.076 219.501C416.076 221.226 417.482 222.628 419.21 222.628C420.938 222.628 422.344 221.226 422.344 219.501C422.344 217.777 420.938 216.374 419.21 216.374ZM419.21 221.896C417.887 221.896 416.81 220.822 416.81 219.501C416.81 218.181 417.887 217.106 419.21 217.106C420.533 217.106 421.61 218.181 421.61 219.501C421.61 220.821 420.534 221.896 419.21 221.896Z" fill="#99C36B"/>
<path d="M408.107 204.853C408.107 202.881 406.506 201.283 404.53 201.283C402.554 201.283 400.952 202.881 400.952 204.853C400.952 206.824 402.554 208.422 404.53 208.422C406.506 208.422 408.107 206.824 408.107 204.853Z" fill="#99C36B"/>
<path d="M404.53 200.916C402.355 200.916 400.586 202.682 400.586 204.852C400.586 207.022 402.355 208.788 404.53 208.788C406.706 208.788 408.475 207.022 408.475 204.852C408.475 202.682 406.706 200.916 404.53 200.916ZM404.53 208.056C402.76 208.056 401.32 206.619 401.32 204.852C401.32 203.086 402.76 201.649 404.53 201.649C406.3 201.649 407.741 203.086 407.741 204.852C407.741 206.619 406.3 208.056 404.53 208.056Z" fill="#99C36B"/>
<path d="M408.354 157.326C408.354 155.219 406.642 153.511 404.53 153.511C402.419 153.511 400.707 155.219 400.707 157.326C400.707 159.433 402.419 161.141 404.53 161.141C406.642 161.141 408.354 159.433 408.354 157.326Z" fill="#99C36B"/>
<path d="M404.53 153.145C402.22 153.145 400.34 155.021 400.34 157.326C400.34 159.631 402.22 161.507 404.53 161.507C406.841 161.507 408.721 159.631 408.721 157.326C408.721 155.021 406.841 153.145 404.53 153.145ZM404.53 160.775C402.624 160.775 401.074 159.228 401.074 157.326C401.074 155.424 402.624 153.877 404.53 153.877C406.436 153.877 407.987 155.424 407.987 157.326C407.987 159.228 406.437 160.775 404.53 160.775Z" fill="#99C36B"/>
<path d="M419.211 139.579C420.926 139.579 422.316 140.966 422.316 142.678C422.316 144.389 420.926 145.776 419.211 145.776C417.495 145.776 416.105 144.389 416.105 142.678C416.105 140.966 417.495 139.579 419.211 139.579Z" fill="#99C36B"/>
<path d="M419.211 139.212C417.296 139.212 415.738 140.766 415.738 142.677C415.738 144.587 417.296 146.142 419.211 146.142C421.126 146.142 422.684 144.588 422.684 142.677C422.684 140.766 421.126 139.212 419.211 139.212ZM419.211 145.409C417.701 145.409 416.472 144.184 416.472 142.677C416.472 141.17 417.701 139.944 419.211 139.944C420.721 139.944 421.95 141.17 421.95 142.677C421.95 144.184 420.721 145.409 419.211 145.409Z" fill="#99C36B"/>
<path d="M453.791 139.479C455.562 139.479 456.997 140.911 456.997 142.677C456.997 144.444 455.562 145.876 453.791 145.876C452.021 145.876 450.586 144.444 450.586 142.677C450.586 140.911 452.021 139.479 453.791 139.479Z" fill="#99C36B"/>
<path d="M453.792 139.112C451.822 139.112 450.219 140.712 450.219 142.677C450.219 144.643 451.822 146.242 453.792 146.242C455.761 146.242 457.364 144.643 457.364 142.677C457.364 140.712 455.761 139.112 453.792 139.112ZM453.792 145.51C452.226 145.51 450.953 144.239 450.953 142.677C450.953 141.115 452.226 139.845 453.792 139.845C455.357 139.845 456.63 141.116 456.63 142.677C456.63 144.239 455.357 145.51 453.792 145.51Z" fill="#99C36B"/>
<path d="M473.163 128.028C473.163 125.443 471.063 123.347 468.472 123.347C465.881 123.347 463.781 125.443 463.781 128.028C463.781 130.613 465.881 132.708 468.472 132.708C471.063 132.708 473.163 130.613 473.163 128.028Z" fill="#99C36B"/>
<path d="M473.496 4.68054C473.496 2.09573 471.396 -2.33116e-06 468.805 -2.33116e-06C466.214 -2.33116e-06 464.114 2.09573 464.114 4.68054C464.114 7.26535 466.214 9.36101 468.805 9.36101C471.396 9.36101 473.496 7.26535 473.496 4.68054Z" fill="#99C36B"/>
<path d="M321.646 9.3075C321.646 6.72268 319.546 4.62695 316.956 4.62695C314.365 4.62695 312.265 6.72268 312.265 9.3075C312.265 11.8923 314.365 13.988 316.956 13.988C319.546 13.988 321.646 11.8923 321.646 9.3075Z" fill="#99C36B"/>
<path d="M468.472 122.981C465.683 122.981 463.414 125.245 463.414 128.028C463.414 130.812 465.683 133.075 468.472 133.075C471.261 133.075 473.529 130.812 473.529 128.028C473.529 125.246 471.26 122.981 468.472 122.981ZM468.472 132.343C466.088 132.343 464.148 130.408 464.148 128.028C464.148 125.649 466.088 123.714 468.472 123.714C470.856 123.714 472.795 125.65 472.795 128.028C472.795 130.407 470.856 132.343 468.472 132.343Z" fill="#99C36B"/>
</g>
</svg>
