<svg width="134" height="177" viewBox="0 0 134 177" fill="none" xmlns="http://www.w3.org/2000/svg">
<path d="M19.7498 58.1912H-61.5995C-67.0783 58.1912 -71.5358 53.7343 -71.5358 48.2558V19.9022C-71.5358 13.8471 -76.4623 8.92099 -82.5179 8.92099H-129.468C-134.947 8.92099 -139.404 4.46405 -139.404 -1.0144V-66.553C-139.404 -72.608 -144.331 -77.5342 -150.387 -77.5342H-258V-76.4884H-150.387C-144.908 -76.4884 -140.45 -72.0314 -140.45 -66.553V-1.01414C-140.45 5.04094 -135.524 9.96707 -129.468 9.96707H-82.5179C-77.0391 9.96707 -72.5817 14.424 -72.5817 19.9025V48.2561C-72.5817 54.3112 -67.6552 59.2373 -61.5995 59.2373H19.7498C25.2285 59.2373 29.686 63.6943 29.686 69.1727V81.1997C29.686 86.6782 25.2285 91.1351 19.7498 91.1351H-258V92.1807H19.7498C25.8054 92.1807 30.7319 87.2545 30.7319 81.1995V69.1724C30.7319 63.1174 25.8054 58.1912 19.7498 58.1912Z" fill="#656565"/>
<path d="M-186.936 28.269V122.626C-186.936 128.681 -182.009 133.607 -175.953 133.607H-54.6266C-49.1479 133.607 -44.6904 138.064 -44.6904 143.543V192.348C-44.6904 198.403 -39.7639 203.329 -33.7083 203.329H-3.49269C1.98611 203.329 6.44354 207.786 6.44354 213.265V314.361H7.48947V213.264C7.48947 207.21 2.56293 202.283 -3.49269 202.283H-33.7083C-39.187 202.283 -43.6445 197.826 -43.6445 192.348V143.543C-43.6445 137.488 -48.571 132.561 -54.6266 132.561H-175.953C-181.432 132.561 -185.89 128.104 -185.89 122.626V28.269C-185.89 22.214 -190.816 17.2878 -196.872 17.2878H-258V18.3337H-196.872C-191.393 18.3337 -186.936 22.7906 -186.936 28.269Z" fill="#656565"/>
<path d="M29.686 -130V-19.6068C29.686 -14.1284 25.2285 -9.67144 19.7498 -9.67144H-37.4273C-42.9061 -9.67144 -47.3635 -14.1284 -47.3635 -19.6068V-22.8606C-47.3635 -28.9157 -52.2901 -33.8418 -58.3457 -33.8418H-79.2641C-85.3197 -33.8418 -90.2462 -28.9157 -90.2462 -22.8606V25.0151C-90.2462 31.0702 -85.3197 35.9963 -79.2641 35.9963H-44.3999C-38.9211 35.9963 -34.4637 40.4533 -34.4637 45.9317V104.963C-34.4637 111.018 -29.5371 115.944 -23.4815 115.944H10.4526C15.9314 115.944 20.3888 120.401 20.3888 125.879V167.713C20.3888 173.191 15.9314 177.648 10.4526 177.648H-258V178.694H10.4528C16.5085 178.694 21.435 173.767 21.435 167.713V125.879C21.435 119.825 16.5085 114.898 10.4528 114.898H-23.4815C-28.9603 114.898 -33.4178 110.441 -33.4178 104.963V45.9317C-33.4178 39.8767 -38.3443 34.9505 -44.3999 34.9505H-79.2641C-84.7429 34.9505 -89.2003 30.4936 -89.2003 25.0151V-22.8606C-89.2003 -28.3391 -84.7429 -32.796 -79.2641 -32.796H-58.3457C-52.8669 -32.796 -48.4094 -28.3391 -48.4094 -22.8606V-19.6068C-48.4094 -13.5518 -43.4829 -8.62562 -37.4273 -8.62562H19.7498C25.8054 -8.62562 30.7319 -13.5518 30.7319 -19.6068V-130H29.686Z" fill="#656565"/>
<path d="M-28.7691 -3.13515V-42.383C-28.7691 -48.438 -33.6956 -53.3642 -39.7513 -53.3642H-83.9123C-86.5522 -53.3642 -89.0107 -54.3985 -90.8358 -56.2763C-92.6604 -58.1546 -93.6235 -60.6418 -93.5474 -63.28C-93.5411 -63.4953 -92.9222 -85.0916 -92.6521 -106.75C-92.5315 -116.404 -92.5041 -124.006 -92.5396 -130H-93.5811C-93.4749 -111.217 -93.9945 -84.0486 -94.5928 -63.31C-94.6772 -60.3866 -93.6093 -57.63 -91.586 -55.5475C-89.5624 -53.4651 -86.8373 -52.3181 -83.9123 -52.3181H-39.7513C-34.2725 -52.3181 -29.815 -47.8611 -29.815 -42.3827V-3.13488C-29.815 2.9202 -24.8885 7.84633 -18.8329 7.84633H60.8898V6.80051H-18.8329C-24.3119 6.80025 -28.7691 2.34331 -28.7691 -3.13515Z" fill="#656565"/>
<path d="M12.1377 28.2689V-130H11.0918V28.2689C11.0918 34.324 16.0183 39.2501 22.074 39.2501H112.953V38.2043H22.074C16.5952 38.2043 12.1377 33.7471 12.1377 28.2689Z" fill="#656565"/>
<path d="M55.3111 314.361V129.598C55.3111 124.12 59.7685 119.663 65.2473 119.663H112.953V118.617H65.2473C59.1919 118.617 54.2651 123.543 54.2651 129.598V314.361H55.3111Z" fill="#656565"/>
<path d="M89.9428 80.5021C83.8874 80.5021 78.9606 85.4282 78.9606 91.4833V150.515C78.9606 155.993 74.5032 160.45 69.0244 160.45H40.6682C34.6126 160.45 29.686 165.376 29.686 171.431V205.362C29.686 211.417 34.6126 216.344 40.6682 216.344H65.3056C70.7844 216.344 75.2418 220.8 75.2418 226.279V314.361H76.2878V226.279C76.2878 220.224 71.3609 215.298 65.3056 215.298H40.6682C35.1894 215.298 30.732 210.841 30.732 205.363V171.431C30.732 165.953 35.1894 161.496 40.6682 161.496H69.0244C75.0797 161.496 80.0065 156.57 80.0065 150.515V91.4833C80.0065 86.0048 84.464 81.5479 89.9428 81.5479H131.547V80.5021H89.9428Z" fill="#656565"/>
<path d="M23.117 91.658C23.117 93.5175 21.6096 95.0249 19.7499 95.0249C17.8903 95.0249 16.3828 93.5175 16.3828 91.658C16.3828 89.7984 17.8903 88.291 19.7499 88.291C21.6096 88.291 23.117 89.7984 23.117 91.658Z" fill="#656565"/>
<path d="M19.7499 95.286C17.7493 95.286 16.1213 93.6586 16.1213 91.6576C16.1213 89.6572 17.7493 88.0293 19.7499 88.0293C21.7505 88.0293 23.3785 89.657 23.3785 91.6576C23.3785 93.6586 21.7508 95.286 19.7499 95.286ZM19.7499 88.5523C18.0375 88.5523 16.6443 89.9456 16.6443 91.6576C16.6443 93.3697 18.0375 94.7629 19.7499 94.7629C21.4623 94.7629 22.8555 93.3697 22.8555 91.6576C22.8555 89.9456 21.4623 88.5523 19.7499 88.5523Z" fill="#656565"/>
<path d="M32.4318 81.1993C32.4318 82.4268 31.4366 83.4219 30.209 83.4219C28.9813 83.4219 27.9861 82.4268 27.9861 81.1993C27.9861 79.9718 28.9813 78.9767 30.209 78.9767C31.4366 78.9767 32.4318 79.9718 32.4318 81.1993Z" fill="#656565"/>
<path d="M30.2087 83.6835C28.8388 83.6835 27.7244 82.5692 27.7244 81.1993C27.7244 79.8294 28.8388 78.7153 30.2087 78.7153C31.5786 78.7153 32.693 79.8296 32.693 81.1993C32.693 82.5692 31.5786 83.6835 30.2087 83.6835ZM30.2087 79.2381C29.1272 79.2381 28.2473 80.1179 28.2473 81.1993C28.2473 82.2807 29.1272 83.1605 30.2087 83.1605C31.2902 83.1605 32.1701 82.2807 32.1701 81.1993C32.1701 80.1179 31.2902 79.2381 30.2087 79.2381Z" fill="#656565"/>
<path d="M33.5222 69.1725C33.5222 71.0022 32.0388 72.4853 30.209 72.4853C28.3791 72.4853 26.8958 71.0022 26.8958 69.1725C26.8958 67.3427 28.3791 65.8596 30.209 65.8596C32.0388 65.8596 33.5222 67.3427 33.5222 69.1725Z" fill="#656565"/>
<path d="M30.209 72.7469C28.2379 72.7469 26.6343 71.1435 26.6343 69.1724C26.6343 67.2015 28.2379 65.5981 30.209 65.5981C32.18 65.5981 33.7836 67.2015 33.7836 69.1724C33.7836 71.1433 32.18 72.7469 30.209 72.7469ZM30.209 66.1209C28.5261 66.1209 27.1572 67.4898 27.1572 69.1724C27.1572 70.8549 28.5261 72.2238 30.209 72.2238C31.8919 72.2238 33.2607 70.8549 33.2607 69.1724C33.2607 67.4898 31.8919 66.1209 30.209 66.1209Z" fill="#656565"/>
<path d="M23.0083 58.7141C23.0083 60.5135 21.5496 61.9724 19.7498 61.9724C17.95 61.9724 16.4912 60.5135 16.4912 58.7141C16.4912 56.9147 17.95 55.4559 19.7498 55.4559C21.5496 55.4557 23.0083 56.9145 23.0083 58.7141Z" fill="#656565"/>
<path d="M19.7498 62.2339C17.8088 62.2339 16.2297 60.6548 16.2297 58.7143C16.2297 56.7737 17.8088 55.1947 19.7498 55.1947C21.6908 55.1947 23.2698 56.7737 23.2698 58.7143C23.2698 60.6548 21.6908 62.2339 19.7498 62.2339ZM19.7498 55.7175C18.0972 55.7175 16.7527 57.0618 16.7527 58.7143C16.7527 60.3668 18.0972 61.7111 19.7498 61.7111C21.4023 61.7111 22.7468 60.3668 22.7468 58.7143C22.7468 57.0618 21.4023 55.7175 19.7498 55.7175Z" fill="#656565"/>
<path d="M10.4527 180.37C11.667 180.37 12.6515 179.385 12.6515 178.171C12.6515 176.957 11.667 175.972 10.4527 175.972C9.23833 175.972 8.25391 176.957 8.25391 178.171C8.25391 179.385 9.23833 180.37 10.4527 180.37Z" fill="#656565"/>
<path d="M10.4529 180.631C9.09612 180.631 7.99268 179.528 7.99268 178.171C7.99268 176.814 9.09638 175.711 10.4529 175.711C11.8095 175.711 12.9132 176.814 12.9132 178.171C12.9132 179.528 11.8095 180.631 10.4529 180.631ZM10.4529 176.234C9.38479 176.234 8.51564 177.103 8.51564 178.171C8.51564 179.239 9.38479 180.108 10.4529 180.108C11.5211 180.108 12.3903 179.239 12.3903 178.171C12.3903 177.103 11.5208 176.234 10.4529 176.234Z" fill="#656565"/>
<path d="M24.1057 167.712C24.1057 169.476 22.6757 170.906 20.9117 170.906C19.1478 170.906 17.7178 169.476 17.7178 167.712C17.7178 165.949 19.1478 164.519 20.9117 164.519C22.6759 164.519 24.1057 165.949 24.1057 167.712Z" fill="#656565"/>
<path d="M20.912 171.168C19.0066 171.168 17.4565 169.618 17.4565 167.713C17.4565 165.808 19.0066 164.258 20.912 164.258C22.8174 164.258 24.3674 165.808 24.3674 167.713C24.3672 169.618 22.8174 171.168 20.912 171.168ZM20.912 164.781C19.295 164.781 17.9795 166.096 17.9795 167.713C17.9795 169.33 19.295 170.645 20.912 170.645C22.5287 170.645 23.8445 169.33 23.8445 167.713C23.8445 166.096 22.5287 164.781 20.912 164.781Z" fill="#656565"/>
<path d="M23.3787 125.88C23.3787 127.242 22.2742 128.347 20.9117 128.347C19.5491 128.347 18.4446 127.242 18.4446 125.88C18.4446 124.518 19.5491 123.413 20.9117 123.413C22.2742 123.413 23.3787 124.518 23.3787 125.88Z" fill="#656565"/>
<path d="M20.9121 128.608C19.4076 128.608 18.1836 127.384 18.1836 125.88C18.1836 124.376 19.4076 123.152 20.9121 123.152C22.4167 123.152 23.6404 124.376 23.6404 125.88C23.6404 127.384 22.4164 128.608 20.9121 128.608ZM20.9121 123.675C19.6962 123.675 18.7066 124.664 18.7066 125.88C18.7066 127.096 19.696 128.085 20.9121 128.085C22.128 128.085 23.1174 127.096 23.1174 125.88C23.1174 124.664 22.128 123.675 20.9121 123.675Z" fill="#656565"/>
<path d="M10.4529 118.562C12.1877 118.562 13.5941 117.156 13.5941 115.421C13.5941 113.686 12.1877 112.28 10.4529 112.28C8.71811 112.28 7.31177 113.686 7.31177 115.421C7.31177 117.156 8.71811 118.562 10.4529 118.562Z" fill="#656565"/>
<path d="M10.4529 118.824C8.57656 118.824 7.05005 117.297 7.05005 115.421C7.05005 113.545 8.57656 112.019 10.4529 112.019C12.3293 112.019 13.8559 113.545 13.8559 115.421C13.8559 117.297 12.3291 118.824 10.4529 118.824ZM10.4529 112.541C8.86498 112.541 7.57301 113.833 7.57301 115.421C7.57301 117.009 8.86471 118.301 10.4529 118.301C12.0409 118.301 13.3329 117.009 13.3329 115.421C13.3329 113.833 12.0409 112.541 10.4529 112.541Z" fill="#656565"/>
<path d="M63.7523 7.32342C63.7523 8.9043 62.4705 10.1862 60.8893 10.1862C59.3082 10.1862 58.0264 8.90456 58.0264 7.32342C58.0264 5.74227 59.3082 4.46069 60.8893 4.46069C62.4705 4.46069 63.7523 5.74227 63.7523 7.32342Z" fill="#656565"/>
<path d="M60.8893 10.4474C59.1667 10.4474 57.7649 9.04587 57.7649 7.32332C57.7649 5.60077 59.1667 4.19946 60.8893 4.19946C62.6119 4.19946 64.0132 5.60103 64.0132 7.32332C64.0132 9.04587 62.6119 10.4474 60.8893 10.4474ZM60.8893 4.72224C59.4548 4.72224 58.2879 5.88908 58.2879 7.32332C58.2879 8.75782 59.4548 9.92467 60.8893 9.92467C62.3233 9.92467 63.4903 8.75782 63.4903 7.32332C63.4903 5.88908 62.3235 4.72224 60.8893 4.72224Z" fill="#656565"/>
<path d="M112.953 41.3726C114.414 41.3726 115.598 40.1881 115.598 38.7271C115.598 37.266 114.414 36.0815 112.953 36.0815C111.492 36.0815 110.307 37.266 110.307 38.7271C110.307 40.1881 111.492 41.3726 112.953 41.3726Z" fill="#656565"/>
<path d="M112.953 41.6341C111.35 41.6341 110.045 40.3301 110.045 38.7272C110.045 37.1244 111.35 35.8203 112.953 35.8203C114.556 35.8203 115.86 37.1244 115.86 38.7272C115.86 40.3303 114.556 41.6341 112.953 41.6341ZM112.953 36.3434C111.638 36.3434 110.568 37.413 110.568 38.7272C110.568 40.0418 111.638 41.1113 112.953 41.1113C114.267 41.1113 115.337 40.0418 115.337 38.7272C115.337 37.413 114.268 36.3434 112.953 36.3434Z" fill="#656565"/>
<path d="M24.6165 38.7271C24.6165 40.1313 23.478 41.2694 22.0739 41.2694C20.6697 41.2694 19.5312 40.131 19.5312 38.7271C19.5312 37.3232 20.6695 36.1846 22.0739 36.1846C23.478 36.1848 24.6165 37.3229 24.6165 38.7271Z" fill="#656565"/>
<path d="M22.0741 41.5312C20.528 41.5312 19.27 40.2733 19.27 38.7275C19.27 37.1816 20.528 35.9238 22.0741 35.9238C23.6203 35.9238 24.8782 37.1816 24.8782 38.7275C24.8782 40.2733 23.6203 41.5312 22.0741 41.5312ZM22.0741 36.4464C20.8162 36.4464 19.793 37.4694 19.793 38.7272C19.793 39.985 20.8162 41.0081 22.0741 41.0081C23.3321 41.0081 24.3553 39.985 24.3553 38.7272C24.3553 37.4694 23.3318 36.4464 22.0741 36.4464Z" fill="#656565"/>
<path d="M11.6149 31.0541C13.1531 31.0541 14.4001 29.8072 14.4001 28.269C14.4001 26.7308 13.1531 25.4839 11.6149 25.4839C10.0766 25.4839 8.82959 26.7308 8.82959 28.269C8.82959 29.8072 10.0766 31.0541 11.6149 31.0541Z" fill="#656565"/>
<path d="M11.6149 31.3154C9.93486 31.3154 8.56812 29.9486 8.56812 28.2689C8.56812 26.5892 9.93513 25.2224 11.6149 25.2224C13.2946 25.2224 14.6616 26.5892 14.6616 28.2689C14.6616 29.9486 13.2949 31.3154 11.6149 31.3154ZM11.6149 25.7452C10.2233 25.7452 9.09108 26.8773 9.09108 28.2689C9.09108 29.6605 10.2233 30.7926 11.6149 30.7926C13.0065 30.7926 14.1387 29.6605 14.1387 28.2689C14.1387 26.8773 13.0065 25.7452 11.6149 25.7452Z" fill="#656565"/>
<path d="M116.654 119.14C116.654 121.184 114.997 122.84 112.953 122.84C110.909 122.84 109.252 121.183 109.252 119.14C109.252 117.096 110.909 115.439 112.953 115.439C114.997 115.439 116.654 117.096 116.654 119.14Z" fill="#656565"/>
<path d="M112.953 123.102C110.768 123.102 108.99 121.325 108.99 119.14C108.99 116.955 110.768 115.178 112.953 115.178C115.138 115.178 116.915 116.956 116.915 119.14C116.915 121.325 115.138 123.102 112.953 123.102ZM112.953 115.701C111.056 115.701 109.513 117.243 109.513 119.14C109.513 121.037 111.056 122.579 112.953 122.579C114.849 122.579 116.392 121.037 116.392 119.14C116.392 117.243 114.849 115.701 112.953 115.701Z" fill="#656565"/>
<path d="M67.9179 119.14C67.9179 120.615 66.7222 121.811 65.2472 121.811C63.7722 121.811 62.5764 120.615 62.5764 119.14C62.5764 117.665 63.7722 116.469 65.2472 116.469C66.7222 116.469 67.9179 117.665 67.9179 119.14Z" fill="#656565"/>
<path d="M65.2472 122.072C63.6302 122.072 62.3147 120.757 62.3147 119.14C62.3147 117.523 63.6302 116.208 65.2472 116.208C66.8642 116.208 68.1797 117.523 68.1797 119.14C68.1797 120.757 66.8642 122.072 65.2472 122.072ZM65.2472 116.731C63.9184 116.731 62.8377 117.811 62.8377 119.14C62.8377 120.469 63.9184 121.549 65.2472 121.549C66.5761 121.549 67.6567 120.469 67.6567 119.14C67.6567 117.811 66.5761 116.731 65.2472 116.731Z" fill="#656565"/>
<path d="M54.7882 132.953C56.6413 132.953 58.1435 131.451 58.1435 129.598C58.1435 127.745 56.6413 126.243 54.7882 126.243C52.9351 126.243 51.4329 127.745 51.4329 129.598C51.4329 131.451 52.9351 132.953 54.7882 132.953Z" fill="#656565"/>
<path d="M54.7882 133.214C52.7939 133.214 51.1714 131.592 51.1714 129.598C51.1714 127.604 52.7939 125.981 54.7882 125.981C56.7825 125.981 58.405 127.604 58.405 129.598C58.405 131.592 56.7825 133.214 54.7882 133.214ZM54.7882 126.505C53.0823 126.505 51.6943 127.893 51.6943 129.598C51.6943 131.304 53.0823 132.692 54.7882 132.692C56.4938 132.692 57.882 131.304 57.882 129.598C57.882 127.893 56.4941 126.505 54.7882 126.505Z" fill="#656565"/>
<path d="M133.588 81.0254C133.588 82.1522 132.674 83.0658 131.547 83.0658C130.42 83.0658 129.507 82.1522 129.507 81.0254C129.507 79.8985 130.42 78.985 131.547 78.985C132.674 78.9852 133.588 79.8985 133.588 81.0254Z" fill="#656565"/>
<path d="M131.547 83.3271C130.278 83.3271 129.245 82.2946 129.245 81.0253C129.245 79.7562 130.277 78.7238 131.547 78.7238C132.816 78.7238 133.849 79.7562 133.849 81.0253C133.849 82.2946 132.816 83.3271 131.547 83.3271ZM131.547 79.2465C130.566 79.2465 129.768 80.0446 129.768 81.0253C129.768 82.0063 130.566 82.804 131.547 82.804C132.528 82.804 133.326 82.006 133.326 81.0253C133.326 80.0446 132.528 79.2465 131.547 79.2465Z" fill="#656565"/>
<path d="M89.9428 83.4238C91.2678 83.4238 92.3419 82.3498 92.3419 81.025C92.3419 79.7002 91.2678 78.6262 89.9428 78.6262C88.6178 78.6262 87.5437 79.7002 87.5437 81.025C87.5437 82.3498 88.6178 83.4238 89.9428 83.4238Z" fill="#656565"/>
<path d="M89.9428 83.6852C88.4756 83.6852 87.282 82.4917 87.282 81.025C87.282 79.5581 88.4756 78.3649 89.9428 78.3649C91.4095 78.3649 92.6031 79.5581 92.6031 81.025C92.6031 82.4919 91.4097 83.6852 89.9428 83.6852ZM89.9428 78.8879C88.7641 78.8879 87.8049 79.8467 87.8049 81.025C87.8049 82.2036 88.7641 83.1624 89.9428 83.1624C91.1216 83.1624 92.0801 82.2036 92.0801 81.025C92.0801 79.8467 91.1216 78.8879 89.9428 78.8879Z" fill="#656565"/>
<path d="M82.5883 91.4838C82.5883 93.1985 81.1983 94.5886 79.4835 94.5886C77.7687 94.5886 76.3787 93.1985 76.3787 91.4838C76.3787 89.7691 77.7687 88.3793 79.4835 88.3793C81.1983 88.3793 82.5883 89.7691 82.5883 91.4838Z" fill="#656565"/>
<path d="M79.4835 94.8496C77.627 94.8496 76.1169 93.3396 76.1169 91.4837C76.1169 89.6276 77.627 88.1178 79.4835 88.1178C81.3395 88.1178 82.8495 89.6278 82.8495 91.4837C82.8498 93.3396 81.3395 94.8496 79.4835 94.8496ZM79.4835 88.6406C77.9157 88.6406 76.6399 89.9159 76.6399 91.4837C76.6399 93.0513 77.9157 94.3268 79.4835 94.3268C81.0513 94.3268 82.3266 93.0513 82.3266 91.4837C82.3268 89.9159 81.0516 88.6406 79.4835 88.6406Z" fill="#656565"/>
<path d="M82.8385 150.515C82.8385 152.368 81.3363 153.87 79.4834 153.87C77.6303 153.87 76.1284 152.368 76.1284 150.515C76.1284 148.662 77.6306 147.16 79.4834 147.16C81.3363 147.16 82.8385 148.662 82.8385 150.515Z" fill="#656565"/>
<path d="M79.4837 154.131C77.4894 154.131 75.8669 152.509 75.8669 150.514C75.8669 148.52 77.4894 146.898 79.4837 146.898C81.4775 146.898 83.1 148.52 83.1 150.514C83.1003 152.509 81.4775 154.131 79.4837 154.131ZM79.4837 147.421C77.7781 147.421 76.3899 148.809 76.3899 150.515C76.3899 152.22 77.7781 153.608 79.4837 153.608C81.1896 153.608 82.577 152.22 82.577 150.515C82.5773 148.809 81.1896 147.421 79.4837 147.421Z" fill="#656565"/>
<path d="M69.0242 163.967C70.6779 163.967 72.0185 162.626 72.0185 160.973C72.0185 159.319 70.6779 157.979 69.0242 157.979C67.3706 157.979 66.03 159.319 66.03 160.973C66.03 162.626 67.3706 163.967 69.0242 163.967Z" fill="#656565"/>
<path d="M69.0245 164.229C67.2294 164.229 65.7688 162.768 65.7688 160.973C65.7688 159.178 67.2294 157.718 69.0245 157.718C70.8196 157.718 72.2802 159.178 72.2802 160.973C72.2805 162.768 70.8198 164.229 69.0245 164.229ZM69.0245 158.241C67.5173 158.241 66.2918 159.466 66.2918 160.973C66.2918 162.48 67.5173 163.706 69.0245 163.706C70.5317 163.706 71.7572 162.48 71.7572 160.973C71.7575 159.466 70.5317 158.241 69.0245 158.241Z" fill="#656565"/>
<path d="M40.6683 162.944C41.7571 162.944 42.6396 162.062 42.6396 160.973C42.6396 159.884 41.7571 159.002 40.6683 159.002C39.5796 159.002 38.697 159.884 38.697 160.973C38.697 162.062 39.5796 162.944 40.6683 162.944Z" fill="#656565"/>
<path d="M40.6681 163.206C39.437 163.206 38.4353 162.204 38.4353 160.973C38.4353 159.742 39.437 158.74 40.6681 158.74C41.8991 158.74 42.9009 159.742 42.9009 160.973C42.9009 162.204 41.8991 163.206 40.6681 163.206ZM40.6681 159.263C39.7252 159.263 38.9583 160.03 38.9583 160.973C38.9583 161.916 39.7252 162.683 40.6681 162.683C41.6107 162.683 42.3779 161.916 42.3779 160.973C42.3779 160.03 41.611 159.263 40.6681 159.263Z" fill="#656565"/>
<path d="M32.7577 171.431C32.7577 172.839 31.6166 173.98 30.2088 173.98C28.801 173.98 27.6599 172.839 27.6599 171.431C27.6599 170.024 28.801 168.883 30.2088 168.883C31.6166 168.883 32.7577 170.024 32.7577 171.431Z" fill="#656565"/>
<path d="M30.2091 174.242C28.6593 174.242 27.3987 172.981 27.3987 171.432C27.3987 169.882 28.6593 168.621 30.2091 168.621C31.7589 168.621 33.0194 169.882 33.0194 171.432C33.0194 172.981 31.7589 174.242 30.2091 174.242ZM30.2091 169.144C28.948 169.144 27.9216 170.17 27.9216 171.431C27.9216 172.693 28.948 173.718 30.2091 173.718C31.4702 173.718 32.4965 172.692 32.4965 171.431C32.4965 170.17 31.4702 169.144 30.2091 169.144Z" fill="#656565"/>
</svg>
