<svg width="392" height="177" viewBox="0 0 392 177" fill="none" xmlns="http://www.w3.org/2000/svg">
<path d="M114.099 142.604H195.449C200.927 142.604 205.385 138.147 205.385 132.668V104.315C205.385 98.2597 210.311 93.3336 216.367 93.3336H263.317C268.796 93.3336 273.254 88.8766 273.254 83.3982V17.8596C273.254 11.8046 278.18 6.87842 284.236 6.87842H391.849V7.92424H284.236C278.757 7.92424 274.3 12.3812 274.3 17.8596V83.3985C274.3 89.4535 269.373 94.3797 263.317 94.3797H216.367C210.888 94.3797 206.431 98.8366 206.431 104.315V132.669C206.431 138.724 201.504 143.65 195.449 143.65H114.099C108.621 143.65 104.163 148.107 104.163 153.585V165.612C104.163 171.091 108.621 175.548 114.099 175.548H391.849V176.593H114.099C108.044 176.593 103.117 171.667 103.117 165.612V153.585C103.117 147.53 108.044 142.604 114.099 142.604Z" fill="#656565"/>
<path d="M265.641 38.4855H335.834C341.313 38.4855 345.771 34.0285 345.771 28.5501V-45.5874H346.817V28.5501C346.817 34.6051 341.89 39.5313 335.834 39.5313H265.642C260.163 39.5313 255.705 43.9882 255.705 49.4667V297.212C255.705 302.691 260.163 307.148 265.642 307.148H391.849V308.193H265.641C259.586 308.193 254.659 303.267 254.659 297.212V49.4667C254.659 43.4116 259.586 38.4855 265.641 38.4855Z" fill="#656565"/>
<path d="M143.211 -45.5874V230.279C143.211 235.758 147.668 240.215 153.147 240.215H210.324C216.38 240.215 221.306 245.141 221.306 251.196V354.849C221.306 360.327 225.764 364.784 231.242 364.784H338.159C343.637 364.784 348.095 360.327 348.095 354.849V239.111C348.095 233.056 353.021 228.129 359.077 228.129H391.849V229.175H359.077C353.598 229.175 349.141 233.632 349.141 239.111V354.849C349.141 360.904 344.214 365.83 338.159 365.83H231.242C225.187 365.83 220.26 360.904 220.26 354.849V251.196C220.26 245.717 215.803 241.261 210.324 241.261H153.147C147.091 241.261 142.165 236.334 142.165 230.279V-45.5874H143.211Z" fill="#656565"/>
<path d="M320.785 112.682V207.039C320.785 213.094 315.858 218.02 309.802 218.02H188.476C182.997 218.02 178.54 222.477 178.54 227.955V276.761C178.54 282.816 173.613 287.742 167.557 287.742H137.342C131.863 287.742 127.406 292.199 127.406 297.677V398.774H126.36V297.677C126.36 291.622 131.286 286.696 137.342 286.696H167.557C173.036 286.696 177.494 282.239 177.494 276.76V227.955C177.494 221.9 182.42 216.974 188.476 216.974H309.802C315.281 216.974 319.739 212.517 319.739 207.039V112.682C319.739 106.627 324.665 101.7 330.721 101.7H391.849V102.746H330.721C325.242 102.746 320.785 107.203 320.785 112.682Z" fill="#656565"/>
<path d="M329.152 -45.5874V52.7207C329.152 58.1992 333.609 62.6561 339.088 62.6561H391.849V63.7019H339.088C333.033 63.7019 328.106 58.7758 328.106 52.7207V-45.5874H329.152Z" fill="#656565"/>
<path d="M104.163 -45.5874V64.8058C104.163 70.2842 108.621 74.7412 114.099 74.7412H171.276C176.755 74.7412 181.213 70.2842 181.213 64.8058V61.552C181.213 55.4969 186.139 50.5708 192.195 50.5708H213.113C219.169 50.5708 224.095 55.4969 224.095 61.552V109.428C224.095 115.483 219.169 120.409 213.113 120.409H178.249C172.77 120.409 168.313 124.866 168.313 130.344V189.375C168.313 195.43 163.386 200.357 157.331 200.357H123.397C117.918 200.357 113.46 204.814 113.46 210.292V252.125C113.46 257.604 117.918 262.061 123.397 262.061H391.849V263.106H123.396C117.341 263.106 112.414 258.18 112.414 252.125V210.292C112.414 204.237 117.341 199.311 123.396 199.311H157.331C162.809 199.311 167.267 194.854 167.267 189.375V130.344C167.267 124.289 172.193 119.363 178.249 119.363H213.113C218.592 119.363 223.049 114.906 223.049 109.428V61.552C223.049 56.0735 218.592 51.6166 213.113 51.6166H192.195C186.716 51.6166 182.259 56.0735 182.259 61.552V64.8058C182.259 70.8608 177.332 75.787 171.276 75.787H114.099C108.044 75.787 103.117 70.8608 103.117 64.8058V-45.5874H104.163Z" fill="#656565"/>
<path d="M298.646 71.0229H391.849V72.0688H298.646C293.167 72.0688 288.71 76.5257 288.71 82.0042V130.809C288.71 136.288 293.167 140.745 298.646 140.745H391.849V141.791H298.646C292.59 141.791 287.664 136.864 287.664 130.809V82.0042C287.664 75.9491 292.59 71.0229 298.646 71.0229Z" fill="#656565"/>
<path d="M391.849 120.409H363.493C358.014 120.409 353.557 124.866 353.557 130.345V193.094C353.557 198.573 358.014 203.03 363.493 203.03H391.849V204.076H363.493C357.437 204.076 352.511 199.149 352.511 193.094V130.345C352.511 124.29 357.437 119.363 363.493 119.363H391.849V120.409Z" fill="#656565"/>
<path d="M166.337 3.45021V-45.5874H167.383V3.45021C167.383 9.50529 162.456 14.4314 156.401 14.4314H49.7169V13.3856H156.401C161.879 13.3856 166.337 8.92867 166.337 3.45021Z" fill="#656565"/>
<path d="M162.618 81.2775V42.0296C162.618 35.9746 167.545 31.0484 173.601 31.0484H217.762C220.402 31.0484 222.86 30.0141 224.685 28.1363C226.51 26.258 227.473 23.7708 227.397 21.1326C227.39 20.9173 226.772 -0.678955 226.501 -22.3379C226.381 -31.9913 226.353 -39.5938 226.389 -45.5874H227.43C227.324 -26.8043 227.844 0.363987 228.442 21.1026C228.527 24.026 227.459 26.7826 225.435 28.8651C223.412 30.9475 220.687 32.0945 217.762 32.0945H173.601C168.122 32.0945 163.664 36.5515 163.664 42.0299V81.2777C163.664 87.3328 158.738 92.2589 152.682 92.2589H72.9596V91.2131H152.682C158.161 91.2128 162.618 86.7559 162.618 81.2775Z" fill="#656565"/>
<path d="M121.711 112.682V-45.5874H122.757V112.682C122.757 118.737 117.831 123.663 111.775 123.663H20.896V122.617H111.775C117.254 122.617 121.711 118.16 121.711 112.682Z" fill="#656565"/>
<path d="M43.9064 164.915C49.9617 164.915 54.8885 169.841 54.8885 175.896V234.927C54.8885 240.406 59.346 244.863 64.8247 244.863H93.1809C99.2365 244.863 104.163 249.789 104.163 255.844V289.775C104.163 295.83 99.2365 300.756 93.1809 300.756H68.5435C63.0647 300.756 58.6073 305.213 58.6073 310.692V398.774H57.5614V310.692C57.5614 304.637 62.4882 299.711 68.5435 299.711H93.1809C98.6597 299.711 103.117 295.254 103.117 289.775V255.844C103.117 250.366 98.6597 245.909 93.1809 245.909H64.8247C58.7694 245.909 53.8426 240.982 53.8426 234.927V175.896C53.8426 170.417 49.3851 165.96 43.9064 165.96H2.30254V164.915H43.9064Z" fill="#656565"/>
<path d="M110.733 176.071C110.733 177.93 112.24 179.438 114.1 179.438C115.959 179.438 117.467 177.93 117.467 176.071C117.467 174.211 115.959 172.704 114.1 172.704C112.24 172.704 110.733 174.211 110.733 176.071Z" fill="#656565"/>
<path d="M114.099 179.699C116.1 179.699 117.728 178.071 117.728 176.07C117.728 174.07 116.1 172.442 114.099 172.442C112.099 172.442 110.471 174.07 110.471 176.07C110.471 178.071 112.099 179.699 114.099 179.699ZM114.099 172.965C115.812 172.965 117.205 174.358 117.205 176.07C117.205 177.782 115.812 179.176 114.099 179.176C112.387 179.176 110.994 177.782 110.994 176.07C110.994 174.358 112.387 172.965 114.099 172.965Z" fill="#656565"/>
<path d="M101.417 165.612C101.417 166.839 102.412 167.834 103.64 167.834C104.868 167.834 105.863 166.839 105.863 165.612C105.863 164.384 104.868 163.389 103.64 163.389C102.412 163.389 101.417 164.384 101.417 165.612Z" fill="#656565"/>
<path d="M103.64 168.096C105.01 168.096 106.125 166.982 106.125 165.612C106.125 164.242 105.01 163.128 103.64 163.128C102.27 163.128 101.156 164.242 101.156 165.612C101.156 166.982 102.27 168.096 103.64 168.096ZM103.64 163.651C104.722 163.651 105.602 164.531 105.602 165.612C105.602 166.693 104.722 167.573 103.64 167.573C102.559 167.573 101.679 166.693 101.679 165.612C101.679 164.531 102.559 163.651 103.64 163.651Z" fill="#656565"/>
<path d="M100.327 153.585C100.327 155.415 101.811 156.898 103.64 156.898C105.47 156.898 106.954 155.415 106.954 153.585C106.954 151.755 105.47 150.272 103.64 150.272C101.811 150.272 100.327 151.755 100.327 153.585Z" fill="#656565"/>
<path d="M103.64 157.159C105.611 157.159 107.215 155.556 107.215 153.585C107.215 151.614 105.611 150.011 103.64 150.011C101.669 150.011 100.065 151.614 100.065 153.585C100.065 155.556 101.669 157.159 103.64 157.159ZM103.64 150.534C105.323 150.534 106.692 151.902 106.692 153.585C106.692 155.268 105.323 156.636 103.64 156.636C101.957 156.636 100.588 155.268 100.588 153.585C100.588 151.902 101.957 150.534 103.64 150.534Z" fill="#656565"/>
<path d="M110.841 143.127C110.841 144.926 112.3 146.385 114.099 146.385C115.899 146.385 117.358 144.926 117.358 143.127C117.358 141.327 115.899 139.869 114.099 139.869C112.3 139.868 110.841 141.327 110.841 143.127Z" fill="#656565"/>
<path d="M114.099 146.647C116.04 146.647 117.619 145.067 117.619 143.127C117.619 141.186 116.04 139.607 114.099 139.607C112.158 139.607 110.579 141.186 110.579 143.127C110.579 145.067 112.158 146.647 114.099 146.647ZM114.099 140.13C115.752 140.13 117.096 141.474 117.096 143.127C117.096 144.779 115.752 146.124 114.099 146.124C112.447 146.124 111.102 144.779 111.102 143.127C111.102 141.474 112.447 140.13 114.099 140.13Z" fill="#656565"/>
<path d="M192.962 143.127C192.962 144.5 194.076 145.614 195.449 145.614C196.823 145.614 197.936 144.501 197.936 143.127C197.936 141.754 196.823 140.64 195.449 140.64C194.076 140.64 192.962 141.754 192.962 143.127Z" fill="#656565"/>
<path d="M195.449 145.875C196.964 145.875 198.197 144.642 198.197 143.127C198.197 141.612 196.964 140.379 195.449 140.379C193.933 140.379 192.7 141.612 192.7 143.127C192.7 144.642 193.933 145.875 195.449 145.875ZM195.449 140.902C196.676 140.902 197.674 141.9 197.674 143.127C197.674 144.354 196.676 145.352 195.449 145.352C194.222 145.352 193.223 144.354 193.223 143.127C193.223 141.9 194.222 140.902 195.449 140.902Z" fill="#656565"/>
<path d="M205.908 136.052C204.039 136.052 202.524 134.537 202.524 132.668C202.524 130.8 204.039 129.285 205.908 129.285C207.777 129.285 209.292 130.8 209.292 132.668C209.292 134.537 207.777 136.052 205.908 136.052Z" fill="#656565"/>
<path d="M205.908 136.314C207.918 136.314 209.553 134.678 209.553 132.669C209.553 130.658 207.918 129.023 205.908 129.023C203.898 129.023 202.263 130.659 202.263 132.669C202.263 134.679 203.898 136.314 205.908 136.314ZM205.908 129.546C207.63 129.546 209.03 130.947 209.03 132.669C209.03 134.391 207.63 135.791 205.908 135.791C204.186 135.791 202.786 134.39 202.786 132.669C202.786 130.947 204.186 129.546 205.908 129.546Z" fill="#656565"/>
<path d="M205.908 107.26C204.281 107.26 202.962 105.941 202.962 104.315C202.962 102.688 204.281 101.37 205.908 101.37C207.534 101.37 208.853 102.688 208.853 104.315C208.853 105.941 207.534 107.26 205.908 107.26Z" fill="#656565"/>
<path d="M205.908 107.521C207.676 107.521 209.115 106.083 209.115 104.315C209.115 102.547 207.676 101.108 205.908 101.108C204.14 101.108 202.701 102.546 202.701 104.315C202.701 106.083 204.14 107.521 205.908 107.521ZM205.908 101.631C207.388 101.631 208.592 102.835 208.592 104.315C208.592 105.794 207.388 106.998 205.908 106.998C204.428 106.998 203.224 105.794 203.224 104.315C203.224 102.835 204.428 101.631 205.908 101.631Z" fill="#656565"/>
<path d="M214.051 93.8567C214.051 95.1356 215.088 96.1723 216.367 96.1723C217.646 96.1723 218.683 95.1356 218.683 93.8567C218.683 92.5777 217.646 91.541 216.367 91.541C215.088 91.5408 214.051 92.5777 214.051 93.8567Z" fill="#656565"/>
<path d="M216.367 96.4339C217.788 96.4339 218.944 95.2778 218.944 93.8566C218.944 92.4354 217.788 91.2793 216.367 91.2793C214.946 91.2793 213.79 92.4354 213.79 93.8566C213.79 95.2778 214.946 96.4339 216.367 96.4339ZM216.367 91.8021C217.5 91.8021 218.421 92.7235 218.421 93.8566C218.421 94.9895 217.5 95.9108 216.367 95.9108C215.234 95.9108 214.313 94.9895 214.313 93.8566C214.313 92.7237 215.234 91.8021 216.367 91.8021Z" fill="#656565"/>
<path d="M260.364 93.8566C260.364 95.4874 261.687 96.8095 263.317 96.8095C264.948 96.8095 266.271 95.4874 266.271 93.8566C266.271 92.2258 264.948 90.9039 263.317 90.9039C261.687 90.9037 260.364 92.2258 260.364 93.8566Z" fill="#656565"/>
<path d="M263.317 97.0707C265.09 97.0707 266.532 95.6288 266.532 93.8566C266.532 92.0842 265.09 90.6423 263.317 90.6423C261.545 90.6423 260.103 92.0842 260.103 93.8566C260.103 95.6288 261.545 97.0707 263.317 97.0707ZM263.317 91.1651C264.802 91.1651 266.009 92.3725 266.009 93.8566C266.009 95.3405 264.802 96.5479 263.317 96.5479C261.833 96.5479 260.626 95.3408 260.626 93.8566C260.626 92.3727 261.833 91.1651 263.317 91.1651Z" fill="#656565"/>
<path d="M271.765 83.3981C271.765 84.5087 272.666 85.4092 273.777 85.4092C274.888 85.4092 275.788 84.5087 275.788 83.3981C275.788 82.2874 274.888 81.387 273.777 81.387C272.666 81.387 271.765 82.2874 271.765 83.3981Z" fill="#656565"/>
<path d="M273.777 85.6707C275.03 85.6707 276.049 84.6512 276.049 83.3981C276.049 82.145 275.03 81.1254 273.777 81.1254C272.524 81.1254 271.504 82.1448 271.504 83.3981C271.504 84.6512 272.524 85.6707 273.777 85.6707ZM273.777 81.6484C274.741 81.6484 275.526 82.4334 275.526 83.3981C275.526 84.3627 274.741 85.1476 273.777 85.1476C272.812 85.1476 272.027 84.3627 272.027 83.3981C272.027 82.4334 272.812 81.6484 273.777 81.6484Z" fill="#656565"/>
<path d="M270.644 17.8595C270.644 19.5894 272.046 20.9915 273.776 20.9915C275.506 20.9915 276.909 19.5891 276.909 17.8595C276.909 16.1299 275.506 14.7275 273.776 14.7275C272.047 14.7275 270.644 16.1299 270.644 17.8595Z" fill="#656565"/>
<path d="M273.777 21.253C275.648 21.253 277.17 19.7307 277.17 17.8594C277.17 15.9884 275.648 14.4661 273.777 14.4661C271.905 14.4661 270.383 15.9884 270.383 17.8594C270.383 19.7307 271.905 21.253 273.777 21.253ZM273.777 14.9891C275.36 14.9891 276.647 16.2767 276.647 17.8594C276.647 19.4421 275.36 20.73 273.777 20.73C272.194 20.73 270.906 19.4421 270.906 17.8594C270.906 16.2767 272.194 14.9891 273.777 14.9891Z" fill="#656565"/>
<path d="M281.154 7.4016C281.154 9.10351 282.534 10.4834 284.236 10.4834C285.938 10.4834 287.318 9.10351 287.318 7.4016C287.318 5.6997 285.938 4.31982 284.236 4.31982C282.534 4.31982 281.154 5.69944 281.154 7.4016Z" fill="#656565"/>
<path d="M284.236 10.7447C286.08 10.7447 287.579 9.24483 287.579 7.40152C287.579 5.55794 286.08 4.05835 284.236 4.05835C282.392 4.05835 280.892 5.55794 280.892 7.40152C280.892 9.24483 282.392 10.7447 284.236 10.7447ZM284.236 4.58139C285.791 4.58139 287.056 5.84651 287.056 7.40152C287.056 8.95678 285.791 10.2219 284.236 10.2219C282.681 10.2219 281.415 8.95678 281.415 7.40152C281.415 5.84651 282.681 4.58139 284.236 4.58139Z" fill="#656565"/>
<path d="M252.433 49.467C252.433 50.9852 253.664 52.2158 255.182 52.2158C256.701 52.2158 257.932 50.9852 257.932 49.467C257.932 47.9489 256.701 46.7183 255.182 46.7183C253.664 46.7183 252.433 47.9489 252.433 49.467Z" fill="#656565"/>
<path d="M255.182 52.4774C256.842 52.4774 258.193 51.127 258.193 49.4669C258.193 47.8074 256.842 46.4568 255.182 46.4568C253.522 46.4568 252.172 47.8071 252.172 49.4669C252.172 51.127 253.522 52.4774 255.182 52.4774ZM255.182 46.9798C256.554 46.9798 257.67 48.0957 257.67 49.4669C257.67 50.8387 256.554 51.9543 255.182 51.9543C253.81 51.9543 252.694 50.8384 252.694 49.4669C252.695 48.0957 253.81 46.9798 255.182 46.9798Z" fill="#656565"/>
<path d="M265.641 41.4833C264.274 41.4833 263.166 40.3754 263.166 39.0088C263.166 37.6421 264.274 36.5342 265.641 36.5342C267.008 36.5342 268.116 37.6421 268.116 39.0088C268.116 40.3754 267.008 41.4833 265.641 41.4833Z" fill="#656565"/>
<path d="M265.642 41.7449C267.151 41.7449 268.378 40.5172 268.378 39.0084C268.378 37.4997 267.151 36.2722 265.642 36.2722C264.133 36.2722 262.905 37.4997 262.905 39.0084C262.905 40.5172 264.133 41.7449 265.642 41.7449ZM265.642 36.7955C266.862 36.7955 267.855 37.7883 267.855 39.0087C267.855 40.2291 266.862 41.2221 265.642 41.2221C264.421 41.2221 263.428 40.2291 263.428 39.0087C263.428 37.7883 264.421 36.7955 265.642 36.7955Z" fill="#656565"/>
<path d="M335.834 41.0617C334.7 41.0617 333.781 40.1425 333.781 39.0085C333.781 37.8746 334.7 36.9553 335.834 36.9553C336.968 36.9553 337.888 37.8746 337.888 39.0085C337.888 40.1425 336.968 41.0617 335.834 41.0617Z" fill="#656565"/>
<path d="M335.834 41.3236C337.111 41.3236 338.149 40.2851 338.149 39.0087C338.149 37.7326 337.111 36.6941 335.834 36.6941C334.558 36.6941 333.519 37.7326 333.519 39.0087C333.519 40.2851 334.558 41.3236 335.834 41.3236ZM335.834 37.2169C336.822 37.2169 337.626 38.0206 337.626 39.0084C337.626 39.9965 336.823 40.8002 335.834 40.8002C334.846 40.8002 334.042 39.9965 334.042 39.0084C334.042 38.0206 334.846 37.2169 335.834 37.2169Z" fill="#656565"/>
<path d="M346.293 31.8489C344.472 31.8489 342.995 30.3721 342.995 28.5504C342.995 26.7287 344.472 25.252 346.293 25.252C348.115 25.252 349.592 26.7287 349.592 28.5504C349.592 30.3721 348.115 31.8489 346.293 31.8489Z" fill="#656565"/>
<path d="M346.293 32.1102C348.257 32.1102 349.854 30.5131 349.854 28.5501C349.854 26.5871 348.257 24.9902 346.293 24.9902C344.33 24.9902 342.733 26.5871 342.733 28.5501C342.733 30.5131 344.33 32.1102 346.293 32.1102ZM346.293 25.5133C347.968 25.5133 349.331 26.8756 349.331 28.5501C349.331 30.2248 347.968 31.5872 346.293 31.5872C344.619 31.5872 343.256 30.2248 343.256 28.5501C343.256 26.8756 344.619 25.5133 346.293 25.5133Z" fill="#656565"/>
<path d="M318.216 112.682C318.216 113.812 319.132 114.727 320.262 114.727C321.392 114.727 322.308 113.812 322.308 112.682C322.308 111.552 321.392 110.636 320.262 110.636C319.132 110.636 318.216 111.552 318.216 112.682Z" fill="#656565"/>
<path d="M320.262 114.989C321.534 114.989 322.569 113.954 322.569 112.681C322.569 111.409 321.534 110.374 320.262 110.374C318.99 110.374 317.954 111.409 317.954 112.681C317.954 113.954 318.99 114.989 320.262 114.989ZM320.262 110.897C321.246 110.897 322.046 111.698 322.046 112.682C322.046 113.666 321.246 114.466 320.262 114.466C319.278 114.466 318.477 113.666 318.477 112.682C318.477 111.698 319.278 110.897 320.262 110.897Z" fill="#656565"/>
<path d="M328.708 102.223C328.708 103.335 329.609 104.236 330.721 104.236C331.832 104.236 332.733 103.334 332.733 102.223C332.733 101.112 331.832 100.21 330.721 100.21C329.609 100.21 328.708 101.111 328.708 102.223Z" fill="#656565"/>
<path d="M330.721 104.497C331.975 104.497 332.995 103.477 332.995 102.223C332.995 100.969 331.975 99.949 330.721 99.949C329.467 99.949 328.446 100.969 328.446 102.223C328.446 103.477 329.467 104.497 330.721 104.497ZM330.721 100.472C331.686 100.472 332.472 101.257 332.472 102.223C332.472 103.189 331.686 103.974 330.721 103.974C329.755 103.974 328.969 103.189 328.969 102.223C328.969 101.257 329.755 100.472 330.721 100.472Z" fill="#656565"/>
<path d="M339.088 66.802C337.087 66.802 335.465 65.18 335.465 63.1791C335.465 61.1783 337.087 59.5563 339.088 59.5563C341.089 59.5563 342.711 61.1783 342.711 63.1791C342.711 65.18 341.089 66.802 339.088 66.802Z" fill="#656565"/>
<path d="M339.088 67.0634C341.23 67.0634 342.973 65.321 342.973 63.1794C342.973 61.0378 341.23 59.2952 339.088 59.2952C336.946 59.2952 335.204 61.0378 335.204 63.1794C335.204 65.321 336.946 67.0634 339.088 67.0634ZM339.088 59.8177C340.942 59.8177 342.45 61.3256 342.45 63.1791C342.45 65.0327 340.941 66.5403 339.088 66.5403C337.234 66.5403 335.727 65.0327 335.727 63.1791C335.727 61.3259 337.234 59.8177 339.088 59.8177Z" fill="#656565"/>
<path d="M325.682 52.7206C325.682 54.3483 327.002 55.668 328.629 55.668C330.257 55.668 331.577 54.3485 331.577 52.7206C331.577 51.0929 330.257 49.7732 328.629 49.7732C327.002 49.7735 325.682 51.0929 325.682 52.7206Z" fill="#656565"/>
<path d="M328.629 55.9295C330.398 55.9295 331.838 54.49 331.838 52.7207C331.838 50.9513 330.398 49.5116 328.629 49.5116C326.86 49.5116 325.42 50.9511 325.42 52.7207C325.42 54.49 326.86 55.9295 328.629 55.9295ZM328.629 50.0349C330.11 50.0349 331.315 51.2399 331.315 52.7209C331.315 54.202 330.11 55.4067 328.629 55.4067C327.148 55.4067 325.943 54.2017 325.943 52.7209C325.943 51.2396 327.148 50.0349 328.629 50.0349Z" fill="#656565"/>
<path d="M164.931 130.344C164.931 131.923 166.211 133.203 167.79 133.203C169.369 133.203 170.649 131.923 170.649 130.344C170.649 128.765 169.369 127.485 167.79 127.485C166.211 127.485 164.931 128.765 164.931 130.344Z" fill="#656565"/>
<path d="M167.79 133.465C169.511 133.465 170.911 132.065 170.911 130.344C170.911 128.624 169.511 127.224 167.79 127.224C166.069 127.224 164.669 128.624 164.669 130.344C164.669 132.065 166.069 133.465 167.79 133.465ZM167.79 127.747C169.222 127.747 170.388 128.912 170.388 130.344C170.388 131.777 169.222 132.942 167.79 132.942C166.358 132.942 165.192 131.777 165.192 130.344C165.192 128.912 166.357 127.747 167.79 127.747Z" fill="#656565"/>
<path d="M176.109 119.886C176.109 121.067 177.067 122.025 178.249 122.025C179.431 122.025 180.389 121.067 180.389 119.886C180.389 118.704 179.431 117.746 178.249 117.746C177.067 117.746 176.109 118.704 176.109 119.886Z" fill="#656565"/>
<path d="M178.249 122.287C179.573 122.287 180.65 121.21 180.65 119.886C180.65 118.562 179.573 117.485 178.249 117.485C176.925 117.485 175.848 118.562 175.848 119.886C175.848 121.21 176.925 122.287 178.249 122.287ZM178.249 118.008C179.285 118.008 180.127 118.85 180.127 119.886C180.127 120.921 179.285 121.764 178.249 121.764C177.213 121.764 176.37 120.921 176.37 119.886C176.37 118.85 177.213 118.008 178.249 118.008Z" fill="#656565"/>
<path d="M211.004 119.886C211.004 121.051 211.948 121.995 213.113 121.995C214.278 121.995 215.222 121.051 215.222 119.886C215.222 118.721 214.278 117.777 213.113 117.777C211.948 117.777 211.004 118.721 211.004 119.886Z" fill="#656565"/>
<path d="M213.113 122.256C214.42 122.256 215.483 121.193 215.483 119.886C215.483 118.579 214.42 117.515 213.113 117.515C211.806 117.515 210.743 118.579 210.743 119.886C210.742 121.193 211.806 122.256 213.113 122.256ZM213.113 118.038C214.132 118.038 214.96 118.867 214.96 119.886C214.96 120.905 214.132 121.733 213.113 121.733C212.094 121.733 211.265 120.904 211.265 119.886C211.265 118.867 212.094 118.038 213.113 118.038Z" fill="#656565"/>
<path d="M221.053 109.428C221.053 110.819 222.181 111.946 223.572 111.946C224.963 111.946 226.091 110.819 226.091 109.428C226.091 108.037 224.963 106.909 223.572 106.909C222.181 106.909 221.053 108.037 221.053 109.428Z" fill="#656565"/>
<path d="M223.572 112.207C225.105 112.207 226.353 110.96 226.353 109.428C226.353 107.895 225.106 106.647 223.572 106.647C222.039 106.647 220.792 107.895 220.792 109.428C220.792 110.96 222.039 112.207 223.572 112.207ZM223.572 107.17C224.817 107.17 225.83 108.183 225.83 109.428C225.83 110.672 224.817 111.684 223.572 111.684C222.328 111.684 221.315 110.672 221.315 109.428C221.315 108.183 222.328 107.17 223.572 107.17Z" fill="#656565"/>
<path d="M221.257 61.552C221.257 62.831 222.293 63.8676 223.572 63.8676C224.851 63.8676 225.888 62.831 225.888 61.552C225.888 60.273 224.851 59.2363 223.572 59.2363C222.293 59.2363 221.257 60.273 221.257 61.552Z" fill="#656565"/>
<path d="M223.572 64.129C224.993 64.129 226.149 62.9729 226.149 61.552C226.149 60.1311 224.993 58.975 223.572 58.975C222.151 58.975 220.995 60.1311 220.995 61.552C220.995 62.9729 222.151 64.129 223.572 64.129ZM223.572 59.4978C224.705 59.4978 225.626 60.4192 225.626 61.552C225.626 62.6846 224.705 63.606 223.572 63.606C222.44 63.606 221.518 62.6846 221.518 61.552C221.518 60.4194 222.44 59.4978 223.572 59.4978Z" fill="#656565"/>
<path d="M209.451 51.0939C209.451 53.116 211.091 54.7552 213.113 54.7552C215.135 54.7552 216.774 53.116 216.774 51.0939C216.774 49.0718 215.135 47.4326 213.113 47.4326C211.091 47.4326 209.451 49.0718 209.451 51.0939Z" fill="#656565"/>
<path d="M213.113 55.0162C215.276 55.0162 217.036 53.2566 217.036 51.0936C217.036 48.9306 215.276 47.1709 213.113 47.1709C210.95 47.1709 209.19 48.9306 209.19 51.0936C209.19 53.2566 210.95 55.0162 213.113 55.0162ZM213.113 47.6939C214.988 47.6939 216.513 49.2191 216.513 51.0936C216.513 52.9682 214.988 54.4932 213.113 54.4932C211.238 54.4932 209.713 52.9682 209.713 51.0936C209.713 49.2191 211.238 47.6939 213.113 47.6939Z" fill="#656565"/>
<path d="M189.617 51.0939C189.617 52.5171 190.771 53.6709 192.195 53.6709C193.618 53.6709 194.772 52.5171 194.772 51.0939C194.772 49.6706 193.618 48.5168 192.195 48.5168C190.771 48.5168 189.617 49.6706 189.617 51.0939Z" fill="#656565"/>
<path d="M192.195 53.9325C193.76 53.9325 195.033 52.6592 195.033 51.094C195.033 49.5288 193.76 48.2556 192.195 48.2556C190.629 48.2556 189.356 49.5288 189.356 51.094C189.356 52.659 190.629 53.9325 192.195 53.9325ZM192.195 48.7784C193.472 48.7784 194.51 49.8172 194.51 51.094C194.51 52.3709 193.471 53.4097 192.195 53.4097C190.918 53.4097 189.879 52.3709 189.879 51.094C189.879 49.8169 190.918 48.7784 192.195 48.7784Z" fill="#656565"/>
<path d="M179.517 61.5523C179.517 62.7774 180.51 63.7707 181.735 63.7707C182.961 63.7707 183.954 62.7774 183.954 61.5523C183.954 60.3271 182.96 59.3339 181.735 59.3339C180.51 59.3339 179.517 60.3271 179.517 61.5523Z" fill="#656565"/>
<path d="M181.735 64.0321C183.103 64.0321 184.215 62.9196 184.215 61.5523C184.215 60.185 183.103 59.0725 181.735 59.0725C180.368 59.0725 179.256 60.185 179.256 61.5523C179.256 62.9196 180.368 64.0321 181.735 64.0321ZM181.735 59.5955C182.815 59.5955 183.692 60.4733 183.692 61.5523C183.692 62.6313 182.815 63.5091 181.735 63.5091C180.656 63.5091 179.779 62.6313 179.779 61.5523C179.778 60.4733 180.656 59.5955 181.735 59.5955Z" fill="#656565"/>
<path d="M179.449 64.8059C179.449 66.0687 180.473 67.0923 181.736 67.0923C182.999 67.0923 184.022 66.0687 184.022 64.8059C184.022 63.5431 182.999 62.5195 181.736 62.5195C180.473 62.5195 179.449 63.5431 179.449 64.8059Z" fill="#656565"/>
<path d="M181.736 67.3536C183.141 67.3536 184.284 66.2105 184.284 64.8056C184.284 63.4009 183.141 62.2578 181.736 62.2578C180.331 62.2578 179.188 63.4006 179.188 64.8056C179.188 66.2105 180.331 67.3536 181.736 67.3536ZM181.736 62.7809C182.853 62.7809 183.761 63.6892 183.761 64.8056C183.761 65.9222 182.852 66.8306 181.736 66.8306C180.619 66.8306 179.711 65.922 179.711 64.8056C179.711 63.6892 180.619 62.7809 181.736 62.7809Z" fill="#656565"/>
<path d="M169.128 75.264C169.128 76.4504 170.09 77.4123 171.276 77.4123C172.463 77.4123 173.425 76.4504 173.425 75.264C173.425 74.0775 172.463 73.1156 171.276 73.1156C170.09 73.1156 169.128 74.0775 169.128 75.264Z" fill="#656565"/>
<path d="M171.276 77.6739C172.605 77.6739 173.687 76.5928 173.687 75.2639C173.687 73.9352 172.605 72.8541 171.276 72.8541C169.947 72.8541 168.866 73.9352 168.866 75.2639C168.866 76.5928 169.947 77.6739 171.276 77.6739ZM171.276 73.3769C172.317 73.3769 173.164 74.2233 173.164 75.2639C173.164 76.3045 172.317 77.1511 171.276 77.1511C170.236 77.1511 169.389 76.3045 169.389 75.2639C169.389 74.2235 170.236 73.3769 171.276 73.3769Z" fill="#656565"/>
<path d="M110.421 75.264C110.421 77.2953 112.068 78.9418 114.099 78.9418C116.131 78.9418 117.777 77.2953 117.777 75.264C117.777 73.2328 116.131 71.5863 114.099 71.5863C112.068 71.5863 110.421 73.2328 110.421 75.264Z" fill="#656565"/>
<path d="M114.1 79.2031C116.272 79.2031 118.039 77.4358 118.039 75.264C118.039 73.0918 116.272 71.3248 114.1 71.3248C111.927 71.3248 110.16 73.0921 110.16 75.264C110.16 77.4361 111.927 79.2031 114.1 79.2031ZM114.1 71.8476C115.984 71.8476 117.516 73.3801 117.516 75.264C117.516 77.1478 115.984 78.6803 114.1 78.6803C112.216 78.6803 110.683 77.1478 110.683 75.264C110.683 73.3801 112.216 71.8476 114.1 71.8476Z" fill="#656565"/>
<path d="M101.123 64.8058C101.123 66.1961 102.25 67.3232 103.64 67.3232C105.03 67.3232 106.158 66.1961 106.158 64.8058C106.158 63.4154 105.03 62.2883 103.64 62.2883C102.25 62.2883 101.123 63.4154 101.123 64.8058Z" fill="#656565"/>
<path d="M103.64 67.5844C105.173 67.5844 106.419 66.3378 106.419 64.8056C106.419 63.2733 105.173 62.0267 103.64 62.0267C102.108 62.0267 100.861 63.2733 100.861 64.8056C100.861 66.3378 102.108 67.5844 103.64 67.5844ZM103.64 62.5498C104.885 62.5498 105.896 63.5616 105.896 64.8056C105.896 66.0495 104.885 67.0614 103.64 67.0614C102.396 67.0614 101.384 66.0495 101.384 64.8056C101.384 63.5616 102.396 62.5498 103.64 62.5498Z" fill="#656565"/>
<path d="M295.417 71.5453C295.417 73.3285 296.863 74.774 298.646 74.774C300.429 74.774 301.875 73.3285 301.875 71.5453C301.875 69.7621 300.429 68.3167 298.646 68.3167C296.863 68.3167 295.417 69.7621 295.417 71.5453Z" fill="#656565"/>
<path d="M298.646 75.0357C300.571 75.0357 302.137 73.47 302.137 71.5456C302.137 69.621 300.571 68.0553 298.646 68.0553C296.721 68.0553 295.155 69.621 295.155 71.5456C295.156 73.47 296.721 75.0357 298.646 75.0357ZM298.646 68.5781C300.282 68.5781 301.614 69.9093 301.614 71.5456C301.614 73.1817 300.282 74.5129 298.646 74.5129C297.01 74.5129 295.678 73.1819 295.678 71.5456C295.679 69.9093 297.01 68.5781 298.646 68.5781Z" fill="#656565"/>
<path d="M285.104 82.004C285.104 83.7065 286.484 85.0864 288.187 85.0864C289.889 85.0864 291.27 83.7062 291.27 82.004C291.27 80.3019 289.889 78.9218 288.187 78.9218C286.484 78.9218 285.104 80.3016 285.104 82.004Z" fill="#656565"/>
<path d="M288.187 85.348C290.031 85.348 291.531 83.8479 291.531 82.0043C291.531 80.1605 290.031 78.6606 288.187 78.6606C286.343 78.6606 284.843 80.1608 284.843 82.0043C284.843 83.8479 286.343 85.348 288.187 85.348ZM288.187 79.1832C289.742 79.1832 291.008 80.4485 291.008 82.0041C291.008 83.5596 289.742 84.825 288.187 84.825C286.631 84.825 285.366 83.5596 285.366 82.0041C285.366 80.4485 286.631 79.1832 288.187 79.1832Z" fill="#656565"/>
<path d="M288.187 133.596C286.647 133.596 285.399 132.348 285.399 130.809C285.399 129.27 286.647 128.022 288.187 128.022C289.726 128.022 290.974 129.27 290.974 130.809C290.974 132.348 289.726 133.596 288.187 133.596Z" fill="#656565"/>
<path d="M288.187 133.858C289.868 133.858 291.236 132.49 291.236 130.809C291.236 129.128 289.868 127.76 288.187 127.76C286.505 127.76 285.138 129.128 285.138 130.809C285.138 132.49 286.505 133.858 288.187 133.858ZM288.187 128.283C289.58 128.283 290.713 129.416 290.713 130.809C290.713 132.202 289.58 133.335 288.187 133.335C286.794 133.335 285.661 132.202 285.661 130.809C285.661 129.416 286.794 128.283 288.187 128.283Z" fill="#656565"/>
<path d="M298.646 144.748C296.723 144.748 295.165 143.19 295.165 141.267C295.165 139.345 296.723 137.787 298.646 137.787C300.568 137.787 302.127 139.345 302.127 141.267C302.127 143.19 300.568 144.748 298.646 144.748Z" fill="#656565"/>
<path d="M298.646 145.01C300.709 145.01 302.388 143.331 302.388 141.268C302.388 139.204 300.709 137.526 298.646 137.526C296.582 137.526 294.903 139.205 294.903 141.268C294.903 143.331 296.582 145.01 298.646 145.01ZM298.646 138.048C300.421 138.048 301.865 139.493 301.865 141.268C301.865 143.043 300.421 144.487 298.646 144.487C296.87 144.487 295.426 143.043 295.426 141.268C295.426 139.493 296.87 138.048 298.646 138.048Z" fill="#656565"/>
<path d="M360.935 119.886C360.935 121.298 362.08 122.444 363.493 122.444C364.906 122.444 366.051 121.299 366.051 119.886C366.051 118.473 364.906 117.328 363.493 117.328C362.08 117.328 360.935 118.473 360.935 119.886Z" fill="#656565"/>
<path d="M363.493 122.706C365.048 122.706 366.312 121.441 366.312 119.886C366.312 118.331 365.048 117.067 363.493 117.067C361.938 117.067 360.674 118.331 360.674 119.886C360.674 121.441 361.938 122.706 363.493 122.706ZM363.493 117.59C364.759 117.59 365.79 118.62 365.79 119.886C365.79 121.152 364.759 122.183 363.493 122.183C362.227 122.183 361.197 121.152 361.197 119.886C361.197 118.62 362.227 117.59 363.493 117.59Z" fill="#656565"/>
<path d="M350.185 130.344C350.185 131.918 351.461 133.193 353.034 133.193C354.607 133.193 355.883 131.918 355.883 130.344C355.883 128.771 354.607 127.496 353.034 127.496C351.461 127.496 350.185 128.771 350.185 130.344Z" fill="#656565"/>
<path d="M353.034 133.454C354.749 133.454 356.144 132.059 356.144 130.344C356.144 128.63 354.749 127.234 353.034 127.234C351.319 127.234 349.923 128.629 349.923 130.344C349.924 132.059 351.319 133.454 353.034 133.454ZM353.034 127.757C354.46 127.757 355.621 128.918 355.621 130.344C355.621 131.771 354.46 132.931 353.034 132.931C351.607 132.931 350.446 131.771 350.446 130.344C350.447 128.918 351.607 127.757 353.034 127.757Z" fill="#656565"/>
<path d="M47.1531 13.9087C47.1531 15.3246 48.3011 16.4724 49.717 16.4724C51.1329 16.4724 52.2808 15.3246 52.2808 13.9087C52.2808 12.4927 51.1329 11.345 49.717 11.345C48.3011 11.345 47.1531 12.4927 47.1531 13.9087Z" fill="#656565"/>
<path d="M49.7172 16.7339C51.2753 16.7339 52.543 15.4664 52.543 13.9086C52.543 12.351 51.2753 11.0837 49.7172 11.0837C48.1595 11.0837 46.8918 12.351 46.8918 13.9086C46.8918 15.4664 48.1595 16.7339 49.7172 16.7339ZM49.7172 11.6068C50.9866 11.6068 52.02 12.6395 52.02 13.9088C52.02 15.1784 50.9869 16.2111 49.7172 16.2111C48.4477 16.2111 47.4148 15.1784 47.4148 13.9088C47.4148 12.6395 48.4477 11.6068 49.7172 11.6068Z" fill="#656565"/>
<path d="M153.472 13.9088C153.472 15.5263 154.783 16.8374 156.401 16.8374C158.018 16.8374 159.33 15.5263 159.33 13.9088C159.33 12.2914 158.018 10.9802 156.401 10.9802C154.783 10.9802 153.472 12.2914 153.472 13.9088Z" fill="#656565"/>
<path d="M156.401 17.0987C158.16 17.0987 159.591 15.6676 159.591 13.9087C159.591 12.1499 158.159 10.7188 156.401 10.7188C154.642 10.7188 153.21 12.1499 153.21 13.9087C153.21 15.6676 154.642 17.0987 156.401 17.0987ZM156.401 11.2415C157.871 11.2415 159.068 12.4379 159.068 13.9087C159.068 15.3796 157.871 16.576 156.401 16.576C154.93 16.576 153.733 15.3796 153.733 13.9087C153.733 12.4379 154.93 11.2415 156.401 11.2415Z" fill="#656565"/>
<path d="M166.86 5.86872C165.524 5.86872 164.441 4.78598 164.441 3.45035C164.441 2.11472 165.524 1.03198 166.86 1.03198C168.196 1.03198 169.279 2.11472 169.279 3.45035C169.279 4.78598 168.196 5.86872 166.86 5.86872Z" fill="#656565"/>
<path d="M166.86 6.13029C168.338 6.13029 169.54 4.92816 169.54 3.45027C169.54 1.97264 168.338 0.770508 166.86 0.770508C165.382 0.770508 164.18 1.97264 164.18 3.45027C164.18 4.92816 165.382 6.13029 166.86 6.13029ZM166.86 1.29354C168.049 1.29354 169.017 2.26095 169.017 3.45027C169.017 4.63959 168.049 5.60725 166.86 5.60725C165.67 5.60725 164.703 4.63959 164.703 3.45027C164.703 2.26095 165.67 1.29354 166.86 1.29354Z" fill="#656565"/>
<path d="M70.0968 91.7361C70.0968 93.317 71.3786 94.5989 72.9598 94.5989C74.541 94.5989 75.8228 93.3173 75.8228 91.7361C75.8228 90.155 74.541 88.8734 72.9598 88.8734C71.3786 88.8734 70.0968 90.155 70.0968 91.7361Z" fill="#656565"/>
<path d="M72.9596 94.8602C74.6822 94.8602 76.084 93.4586 76.084 91.736C76.084 90.0135 74.6822 88.6122 72.9596 88.6122C71.2369 88.6122 69.8357 90.0137 69.8357 91.736C69.8357 93.4586 71.2369 94.8602 72.9596 94.8602ZM72.9596 89.135C74.394 89.135 75.561 90.3018 75.561 91.736C75.561 93.1705 74.394 94.3374 72.9596 94.3374C71.5256 94.3374 70.3586 93.1705 70.3586 91.736C70.3586 90.3018 71.5253 89.135 72.9596 89.135Z" fill="#656565"/>
<path d="M152.682 95.1161C150.815 95.1161 149.302 93.6028 149.302 91.7361C149.302 89.8694 150.815 88.3561 152.682 88.3561C154.549 88.3561 156.062 89.8694 156.062 91.7361C156.062 93.6028 154.549 95.1161 152.682 95.1161Z" fill="#656565"/>
<path d="M152.682 95.3774C154.69 95.3774 156.324 93.7437 156.324 91.736C156.324 89.728 154.69 88.0946 152.682 88.0946C150.674 88.0946 149.04 89.7283 149.04 91.736C149.041 93.7437 150.674 95.3774 152.682 95.3774ZM152.682 88.6174C154.402 88.6174 155.801 90.0163 155.801 91.736C155.801 93.4557 154.402 94.8547 152.682 94.8547C150.963 94.8547 149.563 93.4557 149.563 91.736C149.564 90.0163 150.963 88.6174 152.682 88.6174Z" fill="#656565"/>
<path d="M163.141 83.5467C161.888 83.5467 160.872 82.5307 160.872 81.2775C160.872 80.0243 161.888 79.0084 163.141 79.0084C164.395 79.0084 165.411 80.0243 165.411 81.2775C165.411 82.5307 164.395 83.5467 163.141 83.5467Z" fill="#656565"/>
<path d="M163.141 83.8081C164.537 83.8081 165.672 82.6729 165.672 81.2776C165.672 79.8823 164.537 78.7471 163.141 78.7471C161.746 78.7471 160.611 79.8823 160.611 81.2776C160.611 82.6729 161.746 83.8081 163.141 83.8081ZM163.141 79.2698C164.249 79.2698 165.149 80.1703 165.149 81.2776C165.149 82.3848 164.249 83.2853 163.141 83.2853C162.034 83.2853 161.134 82.3848 161.134 81.2776C161.134 80.1706 162.034 79.2698 163.141 79.2698Z" fill="#656565"/>
<path d="M163.141 44.7254C161.652 44.7254 160.445 43.5186 160.445 42.0299C160.445 40.5413 161.652 39.3345 163.141 39.3345C164.63 39.3345 165.836 40.5413 165.836 42.0299C165.836 43.5186 164.63 44.7254 163.141 44.7254Z" fill="#656565"/>
<path d="M163.141 44.9869C164.771 44.9869 166.098 43.6604 166.098 42.0298C166.098 40.3995 164.772 39.0732 163.141 39.0732C161.511 39.0732 160.184 40.3995 160.184 42.0298C160.184 43.6604 161.511 44.9869 163.141 44.9869ZM163.141 39.596C164.483 39.596 165.575 40.6878 165.575 42.0298C165.575 43.372 164.483 44.4639 163.141 44.4639C161.799 44.4639 160.707 43.372 160.707 42.0298C160.707 40.6878 161.799 39.596 163.141 39.596Z" fill="#656565"/>
<path d="M173.6 34.1726C172.164 34.1726 170.999 33.0081 170.999 31.5715C170.999 30.135 172.164 28.9705 173.6 28.9705C175.037 28.9705 176.202 30.135 176.202 31.5715C176.202 33.0081 175.037 34.1726 173.6 34.1726Z" fill="#656565"/>
<path d="M173.6 34.4339C175.179 34.4339 176.463 33.15 176.463 31.5714C176.463 29.9932 175.179 28.7092 173.6 28.7092C172.022 28.7092 170.738 29.9934 170.738 31.5714C170.738 33.15 172.022 34.4339 173.6 34.4339ZM173.6 29.232C174.89 29.232 175.94 30.2815 175.94 31.5714C175.94 32.8614 174.89 33.9111 173.6 33.9111C172.31 33.9111 171.26 32.8614 171.26 31.5714C171.26 30.2815 172.31 29.232 173.6 29.232Z" fill="#656565"/>
<path d="M217.762 34.019C216.41 34.019 215.314 32.9233 215.314 31.5716C215.314 30.22 216.41 29.1243 217.762 29.1243C219.113 29.1243 220.209 30.22 220.209 31.5716C220.209 32.9233 219.113 34.019 217.762 34.019Z" fill="#656565"/>
<path d="M217.762 34.2803C219.256 34.2803 220.471 33.0651 220.471 31.5716C220.471 30.078 219.255 28.8628 217.762 28.8628C216.268 28.8628 215.053 30.078 215.053 31.5716C215.053 33.0651 216.268 34.2803 217.762 34.2803ZM217.762 29.3856C218.967 29.3856 219.948 30.366 219.948 31.5716C219.948 32.7771 218.967 33.7576 217.762 33.7576C216.556 33.7576 215.576 32.7771 215.576 31.5716C215.576 30.366 216.556 29.3856 217.762 29.3856Z" fill="#656565"/>
<path d="M224.311 21.1177C224.311 23.11 225.926 24.7251 227.919 24.7251C229.911 24.7251 231.527 23.11 231.527 21.1177C231.527 19.1254 229.912 17.51 227.919 17.51C225.926 17.51 224.311 19.1251 224.311 21.1177Z" fill="#656565"/>
<path d="M227.919 24.9864C230.053 24.9864 231.789 23.2508 231.789 21.1174C231.789 18.9842 230.053 17.2483 227.919 17.2483C225.786 17.2483 224.05 18.9839 224.05 21.1174C224.05 23.2506 225.786 24.9864 227.919 24.9864ZM227.919 17.7713C229.764 17.7713 231.266 19.2725 231.266 21.1174C231.266 22.9623 229.764 24.4634 227.919 24.4634C226.074 24.4634 224.573 22.9623 224.573 21.1174C224.573 19.2725 226.074 17.7713 227.919 17.7713Z" fill="#656565"/>
<path d="M20.8963 125.785C19.4352 125.785 18.2507 124.601 18.2507 123.14C18.2507 121.679 19.4352 120.494 20.8963 120.494C22.3575 120.494 23.542 121.679 23.542 123.14C23.542 124.601 22.3575 125.785 20.8963 125.785Z" fill="#656565"/>
<path d="M20.8963 126.047C22.4994 126.047 23.8037 124.743 23.8037 123.14C23.8037 121.537 22.4994 120.233 20.8963 120.233C19.2932 120.233 17.9894 121.537 17.9894 123.14C17.9892 124.743 19.2932 126.047 20.8963 126.047ZM20.8963 120.756C22.2108 120.756 23.2808 121.826 23.2808 123.14C23.2808 124.454 22.2108 125.524 20.8963 125.524C19.5819 125.524 18.5124 124.454 18.5124 123.14C18.5121 121.826 19.5816 120.756 20.8963 120.756Z" fill="#656565"/>
<path d="M109.233 123.14C109.233 124.544 110.371 125.682 111.775 125.682C113.179 125.682 114.318 124.544 114.318 123.14C114.318 121.736 113.18 120.597 111.775 120.597C110.371 120.597 109.233 121.736 109.233 123.14Z" fill="#656565"/>
<path d="M111.775 125.944C113.321 125.944 114.579 124.686 114.579 123.14C114.579 121.594 113.321 120.336 111.775 120.336C110.229 120.336 108.971 121.594 108.971 123.14C108.971 124.686 110.229 125.944 111.775 125.944ZM111.775 120.859C113.033 120.859 114.056 121.882 114.056 123.14C114.056 124.398 113.033 125.421 111.775 125.421C110.517 125.421 109.494 124.398 109.494 123.14C109.494 121.882 110.517 120.859 111.775 120.859Z" fill="#656565"/>
<path d="M122.234 115.467C120.696 115.467 119.449 114.22 119.449 112.682C119.449 111.143 120.696 109.896 122.234 109.896C123.773 109.896 125.02 111.143 125.02 112.682C125.02 114.22 123.773 115.467 122.234 115.467Z" fill="#656565"/>
<path d="M122.234 115.728C123.915 115.728 125.281 114.361 125.281 112.682C125.281 111.002 123.914 109.635 122.234 109.635C120.555 109.635 119.188 111.002 119.188 112.682C119.188 114.361 120.554 115.728 122.234 115.728ZM122.234 110.158C123.626 110.158 124.758 111.29 124.758 112.682C124.758 114.073 123.626 115.205 122.234 115.205C120.843 115.205 119.711 114.073 119.711 112.682C119.711 111.29 120.843 110.158 122.234 110.158Z" fill="#656565"/>
<path d="M0.261353 165.438C0.261353 166.565 1.17499 167.478 2.30171 167.478C3.42869 167.478 4.34229 166.565 4.34229 165.438C4.34229 164.311 3.42869 163.398 2.30171 163.398C1.17499 163.398 0.261353 164.311 0.261353 165.438Z" fill="#656565"/>
<path d="M2.3022 167.74C3.57116 167.74 4.604 166.707 4.604 165.438C4.604 164.169 3.57143 163.136 2.3022 163.136C1.03245 163.136 -0.000143528 164.169 -0.000143528 165.438C-0.000143528 166.707 1.03272 167.74 2.3022 167.74ZM2.3022 163.659C3.28327 163.659 4.08104 164.457 4.08104 165.438C4.08104 166.419 3.28327 167.217 2.3022 167.217C1.32113 167.217 0.522817 166.419 0.522817 165.438C0.522817 164.457 1.32113 163.659 2.3022 163.659Z" fill="#656565"/>
<path d="M43.9061 167.836C42.5811 167.836 41.507 166.762 41.507 165.438C41.507 164.113 42.5811 163.039 43.9061 163.039C45.2311 163.039 46.3052 164.113 46.3052 165.438C46.3052 166.762 45.2311 167.836 43.9061 167.836Z" fill="#656565"/>
<path d="M43.9061 168.098C45.3732 168.098 46.5669 166.904 46.5669 165.438C46.5669 163.971 45.3732 162.777 43.9061 162.777C42.4394 162.777 41.2458 163.971 41.2458 165.438C41.2458 166.905 42.4392 168.098 43.9061 168.098ZM43.9061 163.3C45.0848 163.3 46.0439 164.259 46.0439 165.438C46.0439 166.616 45.0848 167.575 43.9061 167.575C42.7273 167.575 41.7687 166.616 41.7687 165.438C41.7687 164.259 42.7273 163.3 43.9061 163.3Z" fill="#656565"/>
<path d="M51.2611 175.896C51.2611 177.611 52.6511 179.001 54.3659 179.001C56.0807 179.001 57.4707 177.611 57.4707 175.896C57.4707 174.182 56.0807 172.792 54.3659 172.792C52.6511 172.792 51.2611 174.182 51.2611 175.896Z" fill="#656565"/>
<path d="M54.3659 179.262C56.2224 179.262 57.7324 177.752 57.7324 175.896C57.7324 174.04 56.2224 172.53 54.3659 172.53C52.5099 172.53 50.9998 174.04 50.9998 175.896C50.9996 177.752 52.5099 179.262 54.3659 179.262ZM54.3659 173.053C55.9337 173.053 57.2095 174.328 57.2095 175.896C57.2095 177.464 55.9337 178.739 54.3659 178.739C52.798 178.739 51.5228 177.464 51.5228 175.896C51.5225 174.328 52.7978 173.053 54.3659 173.053Z" fill="#656565"/>
</svg>
