<svg width="93" height="36" viewBox="0 0 93 36" fill="none" xmlns="http://www.w3.org/2000/svg">
<path d="M18 35.8952C27.9411 35.8952 36 27.8598 36 17.9476C36 8.03542 27.9411 0 18 0C8.05887 0 0 8.03542 0 17.9476C0 27.8598 8.05887 35.8952 18 35.8952Z" fill="#8CC63E"/>
<path d="M28.8265 17.9545C28.8265 17.5642 28.541 17.2429 28.1673 17.1836L26.4532 10.0653C26.769 9.86256 26.98 9.50816 26.98 9.10549C26.98 8.47529 26.4698 7.96506 25.8396 7.96506C25.5844 7.96506 25.3486 8.05056 25.1597 8.19122L19.2921 4.80303C19.3169 4.70926 19.3321 4.60997 19.3321 4.50793C19.3321 3.87773 18.8219 3.3675 18.1917 3.3675C17.5615 3.3675 17.0512 3.87773 17.0512 4.50793C17.0512 4.6279 17.0705 4.74373 17.105 4.85267L10.2349 8.81866C10.028 8.53459 9.69292 8.34981 9.31508 8.34981C8.68488 8.34981 8.17465 8.86003 8.17465 9.49023C8.17465 9.89565 8.38702 10.2501 8.70418 10.4528L7.68787 17.2043C7.38863 17.3174 7.17488 17.607 7.17488 17.9462C7.17488 18.3185 7.43137 18.6302 7.77612 18.7157L9.14132 25.8906C8.80209 26.0878 8.57318 26.4546 8.57318 26.8752C8.57318 27.5054 9.08341 28.0156 9.71361 28.0156C10.119 28.0156 10.4748 27.8033 10.6761 27.4847L17.1229 30.9901C17.0774 31.1129 17.0512 31.2452 17.0512 31.3845C17.0512 32.0147 17.5615 32.5249 18.1917 32.5249C18.8219 32.5249 19.3321 32.0147 19.3321 31.3845C19.3321 31.2714 19.3155 31.1625 19.2852 31.0604L25.0866 27.7109C25.288 27.8888 25.5513 27.9991 25.8423 27.9991C26.4725 27.9991 26.9827 27.4889 26.9827 26.8587C26.9827 26.4546 26.7718 26.1002 26.4546 25.8975L28.1714 18.7226C28.5438 18.6633 28.8292 18.342 28.8292 17.9531L28.8265 17.9545ZM24.7626 20.2422C24.6578 20.143 24.5171 20.0823 24.3613 20.0823C24.0538 20.0823 23.8028 20.3209 23.7807 20.6228L21.0365 20.889C20.9524 20.6711 20.7414 20.5167 20.4932 20.5167C20.3222 20.5167 20.1691 20.5898 20.063 20.707L17.5146 19.5803C17.5546 19.4645 17.5766 19.3418 17.5766 19.2121C17.5766 18.9419 17.4829 18.695 17.3256 18.4992L19.3086 16.7368L27.2682 17.8828C27.2654 17.9062 27.2641 17.9311 27.2641 17.9559C27.2641 18.0593 27.2847 18.1572 27.3206 18.2482L24.7612 20.2436L24.7626 20.2422ZM24.7446 27.1786L18.9405 30.5295C18.8963 30.4909 18.8494 30.4551 18.7984 30.4234L20.7042 26.9731C20.7814 26.9966 20.8628 27.009 20.9483 27.009C21.4116 27.009 21.7853 26.6339 21.7853 26.1719C21.7853 26.0726 21.7674 25.9789 21.7357 25.8906L23.1616 25.1459C23.2553 25.2108 23.3684 25.248 23.4911 25.248C23.6042 25.248 23.709 25.2149 23.7973 25.1597L24.8798 26.2422C24.7653 26.4201 24.6978 26.6325 24.6978 26.86C24.6978 26.9704 24.7143 27.0765 24.7433 27.1786H24.7446ZM15.4364 18.6633L13.9071 18.4551L14.8959 16.4197C14.9193 16.4238 14.9428 16.4266 14.9676 16.4266C15.0255 16.4266 15.082 16.4142 15.1317 16.3935L15.1468 16.4114L15.3206 16.2625L15.3109 16.2514C15.3289 16.2252 15.3454 16.199 15.3592 16.1701L16.4941 16.3328L16.2997 18.0814C15.9274 18.1255 15.6102 18.3503 15.4364 18.6647V18.6633ZM8.73452 17.7504C8.68626 17.5601 8.56904 17.396 8.40908 17.2884L9.41161 10.6265C9.62397 10.6086 9.81979 10.5314 9.98251 10.4114L14.6021 15.7798C14.5635 15.8446 14.5387 15.9191 14.5387 16.0005C14.5387 16.1163 14.5856 16.2211 14.6614 16.2983L13.6327 18.4178L8.73314 17.7518L8.73452 17.7504ZM24.9804 9.85429L23.7724 11.385C23.6966 11.3477 23.6111 11.3257 23.5201 11.3257C23.3905 11.3257 23.2705 11.3698 23.1753 11.4429L21.7467 10.6182C21.7729 10.5355 21.7881 10.4486 21.7881 10.3562C21.7881 9.88876 21.4088 9.50954 20.9414 9.50954C20.8366 9.50954 20.7359 9.53023 20.6435 9.5647L18.8136 5.46495C18.8674 5.42909 18.9184 5.38911 18.9653 5.34636L24.7764 8.70145C24.7281 8.82694 24.7005 8.96346 24.7005 9.10687C24.7005 9.3937 24.8067 9.65433 24.9818 9.85429H24.9804ZM24.8356 16.2776L27.1579 17.618L19.5472 16.5231L20.1926 15.9494C20.2822 16.0087 20.3898 16.0432 20.5056 16.0432C20.7345 16.0432 20.9317 15.9081 21.0227 15.7122L23.851 15.9812C23.8924 16.2542 24.1282 16.4638 24.4137 16.4638C24.5805 16.4638 24.7308 16.3907 24.8356 16.2763V16.2776ZM17.1671 18.3365C17.094 18.2744 17.0112 18.2234 16.9244 18.182L17.1202 16.4211L19.0163 16.6941L17.1684 18.3365H17.1671ZM17.1464 16.1783L18.3158 5.64284C18.4192 5.63181 18.5185 5.60561 18.6109 5.56837L20.4422 9.67226C20.2312 9.8267 20.0933 10.0749 20.0933 10.3562C20.0933 10.6775 20.2726 10.9561 20.5359 11.1009L20.3774 14.9207C20.1236 14.9786 19.9347 15.2048 19.9347 15.4764C19.9347 15.5937 19.9706 15.7026 20.0312 15.7936L19.2535 16.4845L17.145 16.1811L17.1464 16.1783ZM23.9117 15.6254L21.0641 15.3551C21.0282 15.1896 20.9221 15.0503 20.7773 14.9731L20.9331 11.2029C20.9331 11.2029 20.9372 11.2029 20.94 11.2029C21.1717 11.2029 21.3813 11.1092 21.5343 10.9589L22.9602 11.7821C22.9533 11.8193 22.9492 11.8566 22.9492 11.8952C22.9492 12.1958 23.1822 12.4427 23.4787 12.4633L23.9545 15.5592C23.9393 15.5799 23.9241 15.6019 23.9117 15.6254ZM16.5203 16.0887L15.384 15.926C15.3592 15.7881 15.2682 15.675 15.1455 15.6171L17.4346 7.85337L16.5203 16.0901V16.0887ZM17.3932 19.8299L19.9292 20.951C19.9168 20.9979 19.9099 21.0476 19.9099 21.0986C19.9099 21.3799 20.1085 21.613 20.3718 21.6695L20.6725 25.3818C20.3456 25.4962 20.1112 25.8065 20.1112 26.1719C20.1112 26.4505 20.2477 26.6959 20.456 26.849L18.5474 30.3048C18.4757 30.2813 18.4013 30.2648 18.324 30.2551L16.8802 20.2616C17.0912 20.1719 17.2691 20.0202 17.3932 19.8299ZM23.447 24.0841C23.1464 24.1076 22.9092 24.3585 22.9092 24.6647C22.9092 24.7309 22.9202 24.7943 22.9409 24.8536L21.544 25.5831C21.4102 25.4479 21.2296 25.3569 21.0296 25.3376L20.7304 21.6309C20.889 21.5592 21.0103 21.4199 21.0558 21.2489L23.8676 20.9759C23.9076 21.0393 23.9586 21.0931 24.0193 21.1372L23.447 24.0841ZM27.5564 17.3464C27.5012 17.3919 27.4516 17.4443 27.4102 17.5022L24.9529 16.0832C24.9735 16.0239 24.986 15.9605 24.986 15.8957C24.986 15.5812 24.7308 15.3261 24.4164 15.3261C24.3861 15.3261 24.3571 15.3289 24.3282 15.3344L23.869 12.3489C23.88 12.3406 23.8897 12.3323 23.8993 12.3241L23.9517 12.3544L24.1517 12.0069L24.0869 11.9697C24.0896 11.9462 24.0924 11.9214 24.0924 11.8966C24.0924 11.7545 24.04 11.6249 23.9545 11.5242L25.1487 10.0101C25.3404 10.1577 25.5817 10.2473 25.8423 10.2473C25.8451 10.2473 25.8464 10.2473 25.8492 10.2473L27.5592 17.3477L27.5564 17.3464ZM17.2305 5.12296C17.3436 5.29809 17.5022 5.44013 17.6911 5.53253L17.5987 6.36957L14.8835 15.5826C14.8435 15.5909 14.8076 15.6047 14.7718 15.624L10.1549 10.2583C10.3397 10.0556 10.4541 9.78671 10.4541 9.49023C10.4541 9.34544 10.4265 9.20754 10.3769 9.07929L17.2319 5.12158L17.2305 5.12296ZM8.35944 18.6371C8.47665 18.5695 8.57456 18.4744 8.64489 18.3585L13.3528 18.9984L10.057 25.7886C9.94804 25.7541 9.8322 25.7348 9.71223 25.7348C9.71223 25.7348 9.71085 25.7348 9.70947 25.7348L8.35944 18.6343V18.6371ZM10.7892 27.2517C10.8306 27.1345 10.8527 27.009 10.8527 26.878C10.8527 26.4615 10.6279 26.0975 10.2942 25.8989L13.6244 19.037L15.2985 19.2645C15.3234 19.8079 15.7274 20.2505 16.2528 20.3346L17.7007 30.3572C17.5132 30.4468 17.3532 30.5861 17.2388 30.7585L10.7892 27.2503V27.2517ZM25.8396 25.7196C25.5376 25.7196 25.2645 25.8382 25.0604 26.0285L23.9945 24.9625C24.0469 24.8757 24.0772 24.7736 24.0772 24.6647C24.0772 24.4551 23.9655 24.2717 23.8 24.1682L24.3668 21.2475C24.6867 21.2448 24.946 20.9855 24.946 20.6642C24.946 20.598 24.9349 20.5346 24.9142 20.4753L27.4723 18.4813C27.4985 18.5102 27.5274 18.5378 27.5578 18.5626L25.8451 25.7196C25.8451 25.7196 25.8423 25.7196 25.8409 25.7196H25.8396Z" fill="white"/>
<path d="M54.8797 10.0417H54.4282V25.9661H54.8797V10.0417Z" fill="#848484"/>
<path d="M46.4516 10.0417H46.0001V25.9661H46.4516V10.0417Z" fill="#848484"/>
<path d="M54.872 16.8437H46.0237V17.3931H54.872V16.8437Z" fill="#848484"/>
<path d="M74.842 13.8916H69.6596V14.441H74.842V13.8916Z" fill="#848484"/>
<path d="M58.7701 13.872H58.2207V22.3354H58.7701V13.872Z" fill="#848484"/>
<path d="M67.6068 13.872H67.0573V22.3354H67.6068V13.872Z" fill="#848484"/>
<path d="M71.2218 9.77414H70.6723V22.4855H71.2218V9.77414Z" fill="#848484"/>
<path d="M87.6931 17.243C89.6874 17.243 91.3042 15.638 91.3042 13.658C91.3042 11.6781 89.6874 10.073 87.6931 10.073C85.6987 10.073 84.082 11.6781 84.082 13.658C84.082 15.638 85.6987 17.243 87.6931 17.243Z" stroke="#848484" stroke-width="0.7" stroke-miterlimit="10"/>
<path d="M87.6774 26.0718C90.1654 26.0718 92.1824 24.0887 92.1824 21.6424C92.1824 19.1961 90.1654 17.213 87.6774 17.213C85.1893 17.213 83.1723 19.1961 83.1723 21.6424C83.1723 24.0887 85.1893 26.0718 87.6774 26.0718Z" stroke="#848484" stroke-width="0.7" stroke-miterlimit="10"/>
<path d="M67.3288 22.3354C67.3875 24.477 65.2041 26.0705 62.8654 26.1201C60.5281 26.171 58.5574 24.3765 58.5039 22.3354" stroke="#848484" stroke-width="0.7" stroke-miterlimit="10"/>
<path d="M75.1736 25.8003C75.0078 25.9178 73.6897 26.2976 72.0701 24.9873C71.1122 24.2121 70.9556 23.262 70.9517 22.4972" stroke="#848484" stroke-width="0.7" stroke-miterlimit="10"/>
</svg>
