<svg width="46" height="492" viewBox="0 0 46 492" fill="none" xmlns="http://www.w3.org/2000/svg">
<path d="M23.373 44.415C35.689 44.7248 45.5781 54.8067 45.5781 67.1973C45.5781 79.5878 35.6889 89.6687 23.373 89.9785V222.049C35.6889 222.359 45.578 232.441 45.5781 244.831C45.5781 257.222 35.689 267.303 23.373 267.612V399.684C35.689 399.993 45.5781 410.075 45.5781 422.466C45.578 434.856 35.6889 444.937 23.373 445.247V492H21.373V445.209C9.44695 444.478 0.000129938 434.576 0 422.466C0 410.356 9.44686 400.453 21.373 399.722V267.574C9.44689 266.843 0 256.941 0 244.831C0.000155717 232.721 9.44694 222.818 21.373 222.087V89.9404C9.44691 89.2092 6.05059e-05 79.3074 0 67.1973C0 55.087 9.44686 45.1843 21.373 44.4531V0H23.373V44.415Z" fill="url(#paint0_linear_130_2590)"/>
<defs>
<linearGradient id="paint0_linear_130_2590" x1="22.7891" y1="-115.221" x2="22.7897" y2="1068.52" gradientUnits="userSpaceOnUse">
<stop stop-color="#E9FFD3"/>
<stop offset="1" stop-color="#66CC00"/>
</linearGradient>
</defs>
</svg>
