<svg width="197" height="687" viewBox="0 0 197 687" fill="none" xmlns="http://www.w3.org/2000/svg">
<g opacity="0.8">
<path d="M148.811 294.079H254.909C262.054 294.079 267.868 287.293 267.868 278.952V235.782C267.868 226.562 274.293 219.062 282.191 219.062H343.424C350.57 219.062 356.384 212.276 356.384 203.935V104.147C356.384 94.9279 362.809 87.4275 370.707 87.4275H511.058V89.0198H370.707C363.561 89.0198 357.748 95.8058 357.748 104.147V203.935C357.748 213.154 351.322 220.655 343.424 220.655H282.191C275.045 220.655 269.232 227.441 269.232 235.782V278.953C269.232 288.172 262.807 295.672 254.909 295.672H148.811C141.666 295.672 135.852 302.458 135.852 310.8V329.112C135.852 337.453 141.666 344.239 148.811 344.239H511.058V345.831H148.811C140.913 345.831 134.488 338.331 134.488 329.111V310.799C134.488 301.58 140.913 294.079 148.811 294.079Z" fill="#99C36B"/>
<path d="M346.455 135.552H438.003C445.148 135.552 450.962 128.766 450.962 120.424V7.5444H452.326V120.424C452.326 129.644 445.9 137.144 438.003 137.144H346.456C339.31 137.144 333.497 143.93 333.497 152.271V529.482C333.497 537.824 339.31 544.61 346.456 544.61H511.058V546.202H346.455C338.558 546.202 332.132 538.701 332.132 529.482V152.271C332.132 143.052 338.558 135.552 346.455 135.552Z" fill="#99C36B"/>
<path d="M187.142 27.6629V434.05C187.142 442.121 192.949 448.686 200.086 448.686H274.574C282.463 448.686 288.881 455.944 288.881 464.863V617.557C288.881 625.628 294.688 632.193 301.826 632.193H441.112C448.25 632.193 454.057 625.628 454.057 617.557V447.06C454.057 438.14 460.475 430.883 468.364 430.883H511.058V432.424H468.364C461.227 432.424 455.419 438.99 455.419 447.06V617.557C455.419 626.477 449.001 633.734 441.112 633.734H301.826C293.937 633.734 287.519 626.477 287.519 617.557V464.863C287.519 456.793 281.712 450.227 274.574 450.227H200.086C192.197 450.227 185.779 442.97 185.779 434.05V27.6629H187.142Z" fill="#99C36B"/>
<path d="M418.374 248.521V392.186C418.374 401.405 411.949 408.906 404.051 408.906H245.814C238.669 408.906 232.855 415.692 232.855 424.033V498.343C232.855 507.562 226.43 515.063 218.532 515.063H179.124C171.979 515.063 166.165 521.849 166.165 530.19V684.117H164.801V530.19C164.801 520.971 171.227 513.47 179.124 513.47H218.532C225.678 513.47 231.491 506.684 231.491 498.343V424.033C231.491 414.814 237.917 407.313 245.814 407.313H404.051C411.197 407.313 417.01 400.527 417.01 392.186V248.521C417.01 239.301 423.436 231.801 431.334 231.801H511.058V233.393H431.334C424.188 233.393 418.374 240.179 418.374 248.521Z" fill="#99C36B"/>
<path d="M429.287 7.5444V157.226C429.287 165.567 435.101 172.353 442.246 172.353H511.058V173.946H442.246C434.349 173.946 427.923 166.445 427.923 157.226V7.5444H429.287Z" fill="#99C36B"/>
<path d="M237.706 7.5444V52.4844C237.706 60.8257 243.519 67.6117 250.665 67.6117H339.787C346.932 67.6117 352.746 60.8257 352.746 52.4844V7.5444H354.11V52.4844C354.11 61.7037 347.684 69.2041 339.787 69.2041H250.665C242.767 69.2041 236.342 61.7037 236.342 52.4844V7.5444H237.706Z" fill="#99C36B"/>
<path d="M135.852 7.5444V175.626C135.852 183.968 141.666 190.754 148.811 190.754H223.383C230.528 190.754 236.342 183.968 236.342 175.626V170.672C236.342 161.453 242.767 153.952 250.665 153.952H277.947C285.845 153.952 292.27 161.453 292.27 170.672V243.566C292.27 252.786 285.845 260.286 277.947 260.286H232.477C225.331 260.286 219.517 267.072 219.517 275.414V365.293C219.517 374.512 213.092 382.012 205.194 382.012H160.937C153.791 382.012 147.978 388.798 147.978 397.14V460.834C147.978 469.175 153.791 475.961 160.937 475.961H511.058V477.554H160.936C153.039 477.554 146.613 470.053 146.613 460.834V397.14C146.613 387.921 153.039 380.42 160.936 380.42H205.194C212.34 380.42 218.153 373.634 218.153 365.293V275.414C218.153 266.194 224.579 258.694 232.477 258.694H277.947C285.093 258.694 290.906 251.908 290.906 243.566V170.672C290.906 162.331 285.093 155.545 277.947 155.545H250.665C243.519 155.545 237.706 162.331 237.706 170.672V175.626C237.706 184.845 231.281 192.346 223.383 192.346H148.811C140.913 192.346 134.488 184.845 134.488 175.626V7.5444H135.852Z" fill="#99C36B"/>
<path d="M389.501 185.092H511.058V186.684H389.501C382.355 186.684 376.542 193.47 376.542 201.812V276.121C376.542 284.463 382.355 291.249 389.501 291.249H511.058V292.841H389.501C381.603 292.841 375.178 285.341 375.178 276.121V201.812C375.178 192.592 381.603 185.092 389.501 185.092Z" fill="#99C36B"/>
<path d="M424.316 605.367V633.641C424.316 641.477 417.882 647.853 409.973 647.853H263.657C255.749 647.853 249.314 641.477 249.314 633.641V581.304C249.314 574.214 243.493 568.445 236.337 568.445H139.806C132.65 568.445 126.828 574.214 126.828 581.304V666.427H125.462V581.304C125.462 573.467 131.897 567.091 139.806 567.091H236.337C244.246 567.091 250.68 573.467 250.68 581.304V633.64C250.68 640.731 256.502 646.499 263.657 646.499H409.973C417.129 646.499 422.95 640.731 422.95 633.64V605.366C422.95 597.53 429.384 591.154 437.293 591.154H511.058V592.508H437.293C430.138 592.508 424.316 598.276 424.316 605.367Z" fill="#99C36B"/>
<path d="M511.058 260.286H474.076C466.93 260.286 461.116 267.072 461.116 275.413V370.955C461.116 379.296 466.93 386.082 474.076 386.082H511.058V387.674H474.076C466.178 387.674 459.752 380.174 459.752 370.955V275.413C459.752 266.194 466.178 258.694 474.076 258.694H511.058V260.286Z" fill="#99C36B"/>
<path d="M362.598 462.25V684.118H361.234V462.25C361.234 453.031 367.659 445.531 375.557 445.531H511.058V447.123H375.557C368.411 447.123 362.598 453.909 362.598 462.25Z" fill="#99C36B"/>
<path d="M216.94 684.117V637.762C216.94 629.421 211.127 622.635 203.981 622.635H41.8038V621.043H203.981C211.879 621.043 218.304 628.543 218.304 637.762V684.117H216.94Z" fill="#99C36B"/>
<path d="M216.94 82.2078V7.5444H218.304V82.2078C218.304 91.4271 211.879 98.9275 203.981 98.9275H64.842V97.3352H203.981C211.127 97.3352 216.94 90.5492 216.94 82.2078Z" fill="#99C36B"/>
<path d="M212.091 200.706V140.948C212.091 131.729 218.516 124.228 226.414 124.228H284.01C287.453 124.228 290.659 122.653 293.04 119.794C295.419 116.934 296.675 113.147 296.576 109.131C296.568 108.803 295.761 75.9208 295.408 42.9435C295.251 28.2455 295.215 16.6702 295.262 7.5444H296.62C296.482 36.1431 297.159 77.5088 297.94 109.085C298.05 113.536 296.657 117.733 294.018 120.904C291.379 124.075 287.825 125.821 284.01 125.821H226.414C219.269 125.821 213.455 132.607 213.455 140.948V200.706C213.455 209.925 207.03 217.426 199.132 217.426H95.1559V215.833H199.132C206.278 215.833 212.091 209.047 212.091 200.706Z" fill="#99C36B"/>
<path d="M158.569 252.26V64.1278H159.929V252.26C159.929 259.458 153.522 265.313 145.646 265.313H27.4478V264.07H145.646C152.771 264.07 158.569 258.772 158.569 252.26Z" fill="#99C36B"/>
<path d="M102.432 647.566V400.751C102.432 393.433 96.618 387.479 89.4725 387.479H27.2537V386.082H89.4725C97.37 386.082 103.796 392.663 103.796 400.751V647.566H102.432Z" fill="#99C36B"/>
<path d="M57.2639 328.049C65.1614 328.049 71.5871 335.55 71.5871 344.769V434.648C71.5871 442.99 77.4006 449.776 84.5461 449.776H121.529C129.427 449.776 135.852 457.277 135.852 466.495V518.158C135.852 527.377 129.427 534.878 121.529 534.878H89.3962C82.2507 534.878 76.4372 541.664 76.4372 550.005V684.117H75.0731V550.006C75.0731 540.787 81.4987 533.286 89.3962 533.286H121.529C128.674 533.286 134.488 526.5 134.488 518.159V466.496C134.488 458.155 128.674 451.368 121.529 451.368H84.5461C76.6486 451.368 70.223 443.868 70.223 434.649V344.769C70.223 336.427 64.4095 329.641 57.2639 329.641H3.00333V328.049H57.2639Z" fill="#99C36B"/>
<path d="M144.42 345.035C144.42 347.866 146.386 350.161 148.811 350.161C151.237 350.161 153.203 347.866 153.203 345.035C153.203 342.204 151.237 339.908 148.811 339.908C146.386 339.908 144.42 342.204 144.42 345.035Z" fill="#99C36B"/>
<path d="M148.811 350.559C151.42 350.559 153.544 348.081 153.544 345.034C153.544 341.989 151.42 339.51 148.811 339.51C146.202 339.51 144.079 341.988 144.079 345.034C144.079 348.081 146.202 350.559 148.811 350.559ZM148.811 340.306C151.044 340.306 152.861 342.428 152.861 345.034C152.861 347.641 151.044 349.762 148.811 349.762C146.578 349.762 144.761 347.641 144.761 345.034C144.761 342.428 146.578 340.306 148.811 340.306Z" fill="#99C36B"/>
<path d="M132.271 329.111C132.271 330.98 133.569 332.495 135.17 332.495C136.771 332.495 138.069 330.98 138.069 329.111C138.069 327.242 136.771 325.727 135.17 325.727C133.569 325.727 132.271 327.242 132.271 329.111Z" fill="#99C36B"/>
<path d="M135.17 332.893C136.956 332.893 138.41 331.197 138.41 329.111C138.41 327.025 136.956 325.329 135.17 325.329C133.383 325.329 131.93 327.025 131.93 329.111C131.93 331.197 133.383 332.893 135.17 332.893ZM135.17 326.125C136.58 326.125 137.728 327.464 137.728 329.111C137.728 330.757 136.58 332.097 135.17 332.097C133.759 332.097 132.612 330.757 132.612 329.111C132.612 327.464 133.759 326.125 135.17 326.125Z" fill="#99C36B"/>
<path d="M130.849 310.799C130.849 313.585 132.784 315.843 135.17 315.843C137.557 315.843 139.492 313.585 139.492 310.799C139.492 308.013 137.557 305.755 135.17 305.755C132.784 305.755 130.849 308.013 130.849 310.799Z" fill="#99C36B"/>
<path d="M135.17 316.241C137.741 316.241 139.832 313.8 139.832 310.799C139.832 307.798 137.741 305.357 135.17 305.357C132.599 305.357 130.508 307.798 130.508 310.799C130.508 313.8 132.599 316.241 135.17 316.241ZM135.17 306.153C137.365 306.153 139.15 308.237 139.15 310.799C139.15 313.361 137.365 315.445 135.17 315.445C132.975 315.445 131.19 313.361 131.19 310.799C131.19 308.237 132.975 306.153 135.17 306.153Z" fill="#99C36B"/>
<path d="M144.561 294.876C144.561 297.615 146.464 299.837 148.811 299.837C151.158 299.837 153.061 297.615 153.061 294.876C153.061 292.136 151.158 289.915 148.811 289.915C146.464 289.914 144.561 292.136 144.561 294.876Z" fill="#99C36B"/>
<path d="M148.811 300.235C151.342 300.235 153.402 297.831 153.402 294.876C153.402 291.922 151.342 289.517 148.811 289.517C146.279 289.517 144.22 291.922 144.22 294.876C144.22 297.831 146.279 300.235 148.811 300.235ZM148.811 290.313C150.966 290.313 152.72 292.36 152.72 294.876C152.72 297.392 150.966 299.439 148.811 299.439C146.656 299.439 144.902 297.392 144.902 294.876C144.902 292.36 146.656 290.313 148.811 290.313Z" fill="#99C36B"/>
<path d="M251.666 294.876C251.666 296.967 253.118 298.662 254.909 298.662C256.701 298.662 258.153 296.967 258.153 294.876C258.153 292.785 256.701 291.09 254.909 291.09C253.118 291.09 251.666 292.785 251.666 294.876Z" fill="#99C36B"/>
<path d="M254.909 299.06C256.885 299.06 258.493 297.183 258.493 294.876C258.493 292.569 256.885 290.691 254.909 290.691C252.932 290.691 251.324 292.569 251.324 294.876C251.324 297.183 252.932 299.06 254.909 299.06ZM254.909 291.487C256.509 291.487 257.811 293.007 257.811 294.876C257.811 296.744 256.509 298.264 254.909 298.264C253.308 298.264 252.006 296.744 252.006 294.876C252.006 293.007 253.308 291.487 254.909 291.487Z" fill="#99C36B"/>
<path d="M268.549 284.104C266.112 284.104 264.136 281.798 264.136 278.952C264.136 276.107 266.112 273.8 268.549 273.8C270.987 273.8 272.963 276.107 272.963 278.952C272.963 281.798 270.987 284.104 268.549 284.104Z" fill="#99C36B"/>
<path d="M268.55 284.502C271.171 284.502 273.304 282.012 273.304 278.952C273.304 275.891 271.171 273.402 268.55 273.402C265.928 273.402 263.796 275.892 263.796 278.952C263.796 282.012 265.928 284.502 268.55 284.502ZM268.55 274.198C270.795 274.198 272.622 276.331 272.622 278.952C272.622 281.574 270.795 283.706 268.55 283.706C266.304 283.706 264.478 281.573 264.478 278.952C264.478 276.33 266.304 274.198 268.55 274.198Z" fill="#99C36B"/>
<path d="M268.549 240.266C266.428 240.266 264.708 238.258 264.708 235.782C264.708 233.305 266.428 231.298 268.549 231.298C270.671 231.298 272.391 233.305 272.391 235.782C272.391 238.258 270.671 240.266 268.549 240.266Z" fill="#99C36B"/>
<path d="M268.55 240.663C270.856 240.663 272.732 238.473 272.732 235.781C272.732 233.089 270.856 230.899 268.55 230.899C266.243 230.899 264.368 233.089 264.368 235.781C264.368 238.474 266.243 240.663 268.55 240.663ZM268.55 231.696C270.48 231.696 272.05 233.529 272.05 235.781C272.05 238.034 270.48 239.867 268.55 239.867C266.62 239.867 265.05 238.034 265.05 235.781C265.05 233.529 266.62 231.696 268.55 231.696Z" fill="#99C36B"/>
<path d="M279.171 219.858C279.171 221.805 280.523 223.384 282.191 223.384C283.859 223.384 285.212 221.805 285.212 219.858C285.212 217.911 283.859 216.332 282.191 216.332C280.523 216.332 279.171 217.911 279.171 219.858Z" fill="#99C36B"/>
<path d="M282.191 223.782C284.045 223.782 285.553 222.022 285.553 219.858C285.553 217.694 284.045 215.934 282.191 215.934C280.338 215.934 278.83 217.694 278.83 219.858C278.83 222.022 280.338 223.782 282.191 223.782ZM282.191 216.73C283.669 216.73 284.871 218.133 284.871 219.858C284.871 221.583 283.669 222.986 282.191 222.986C280.714 222.986 279.512 221.583 279.512 219.858C279.512 218.133 280.714 216.73 282.191 216.73Z" fill="#99C36B"/>
<path d="M339.573 219.858C339.573 222.341 341.297 224.354 343.424 224.354C345.551 224.354 347.276 222.341 347.276 219.858C347.276 217.375 345.552 215.362 343.424 215.362C341.297 215.362 339.573 217.375 339.573 219.858Z" fill="#99C36B"/>
<path d="M343.424 224.752C345.736 224.752 347.617 222.557 347.617 219.858C347.617 217.159 345.736 214.964 343.424 214.964C341.112 214.964 339.232 217.159 339.232 219.858C339.232 222.557 341.112 224.752 343.424 224.752ZM343.424 215.76C345.36 215.76 346.934 217.598 346.934 219.858C346.934 222.118 345.36 223.956 343.424 223.956C341.489 223.956 339.914 222.118 339.914 219.858C339.914 217.599 341.489 215.76 343.424 215.76Z" fill="#99C36B"/>
<path d="M354.443 203.934C354.443 205.625 355.617 206.996 357.066 206.996C358.515 206.996 359.689 205.625 359.689 203.934C359.689 202.243 358.515 200.872 357.066 200.872C355.617 200.872 354.443 202.243 354.443 203.934Z" fill="#99C36B"/>
<path d="M357.066 207.395C358.7 207.395 360.03 205.843 360.03 203.935C360.03 202.027 358.7 200.474 357.066 200.474C355.431 200.474 354.102 202.026 354.102 203.935C354.101 205.843 355.431 207.395 357.066 207.395ZM357.066 201.271C358.324 201.271 359.348 202.466 359.348 203.935C359.348 205.403 358.324 206.598 357.066 206.598C355.807 206.598 354.784 205.403 354.784 203.935C354.783 202.466 355.807 201.271 357.066 201.271Z" fill="#99C36B"/>
<path d="M352.98 104.147C352.98 106.781 354.809 108.915 357.065 108.915C359.321 108.915 361.15 106.78 361.15 104.147C361.15 101.513 359.321 99.3781 357.065 99.3781C354.809 99.3781 352.98 101.513 352.98 104.147Z" fill="#99C36B"/>
<path d="M357.065 109.314C359.506 109.314 361.492 106.996 361.492 104.147C361.492 101.298 359.506 98.9801 357.065 98.9801C354.625 98.9801 352.639 101.298 352.639 104.147C352.639 106.996 354.625 109.314 357.065 109.314ZM357.065 99.7764C359.13 99.7764 360.81 101.737 360.81 104.147C360.81 106.557 359.13 108.517 357.065 108.517C355.001 108.517 353.321 106.557 353.321 104.147C353.321 101.737 355.001 99.7764 357.065 99.7764Z" fill="#99C36B"/>
<path d="M366.687 88.2239C366.687 90.8152 368.487 92.9162 370.707 92.9162C372.927 92.9162 374.727 90.8152 374.727 88.2239C374.727 85.6327 372.927 83.5317 370.707 83.5317C368.487 83.5317 366.687 85.6323 366.687 88.2239Z" fill="#99C36B"/>
<path d="M370.707 93.3143C373.111 93.3143 375.067 91.0307 375.067 88.2241C375.067 85.4171 373.111 83.1339 370.707 83.1339C368.302 83.1339 366.346 85.4171 366.346 88.2241C366.346 91.0307 368.302 93.3143 370.707 93.3143ZM370.707 83.9302C372.735 83.9302 374.385 85.8565 374.385 88.2241C374.385 90.5921 372.735 92.5183 370.707 92.5183C368.678 92.5183 367.028 90.5921 367.028 88.2241C367.028 85.8565 368.678 83.9302 370.707 83.9302Z" fill="#99C36B"/>
<path d="M342.018 545.406C342.018 548.266 344.005 550.585 346.455 550.585C348.905 550.585 350.892 548.266 350.892 545.406C350.892 542.546 348.905 540.227 346.455 540.227C344.005 540.227 342.018 542.545 342.018 545.406Z" fill="#99C36B"/>
<path d="M346.456 550.983C349.09 550.983 351.233 548.481 351.233 545.406C351.233 542.331 349.09 539.829 346.456 539.829C343.821 539.829 341.678 542.331 341.678 545.406C341.678 548.481 343.821 550.983 346.456 550.983ZM346.456 540.625C348.714 540.625 350.551 542.769 350.551 545.406C350.551 548.042 348.714 550.187 346.456 550.187C344.197 550.187 342.36 548.042 342.36 545.406C342.36 542.769 344.197 540.625 346.456 540.625Z" fill="#99C36B"/>
<path d="M329.285 529.482C329.285 531.758 330.865 533.603 332.815 533.603C334.765 533.603 336.345 531.758 336.345 529.482C336.345 527.207 334.765 525.362 332.815 525.362C330.865 525.362 329.285 527.207 329.285 529.482Z" fill="#99C36B"/>
<path d="M332.814 534.001C334.949 534.001 336.686 531.974 336.686 529.482C336.686 526.99 334.949 524.963 332.814 524.963C330.679 524.963 328.943 526.99 328.943 529.482C328.943 531.974 330.68 534.001 332.814 534.001ZM332.814 525.76C334.573 525.76 336.003 527.43 336.003 529.482C336.003 531.535 334.573 533.205 332.814 533.205C331.056 533.205 329.625 531.535 329.625 529.482C329.625 527.43 331.056 525.76 332.814 525.76Z" fill="#99C36B"/>
<path d="M329.229 152.271C329.229 154.583 330.834 156.457 332.815 156.457C334.795 156.457 336.4 154.583 336.4 152.271C336.4 149.96 334.795 148.086 332.815 148.086C330.834 148.086 329.229 149.96 329.229 152.271Z" fill="#99C36B"/>
<path d="M332.814 156.855C334.98 156.855 336.741 154.799 336.741 152.271C336.741 149.745 334.98 147.688 332.814 147.688C330.649 147.688 328.888 149.744 328.888 152.271C328.888 154.799 330.65 156.855 332.814 156.855ZM332.814 148.485C334.603 148.485 336.059 150.184 336.059 152.271C336.059 154.36 334.603 156.059 332.814 156.059C331.025 156.059 329.57 154.36 329.57 152.271C329.57 150.184 331.025 148.485 332.814 148.485Z" fill="#99C36B"/>
<path d="M346.455 140.116C344.673 140.116 343.227 138.429 343.227 136.348C343.227 134.267 344.673 132.58 346.455 132.58C348.238 132.58 349.683 134.267 349.683 136.348C349.683 138.429 348.238 140.116 346.455 140.116Z" fill="#99C36B"/>
<path d="M346.456 140.514C348.424 140.514 350.025 138.645 350.025 136.348C350.025 134.05 348.424 132.182 346.456 132.182C344.488 132.182 342.887 134.05 342.887 136.348C342.887 138.645 344.488 140.514 346.456 140.514ZM346.456 132.978C348.048 132.978 349.343 134.49 349.343 136.348C349.343 138.206 348.048 139.718 346.456 139.718C344.864 139.718 343.569 138.206 343.569 136.348C343.569 134.49 344.864 132.978 346.456 132.978Z" fill="#99C36B"/>
<path d="M438.003 139.474C436.523 139.474 435.324 138.075 435.324 136.348C435.324 134.622 436.523 133.222 438.003 133.222C439.482 133.222 440.681 134.622 440.681 136.348C440.681 138.075 439.482 139.474 438.003 139.474Z" fill="#99C36B"/>
<path d="M438.003 139.872C439.668 139.872 441.022 138.291 441.022 136.348C441.022 134.405 439.668 132.824 438.003 132.824C436.338 132.824 434.984 134.405 434.984 136.348C434.983 138.291 436.338 139.872 438.003 139.872ZM438.003 133.62C439.292 133.62 440.34 134.844 440.34 136.348C440.34 137.852 439.292 139.076 438.003 139.076C436.714 139.076 435.666 137.852 435.666 136.348C435.665 134.844 436.714 133.62 438.003 133.62Z" fill="#99C36B"/>
<path d="M451.644 125.447C449.267 125.447 447.341 123.199 447.341 120.425C447.341 117.651 449.267 115.403 451.644 115.403C454.02 115.403 455.946 117.651 455.946 120.425C455.946 123.199 454.02 125.447 451.644 125.447Z" fill="#99C36B"/>
<path d="M451.644 125.845C454.204 125.845 456.287 123.413 456.287 120.424C456.287 117.435 454.204 115.004 451.644 115.004C449.083 115.004 447.001 117.435 447.001 120.424C447.001 123.413 449.083 125.845 451.644 125.845ZM451.644 115.8C453.828 115.8 455.605 117.875 455.605 120.424C455.605 122.974 453.828 125.048 451.644 125.048C449.46 125.048 447.683 122.974 447.683 120.424C447.683 117.875 449.46 115.8 451.644 115.8Z" fill="#99C36B"/>
<path d="M182.507 427.572C182.507 429.886 184.114 431.762 186.097 431.762C188.079 431.762 189.687 429.886 189.687 427.572C189.687 425.257 188.079 423.381 186.097 423.381C184.114 423.381 182.507 425.257 182.507 427.572Z" fill="#99C36B"/>
<path d="M186.097 432.16C188.264 432.16 190.028 430.102 190.028 427.572C190.028 425.042 188.264 422.983 186.097 422.983C183.929 422.983 182.166 425.042 182.166 427.572C182.166 430.102 183.929 432.16 186.097 432.16ZM186.097 423.779C187.888 423.779 189.346 425.48 189.346 427.572C189.346 429.663 187.888 431.364 186.097 431.364C184.305 431.364 182.848 429.663 182.848 427.572C182.848 425.48 184.305 423.779 186.097 423.779Z" fill="#99C36B"/>
<path d="M196.205 443.495C196.205 445.773 197.787 447.619 199.738 447.619C201.689 447.619 203.271 445.773 203.271 443.495C203.271 441.217 201.689 439.371 199.738 439.371C197.786 439.37 196.205 441.217 196.205 443.495Z" fill="#99C36B"/>
<path d="M199.737 448.018C201.874 448.018 203.611 445.989 203.611 443.496C203.611 441.002 201.873 438.973 199.737 438.973C197.601 438.973 195.863 441.002 195.863 443.496C195.863 445.989 197.601 448.018 199.737 448.018ZM199.737 439.769C201.497 439.769 202.929 441.44 202.929 443.495C202.929 445.55 201.497 447.221 199.737 447.221C197.977 447.221 196.545 445.55 196.545 443.495C196.545 441.441 197.977 439.769 199.737 439.769Z" fill="#99C36B"/>
<path d="M269.518 443.495C269.518 446.584 271.664 449.089 274.31 449.089C276.956 449.089 279.101 446.584 279.101 443.495C279.101 440.406 276.956 437.902 274.31 437.902C271.663 437.902 269.518 440.406 269.518 443.495Z" fill="#99C36B"/>
<path d="M274.309 449.486C277.139 449.486 279.442 446.799 279.442 443.495C279.442 440.192 277.139 437.504 274.309 437.504C271.479 437.504 269.177 440.192 269.177 443.495C269.177 446.799 271.479 449.486 274.309 449.486ZM274.309 438.3C276.763 438.3 278.76 440.631 278.76 443.495C278.76 446.36 276.763 448.69 274.309 448.69C271.855 448.69 269.859 446.36 269.859 443.495C269.859 440.631 271.855 438.3 274.309 438.3Z" fill="#99C36B"/>
<path d="M284.158 459.418C284.158 461.863 285.856 463.846 287.95 463.846C290.045 463.846 291.743 461.864 291.743 459.418C291.743 456.974 290.045 454.991 287.95 454.991C285.856 454.991 284.158 456.974 284.158 459.418Z" fill="#99C36B"/>
<path d="M287.951 464.244C290.23 464.244 292.084 462.08 292.084 459.419C292.084 456.758 290.23 454.594 287.951 454.594C285.671 454.594 283.817 456.758 283.817 459.419C283.817 462.08 285.671 464.244 287.951 464.244ZM287.951 455.39C289.854 455.39 291.402 457.197 291.402 459.419C291.402 461.641 289.854 463.448 287.951 463.448C286.047 463.448 284.499 461.641 284.499 459.419C284.499 457.197 286.047 455.39 287.951 455.39Z" fill="#99C36B"/>
<path d="M284.486 617.239C284.486 619.472 286.037 621.283 287.951 621.283C289.864 621.283 291.415 619.472 291.415 617.239C291.415 615.005 289.864 613.194 287.951 613.194C286.037 613.194 284.486 615.005 284.486 617.239Z" fill="#99C36B"/>
<path d="M287.951 621.681C290.049 621.681 291.756 619.688 291.756 617.238C291.756 614.788 290.049 612.795 287.951 612.795C285.852 612.795 284.145 614.788 284.145 617.238C284.145 619.688 285.852 621.681 287.951 621.681ZM287.951 613.591C289.673 613.591 291.074 615.227 291.074 617.238C291.074 619.248 289.673 620.885 287.951 620.885C286.228 620.885 284.827 619.249 284.827 617.238C284.827 615.228 286.228 613.591 287.951 613.591Z" fill="#99C36B"/>
<path d="M298.864 633.162C298.864 634.92 300.085 636.345 301.591 636.345C303.098 636.345 304.319 634.92 304.319 633.162C304.319 631.404 303.098 629.979 301.591 629.979C300.085 629.978 298.864 631.404 298.864 633.162Z" fill="#99C36B"/>
<path d="M301.591 636.744C303.283 636.744 304.659 635.137 304.659 633.162C304.659 631.187 303.283 629.581 301.591 629.581C299.899 629.581 298.523 631.187 298.523 633.162C298.523 635.137 299.899 636.744 301.591 636.744ZM301.591 630.377C302.907 630.377 303.977 631.626 303.977 633.162C303.977 634.698 302.907 635.948 301.591 635.948C300.276 635.948 299.205 634.698 299.205 633.162C299.205 631.626 300.275 630.377 301.591 630.377Z" fill="#99C36B"/>
<path d="M436.939 633.162C436.939 635.802 438.772 637.942 441.034 637.942C443.295 637.942 445.128 635.802 445.128 633.162C445.128 630.522 443.295 628.383 441.034 628.383C438.772 628.382 436.939 630.522 436.939 633.162Z" fill="#99C36B"/>
<path d="M441.034 638.339C443.48 638.339 445.47 636.017 445.47 633.162C445.47 630.307 443.48 627.984 441.034 627.984C438.588 627.984 436.599 630.307 436.599 633.162C436.599 636.016 438.588 638.339 441.034 638.339ZM441.034 628.78C443.104 628.78 444.788 630.746 444.788 633.162C444.788 635.577 443.104 637.543 441.034 637.543C438.965 637.543 437.281 635.577 437.281 633.162C437.281 630.746 438.964 628.78 441.034 628.78Z" fill="#99C36B"/>
<path d="M451.186 617.238C451.186 619.487 452.748 621.311 454.675 621.311C456.602 621.311 458.164 619.487 458.164 617.238C458.164 614.989 456.602 613.165 454.675 613.165C452.748 613.166 451.186 614.989 451.186 617.238Z" fill="#99C36B"/>
<path d="M454.675 621.708C456.787 621.708 458.505 619.703 458.505 617.237C458.505 614.772 456.787 612.767 454.675 612.767C452.563 612.767 450.845 614.772 450.845 617.237C450.845 619.703 452.563 621.708 454.675 621.708ZM454.675 613.563C456.411 613.563 457.823 615.212 457.823 617.238C457.823 619.264 456.41 620.912 454.675 620.912C452.939 620.912 451.527 619.264 451.527 617.238C451.527 615.212 452.939 613.563 454.675 613.563Z" fill="#99C36B"/>
<path d="M449.863 441.018C449.863 444.12 452.018 446.635 454.675 446.635C457.332 446.635 459.486 444.12 459.486 441.018C459.486 437.916 457.332 435.401 454.675 435.401C452.018 435.401 449.863 437.916 449.863 441.018Z" fill="#99C36B"/>
<path d="M454.675 447.033C457.516 447.033 459.827 444.335 459.827 441.018C459.827 437.701 457.516 435.003 454.675 435.003C451.834 435.003 449.522 437.701 449.522 441.018C449.522 444.335 451.833 447.033 454.675 447.033ZM454.675 435.799C457.14 435.799 459.145 438.14 459.145 441.018C459.145 443.895 457.14 446.237 454.675 446.237C452.209 446.237 450.204 443.896 450.204 441.018C450.204 438.14 452.209 435.799 454.675 435.799Z" fill="#99C36B"/>
<path d="M465.452 425.095C465.452 426.942 466.734 428.438 468.316 428.438C469.898 428.438 471.18 426.942 471.18 425.095C471.18 423.248 469.898 421.751 468.316 421.751C466.734 421.752 465.452 423.249 465.452 425.095Z" fill="#99C36B"/>
<path d="M468.317 428.836C470.084 428.836 471.522 427.157 471.522 425.095C471.522 423.032 470.084 421.353 468.317 421.353C466.549 421.353 465.111 423.032 465.111 425.095C465.111 427.157 466.549 428.836 468.317 428.836ZM468.317 422.15C469.708 422.15 470.84 423.47 470.84 425.095C470.84 426.719 469.708 428.04 468.317 428.04C466.926 428.04 465.793 426.719 465.793 425.095C465.793 423.47 466.925 422.15 468.317 422.15Z" fill="#99C36B"/>
<path d="M161.175 530.19C161.175 532.967 163.104 535.219 165.483 535.219C167.863 535.219 169.792 532.967 169.792 530.19C169.792 527.412 167.863 525.161 165.483 525.161C163.104 525.161 161.175 527.412 161.175 530.19Z" fill="#99C36B"/>
<path d="M165.484 535.617C168.047 535.617 170.133 533.182 170.133 530.19C170.133 527.197 168.048 524.763 165.484 524.763C162.92 524.763 160.835 527.197 160.835 530.19C160.835 533.182 162.92 535.617 165.484 535.617ZM165.484 525.559C167.671 525.559 169.451 527.636 169.451 530.19C169.451 532.743 167.671 534.821 165.484 534.821C163.296 534.821 161.517 532.743 161.517 530.19C161.517 527.636 163.296 525.559 165.484 525.559Z" fill="#99C36B"/>
<path d="M176.269 514.266C176.269 516.107 177.548 517.599 179.125 517.599C180.701 517.599 181.98 516.107 181.98 514.266C181.98 512.426 180.701 510.933 179.125 510.933C177.548 510.933 176.269 512.426 176.269 514.266Z" fill="#99C36B"/>
<path d="M179.125 517.998C180.887 517.998 182.321 516.324 182.321 514.266C182.321 512.209 180.887 510.535 179.125 510.535C177.362 510.535 175.929 512.209 175.929 514.266C175.928 516.323 177.362 517.998 179.125 517.998ZM179.125 511.331C180.511 511.331 181.639 512.647 181.639 514.266C181.639 515.885 180.511 517.201 179.125 517.201C177.738 517.201 176.611 515.885 176.611 514.266C176.611 512.647 177.738 511.331 179.125 511.331Z" fill="#99C36B"/>
<path d="M214.822 514.267C214.822 516.658 216.483 518.597 218.532 518.597C220.581 518.597 222.242 516.658 222.242 514.267C222.242 511.875 220.581 509.936 218.532 509.936C216.483 509.936 214.822 511.875 214.822 514.267Z" fill="#99C36B"/>
<path d="M218.532 518.995C220.766 518.995 222.583 516.874 222.583 514.266C222.583 511.659 220.766 509.537 218.532 509.537C216.298 509.537 214.481 511.659 214.481 514.266C214.481 516.874 216.298 518.995 218.532 518.995ZM218.532 510.334C220.389 510.334 221.901 512.098 221.901 514.266C221.901 516.435 220.389 518.199 218.532 518.199C216.675 518.199 215.163 516.435 215.163 514.266C215.163 512.098 216.675 510.334 218.532 510.334Z" fill="#99C36B"/>
<path d="M229.491 498.343C229.491 500.072 230.692 501.474 232.174 501.474C233.655 501.474 234.856 500.072 234.856 498.343C234.856 496.614 233.655 495.212 232.174 495.212C230.693 495.212 229.491 496.614 229.491 498.343Z" fill="#99C36B"/>
<path d="M232.173 501.872C233.841 501.872 235.196 500.289 235.196 498.343C235.196 496.397 233.84 494.813 232.173 494.813C230.506 494.813 229.15 496.397 229.15 498.343C229.15 500.289 230.506 501.872 232.173 501.872ZM232.173 495.61C233.464 495.61 234.514 496.836 234.514 498.343C234.514 499.85 233.464 501.076 232.173 501.076C230.882 501.076 229.832 499.85 229.832 498.343C229.832 496.836 230.882 495.61 232.173 495.61Z" fill="#99C36B"/>
<path d="M228.227 424.033C228.227 426.578 229.994 428.64 232.173 428.64C234.353 428.64 236.12 426.578 236.12 424.033C236.12 421.489 234.353 419.427 232.173 419.427C229.994 419.426 228.227 421.489 228.227 424.033Z" fill="#99C36B"/>
<path d="M232.174 429.038C234.538 429.038 236.461 426.793 236.461 424.033C236.461 421.274 234.538 419.028 232.174 419.028C229.81 419.028 227.886 421.274 227.886 424.033C227.886 426.793 229.81 429.038 232.174 429.038ZM232.174 419.825C234.162 419.825 235.779 421.712 235.779 424.034C235.779 426.355 234.162 428.242 232.174 428.242C230.186 428.242 228.569 426.355 228.569 424.034C228.569 421.712 230.186 419.825 232.174 419.825Z" fill="#99C36B"/>
<path d="M242.898 408.109C242.898 409.989 244.204 411.513 245.814 411.513C247.425 411.513 248.73 409.989 248.73 408.109C248.73 406.229 247.425 404.705 245.814 404.705C244.204 404.705 242.898 406.229 242.898 408.109Z" fill="#99C36B"/>
<path d="M245.814 411.912C247.61 411.912 249.072 410.206 249.072 408.11C249.072 406.013 247.61 404.307 245.814 404.307C244.018 404.307 242.557 406.013 242.557 408.11C242.557 410.206 244.018 411.912 245.814 411.912ZM245.814 405.103C247.234 405.103 248.39 406.452 248.39 408.11C248.39 409.767 247.234 411.116 245.814 411.116C244.394 411.116 243.239 409.767 243.239 408.11C243.239 406.452 244.394 405.103 245.814 405.103Z" fill="#99C36B"/>
<path d="M400.29 408.109C400.29 410.535 401.974 412.501 404.052 412.501C406.13 412.501 407.814 410.535 407.814 408.109C407.814 405.684 406.13 403.718 404.052 403.718C401.974 403.718 400.29 405.684 400.29 408.109Z" fill="#99C36B"/>
<path d="M404.052 412.9C406.314 412.9 408.155 410.752 408.155 408.111C408.155 405.47 406.314 403.32 404.052 403.32C401.789 403.32 399.949 405.47 399.949 408.111C399.949 410.752 401.789 412.9 404.052 412.9ZM404.052 404.116C405.938 404.116 407.473 405.907 407.473 408.11C407.473 410.312 405.938 412.104 404.052 412.104C402.165 412.104 400.631 410.312 400.631 408.11C400.631 405.908 402.165 404.116 404.052 404.116Z" fill="#99C36B"/>
<path d="M417.693 395.858C415.956 395.858 414.547 394.214 414.547 392.186C414.547 390.158 415.956 388.514 417.693 388.514C419.43 388.514 420.838 390.158 420.838 392.186C420.838 394.214 419.43 395.858 417.693 395.858Z" fill="#99C36B"/>
<path d="M417.692 396.256C419.615 396.256 421.179 394.43 421.179 392.186C421.179 389.942 419.615 388.116 417.692 388.116C415.77 388.116 414.206 389.942 414.206 392.186C414.206 394.43 415.77 396.256 417.692 396.256ZM417.692 388.912C419.239 388.912 420.497 390.381 420.497 392.186C420.497 393.991 419.239 395.46 417.692 395.46C416.146 395.46 414.888 393.991 414.888 392.186C414.888 390.381 416.146 388.912 417.692 388.912Z" fill="#99C36B"/>
<path d="M415.024 248.52C415.024 250.241 416.219 251.635 417.693 251.635C419.167 251.635 420.361 250.241 420.361 248.52C420.361 246.8 419.167 245.405 417.693 245.405C416.219 245.405 415.024 246.8 415.024 248.52Z" fill="#99C36B"/>
<path d="M417.693 252.033C419.352 252.033 420.702 250.457 420.702 248.52C420.702 246.583 419.352 245.007 417.693 245.007C416.034 245.007 414.684 246.583 414.684 248.52C414.684 250.457 416.034 252.033 417.693 252.033ZM417.693 245.803C418.976 245.803 420.02 247.022 420.02 248.52C420.02 250.018 418.976 251.237 417.693 251.237C416.409 251.237 415.366 250.018 415.366 248.52C415.366 247.022 416.409 245.803 417.693 245.803Z" fill="#99C36B"/>
<path d="M428.708 232.597C428.708 234.289 429.883 235.661 431.333 235.661C432.783 235.661 433.958 234.289 433.958 232.597C433.958 230.904 432.783 229.532 431.333 229.532C429.883 229.532 428.708 230.904 428.708 232.597Z" fill="#99C36B"/>
<path d="M431.333 236.059C432.969 236.059 434.3 234.506 434.3 232.597C434.3 230.688 432.969 229.134 431.333 229.134C429.698 229.134 428.367 230.687 428.367 232.597C428.367 234.506 429.698 236.059 431.333 236.059ZM431.333 229.93C432.593 229.93 433.618 231.126 433.618 232.597C433.618 234.067 432.593 235.263 431.333 235.263C430.074 235.263 429.049 234.067 429.049 232.597C429.049 231.126 430.074 229.93 431.333 229.93Z" fill="#99C36B"/>
<path d="M442.246 178.665C439.636 178.665 437.521 176.195 437.521 173.149C437.521 170.102 439.636 167.633 442.246 167.633C444.856 167.633 446.971 170.102 446.971 173.149C446.971 176.195 444.856 178.665 442.246 178.665Z" fill="#99C36B"/>
<path d="M442.246 179.063C445.04 179.063 447.312 176.41 447.312 173.15C447.312 169.889 445.04 167.236 442.246 167.236C439.453 167.236 437.18 169.889 437.18 173.15C437.18 176.41 439.453 179.063 442.246 179.063ZM442.246 168.031C444.664 168.031 446.63 170.327 446.63 173.149C446.63 175.971 444.663 178.267 442.246 178.267C439.829 178.267 437.862 175.971 437.862 173.149C437.862 170.328 439.829 168.031 442.246 168.031Z" fill="#99C36B"/>
<path d="M424.761 157.226C424.761 159.704 426.482 161.713 428.606 161.713C430.729 161.713 432.45 159.704 432.45 157.226C432.45 154.747 430.729 152.738 428.606 152.738C426.482 152.738 424.761 154.747 424.761 157.226Z" fill="#99C36B"/>
<path d="M428.605 162.112C430.913 162.112 432.79 159.92 432.79 157.226C432.79 154.532 430.913 152.34 428.605 152.34C426.298 152.34 424.42 154.532 424.42 157.226C424.42 159.92 426.298 162.112 428.605 162.112ZM428.605 153.137C430.537 153.137 432.108 154.971 432.108 157.226C432.108 159.481 430.537 161.316 428.605 161.316C426.674 161.316 425.102 159.481 425.102 157.226C425.102 154.971 426.674 153.137 428.605 153.137Z" fill="#99C36B"/>
<path d="M348.614 52.5127C348.598 49.405 350.743 46.8703 353.405 46.8513C356.067 46.8324 358.238 49.3363 358.255 52.4441C358.271 55.5519 356.126 58.0866 353.464 58.1055C350.801 58.1245 348.63 55.6205 348.614 52.5127Z" fill="#99C36B"/>
<path d="M353.428 58.5087C356.274 58.5087 358.589 55.806 358.589 52.4836C358.589 49.1612 356.274 46.4585 353.428 46.4585C350.582 46.4585 348.266 49.1612 348.266 52.4836C348.266 55.8064 350.582 58.5087 353.428 58.5087ZM353.428 47.2549C355.897 47.2549 357.907 49.6006 357.907 52.4836C357.907 55.3666 355.897 57.7123 353.428 57.7123C350.958 57.7123 348.948 55.3666 348.948 52.4836C348.948 49.601 350.958 47.2549 353.428 47.2549Z" fill="#99C36B"/>
<path d="M337.137 68.4072C337.137 70.1157 338.323 71.5011 339.787 71.5011C341.251 71.5011 342.438 70.1161 342.438 68.4072C342.438 66.6986 341.251 65.3132 339.787 65.3132C338.323 65.3132 337.137 66.6986 337.137 68.4072Z" fill="#99C36B"/>
<path d="M339.787 71.8996C341.436 71.8996 342.778 70.3331 342.778 68.4077C342.778 66.4822 341.436 64.9158 339.787 64.9158C338.137 64.9158 336.796 66.4822 336.796 68.4077C336.795 70.3331 338.137 71.8996 339.787 71.8996ZM339.787 65.7121C341.06 65.7121 342.096 66.9216 342.096 68.4077C342.096 69.8937 341.06 71.1032 339.787 71.1032C338.513 71.1032 337.478 69.8937 337.478 68.4077C337.477 66.9216 338.513 65.7121 339.787 65.7121Z" fill="#99C36B"/>
<path d="M246.566 68.4077C246.566 71.0499 248.401 73.1922 250.665 73.1922C252.928 73.1922 254.764 71.0503 254.764 68.4077C254.764 65.7654 252.928 63.6231 250.665 63.6231C248.401 63.6231 246.566 65.7654 246.566 68.4077Z" fill="#99C36B"/>
<path d="M250.665 73.5902C253.113 73.5902 255.105 71.2656 255.105 68.4076C255.105 65.5497 253.113 63.2251 250.665 63.2251C248.217 63.2251 246.225 65.5497 246.225 68.4076C246.225 71.2656 248.217 73.5902 250.665 73.5902ZM250.665 64.0215C252.737 64.0215 254.423 65.9895 254.423 68.4076C254.423 70.8262 252.737 72.7938 250.665 72.7938C248.593 72.7938 246.907 70.8258 246.907 68.4076C246.907 65.9891 248.593 64.0215 250.665 64.0215Z" fill="#99C36B"/>
<path d="M233.498 52.484C233.498 54.7569 235.077 56.5995 237.024 56.5995C238.971 56.5995 240.549 54.7569 240.549 52.484C240.549 50.2111 238.971 48.3684 237.024 48.3684C235.077 48.3684 233.498 50.2111 233.498 52.484Z" fill="#99C36B"/>
<path d="M237.024 56.9978C239.156 56.9978 240.89 54.9733 240.89 52.4843C240.89 49.9953 239.156 47.9704 237.024 47.9704C234.892 47.9704 233.157 49.9953 233.157 52.4843C233.157 54.9729 234.892 56.9978 237.024 56.9978ZM237.024 48.7663C238.779 48.7663 240.208 50.4343 240.208 52.4839C240.208 54.5339 238.779 56.2011 237.024 56.2011C235.268 56.2011 233.839 54.5335 233.839 52.4839C233.839 50.4343 235.267 48.7663 237.024 48.7663Z" fill="#99C36B"/>
<path d="M160.937 480.105C159.353 480.105 158.069 478.606 158.069 476.758C158.069 474.909 159.353 473.41 160.937 473.41C162.52 473.41 163.804 474.909 163.804 476.758C163.804 478.606 162.52 480.105 160.937 480.105Z" fill="#99C36B"/>
<path d="M160.937 480.503C162.706 480.503 164.145 478.823 164.145 476.757C164.145 474.692 162.706 473.011 160.937 473.011C159.167 473.011 157.728 474.692 157.728 476.757C157.728 478.823 159.167 480.503 160.937 480.503ZM160.937 473.808C162.33 473.808 163.463 475.132 163.463 476.757C163.463 478.384 162.33 479.707 160.937 479.707C159.543 479.707 158.41 478.384 158.41 476.757C158.41 475.132 159.544 473.808 160.937 473.808Z" fill="#99C36B"/>
<path d="M143.13 460.833C143.13 463.519 144.995 465.696 147.296 465.696C149.596 465.696 151.461 463.519 151.461 460.833C151.461 458.148 149.596 455.971 147.296 455.971C144.995 455.971 143.13 458.148 143.13 460.833Z" fill="#99C36B"/>
<path d="M147.295 466.094C149.78 466.094 151.802 463.735 151.802 460.834C151.802 457.933 149.78 455.573 147.295 455.573C144.81 455.573 142.789 457.933 142.789 460.834C142.789 463.734 144.81 466.094 147.295 466.094ZM147.295 456.369C149.404 456.369 151.12 458.372 151.12 460.834C151.12 463.296 149.404 465.299 147.295 465.299C145.187 465.299 143.471 463.295 143.471 460.834C143.471 458.372 145.187 456.369 147.295 456.369Z" fill="#99C36B"/>
<path d="M144.078 397.14C144.078 399.214 145.519 400.896 147.296 400.896C149.073 400.896 150.513 399.214 150.513 397.14C150.513 395.066 149.073 393.384 147.296 393.384C145.519 393.384 144.078 395.066 144.078 397.14Z" fill="#99C36B"/>
<path d="M147.295 401.294C149.258 401.294 150.854 399.431 150.854 397.14C150.854 394.85 149.258 392.987 147.295 392.987C145.333 392.987 143.737 394.85 143.737 397.14C143.737 399.431 145.333 401.294 147.295 401.294ZM147.295 393.783C148.881 393.783 150.172 395.289 150.172 397.14C150.172 398.992 148.881 400.498 147.295 400.498C145.709 400.498 144.419 398.992 144.419 397.14C144.419 395.289 145.709 393.783 147.295 393.783Z" fill="#99C36B"/>
<path d="M160.936 385.999C158.674 385.999 156.84 383.858 156.84 381.216C156.84 378.575 158.674 376.434 160.936 376.434C163.199 376.434 165.033 378.575 165.033 381.216C165.033 383.858 163.199 385.999 160.936 385.999Z" fill="#99C36B"/>
<path d="M160.937 386.397C163.384 386.397 165.375 384.073 165.375 381.216C165.375 378.359 163.384 376.035 160.937 376.035C158.489 376.035 156.498 378.359 156.498 381.216C156.498 384.073 158.49 386.397 160.937 386.397ZM160.937 376.831C163.008 376.831 164.693 378.799 164.693 381.216C164.693 383.633 163.008 385.601 160.937 385.601C158.865 385.601 157.18 383.633 157.18 381.216C157.18 378.799 158.865 376.831 160.937 376.831Z" fill="#99C36B"/>
<path d="M205.194 385.462C203.185 385.462 201.557 383.561 201.557 381.216C201.557 378.871 203.185 376.971 205.194 376.971C207.203 376.971 208.831 378.871 208.831 381.216C208.831 383.561 207.203 385.462 205.194 385.462Z" fill="#99C36B"/>
<path d="M205.194 385.859C207.388 385.859 209.173 383.776 209.173 381.216C209.173 378.656 207.388 376.573 205.194 376.573C203.001 376.573 201.217 378.656 201.217 381.216C201.217 383.776 203.001 385.859 205.194 385.859ZM205.194 377.369C207.012 377.369 208.49 379.095 208.49 381.216C208.49 383.337 207.012 385.063 205.194 385.063C203.377 385.063 201.899 383.337 201.899 381.216C201.899 379.095 203.377 377.369 205.194 377.369Z" fill="#99C36B"/>
<path d="M218.835 368.324C217.402 368.324 216.239 366.967 216.239 365.293C216.239 363.62 217.402 362.263 218.835 362.263C220.269 362.263 221.431 363.62 221.431 365.293C221.431 366.967 220.269 368.324 218.835 368.324Z" fill="#99C36B"/>
<path d="M218.836 368.721C220.455 368.721 221.773 367.183 221.773 365.293C221.773 363.403 220.455 361.865 218.836 361.865C217.217 361.865 215.899 363.403 215.899 365.293C215.899 367.183 217.217 368.721 218.836 368.721ZM218.836 362.661C220.079 362.661 221.091 363.842 221.091 365.293C221.091 366.744 220.079 367.925 218.836 367.925C217.593 367.925 216.581 366.744 216.581 365.293C216.581 363.842 217.592 362.661 218.836 362.661Z" fill="#99C36B"/>
<path d="M215.107 275.414C215.107 277.818 216.776 279.766 218.836 279.766C220.895 279.766 222.565 277.818 222.565 275.414C222.565 273.009 220.895 271.061 218.836 271.061C216.776 271.061 215.107 273.009 215.107 275.414Z" fill="#99C36B"/>
<path d="M218.835 280.165C221.08 280.165 222.906 278.034 222.906 275.414C222.906 272.794 221.08 270.663 218.835 270.663C216.591 270.663 214.765 272.794 214.765 275.414C214.765 278.034 216.591 280.165 218.835 280.165ZM218.835 271.459C220.704 271.459 222.224 273.233 222.224 275.414C222.224 277.594 220.704 279.368 218.835 279.368C216.968 279.368 215.447 277.594 215.447 275.414C215.447 273.233 216.967 271.459 218.835 271.459Z" fill="#99C36B"/>
<path d="M229.686 259.489C229.686 261.289 230.935 262.747 232.477 262.747C234.018 262.747 235.268 261.289 235.268 259.489C235.268 257.69 234.018 256.232 232.477 256.232C230.935 256.232 229.686 257.691 229.686 259.489Z" fill="#99C36B"/>
<path d="M232.477 263.146C234.203 263.146 235.609 261.506 235.609 259.49C235.609 257.474 234.203 255.834 232.477 255.834C230.75 255.834 229.344 257.474 229.344 259.49C229.344 261.505 230.75 263.146 232.477 263.146ZM232.477 256.63C233.827 256.63 234.926 257.913 234.926 259.49C234.926 261.066 233.827 262.349 232.477 262.349C231.126 262.349 230.027 261.066 230.027 259.49C230.027 257.913 231.126 256.63 232.477 256.63Z" fill="#99C36B"/>
<path d="M275.196 259.49C275.196 261.263 276.428 262.701 277.947 262.701C279.466 262.701 280.698 261.263 280.698 259.49C280.698 257.716 279.466 256.279 277.947 256.279C276.428 256.279 275.196 257.717 275.196 259.49Z" fill="#99C36B"/>
<path d="M277.947 263.098C279.652 263.098 281.038 261.48 281.038 259.49C281.038 257.5 279.652 255.88 277.947 255.88C276.242 255.88 274.855 257.5 274.855 259.49C274.855 261.48 276.242 263.098 277.947 263.098ZM277.947 256.677C279.276 256.677 280.356 257.939 280.356 259.49C280.356 261.04 279.275 262.302 277.947 262.302C276.618 262.302 275.537 261.04 275.537 259.49C275.537 257.939 276.618 256.677 277.947 256.677Z" fill="#99C36B"/>
<path d="M288.303 243.566C288.303 245.684 289.774 247.401 291.588 247.401C293.402 247.401 294.873 245.684 294.873 243.566C294.873 241.449 293.402 239.732 291.588 239.732C289.774 239.732 288.303 241.449 288.303 243.566Z" fill="#99C36B"/>
<path d="M291.588 247.798C293.587 247.798 295.214 245.9 295.214 243.566C295.214 241.232 293.588 239.333 291.588 239.333C289.589 239.333 287.962 241.232 287.962 243.566C287.962 245.9 289.589 247.798 291.588 247.798ZM291.588 240.129C293.212 240.129 294.532 241.671 294.532 243.566C294.532 245.461 293.212 247.002 291.588 247.002C289.965 247.002 288.644 245.461 288.644 243.566C288.644 241.671 289.965 240.129 291.588 240.129Z" fill="#99C36B"/>
<path d="M288.568 170.672C288.568 172.619 289.92 174.198 291.588 174.198C293.256 174.198 294.609 172.619 294.609 170.672C294.609 168.725 293.256 167.146 291.588 167.146C289.92 167.146 288.568 168.725 288.568 170.672Z" fill="#99C36B"/>
<path d="M291.588 174.596C293.442 174.596 294.949 172.836 294.949 170.672C294.949 168.509 293.441 166.749 291.588 166.749C289.735 166.749 288.227 168.509 288.227 170.672C288.227 172.836 289.735 174.596 291.588 174.596ZM291.588 167.544C293.065 167.544 294.267 168.947 294.267 170.672C294.267 172.397 293.065 173.8 291.588 173.8C290.111 173.8 288.909 172.397 288.909 170.672C288.909 168.948 290.111 167.544 291.588 167.544Z" fill="#99C36B"/>
<path d="M273.171 154.749C273.171 157.827 275.309 160.323 277.947 160.323C280.584 160.323 282.722 157.827 282.722 154.749C282.722 151.67 280.584 149.174 277.947 149.174C275.31 149.174 273.171 151.67 273.171 154.749Z" fill="#99C36B"/>
<path d="M277.947 160.721C280.768 160.721 283.063 158.041 283.063 154.748C283.063 151.455 280.768 148.776 277.947 148.776C275.126 148.776 272.83 151.455 272.83 154.748C272.83 158.041 275.126 160.721 277.947 160.721ZM277.947 149.572C280.392 149.572 282.381 151.894 282.381 154.748C282.381 157.602 280.392 159.924 277.947 159.924C275.502 159.924 273.513 157.602 273.513 154.748C273.513 151.894 275.502 149.572 277.947 149.572Z" fill="#99C36B"/>
<path d="M247.303 154.748C247.303 156.916 248.808 158.672 250.664 158.672C252.521 158.672 254.026 156.916 254.026 154.748C254.026 152.581 252.521 150.825 250.664 150.825C248.808 150.825 247.303 152.581 247.303 154.748Z" fill="#99C36B"/>
<path d="M250.665 159.071C252.706 159.071 254.367 157.132 254.367 154.749C254.367 152.366 252.706 150.427 250.665 150.427C248.623 150.427 246.963 152.366 246.963 154.749C246.962 157.132 248.623 159.071 250.665 159.071ZM250.665 151.223C252.33 151.223 253.685 152.805 253.685 154.749C253.685 156.693 252.33 158.275 250.665 158.275C248.999 158.275 247.645 156.693 247.645 154.749C247.644 152.804 248.999 151.223 250.665 151.223Z" fill="#99C36B"/>
<path d="M234.13 170.672C234.13 172.538 235.425 174.05 237.023 174.05C238.621 174.05 239.916 172.538 239.916 170.672C239.916 168.807 238.621 167.295 237.023 167.295C235.425 167.295 234.13 168.807 234.13 170.672Z" fill="#99C36B"/>
<path d="M237.024 174.448C238.807 174.448 240.258 172.754 240.258 170.672C240.258 168.591 238.807 166.897 237.024 166.897C235.24 166.897 233.789 168.591 233.789 170.672C233.789 172.754 235.24 174.448 237.024 174.448ZM237.024 167.693C238.431 167.693 239.576 169.029 239.576 170.672C239.576 172.315 238.431 173.652 237.024 173.652C235.616 173.652 234.471 172.315 234.471 170.672C234.471 169.029 235.616 167.693 237.024 167.693Z" fill="#99C36B"/>
<path d="M234.042 175.626C234.042 177.549 235.377 179.107 237.024 179.107C238.671 179.107 240.006 177.549 240.006 175.626C240.006 173.703 238.671 172.145 237.024 172.145C235.377 172.145 234.042 173.703 234.042 175.626Z" fill="#99C36B"/>
<path d="M237.024 179.506C238.857 179.506 240.347 177.765 240.347 175.626C240.347 173.487 238.857 171.747 237.024 171.747C235.192 171.747 233.701 173.487 233.701 175.626C233.701 177.765 235.192 179.506 237.024 179.506ZM237.024 172.543C238.481 172.543 239.665 173.926 239.665 175.626C239.665 177.326 238.48 178.709 237.024 178.709C235.568 178.709 234.383 177.326 234.383 175.626C234.383 173.926 235.568 172.543 237.024 172.543Z" fill="#99C36B"/>
<path d="M220.58 191.549C220.58 193.355 221.835 194.82 223.382 194.82C224.93 194.82 226.185 193.355 226.185 191.549C226.185 189.742 224.93 188.278 223.382 188.278C221.835 188.278 220.58 189.742 220.58 191.549Z" fill="#99C36B"/>
<path d="M223.383 195.218C225.116 195.218 226.526 193.572 226.526 191.549C226.526 189.526 225.116 187.88 223.383 187.88C221.649 187.88 220.239 189.526 220.239 191.549C220.239 193.572 221.649 195.218 223.383 195.218ZM223.383 188.676C224.74 188.676 225.844 189.965 225.844 191.549C225.844 193.133 224.74 194.422 223.383 194.422C222.026 194.422 220.921 193.133 220.921 191.549C220.921 189.965 222.026 188.676 223.383 188.676Z" fill="#99C36B"/>
<path d="M144.014 191.549C144.014 194.642 146.162 197.149 148.811 197.149C151.461 197.149 153.608 194.642 153.608 191.549C153.608 188.457 151.46 185.95 148.811 185.95C146.162 185.95 144.014 188.457 144.014 191.549Z" fill="#99C36B"/>
<path d="M148.812 197.547C151.645 197.547 153.949 194.856 153.949 191.549C153.949 188.242 151.644 185.552 148.812 185.552C145.979 185.552 143.674 188.242 143.674 191.549C143.673 194.856 145.978 197.547 148.812 197.547ZM148.812 186.348C151.269 186.348 153.267 188.681 153.267 191.549C153.267 194.417 151.269 196.751 148.812 196.751C146.354 196.751 144.356 194.417 144.356 191.549C144.356 188.681 146.354 186.348 148.812 186.348Z" fill="#99C36B"/>
<path d="M131.887 175.626C131.887 177.743 133.357 179.459 135.17 179.459C136.983 179.459 138.453 177.743 138.453 175.626C138.453 173.509 136.983 171.793 135.17 171.793C133.357 171.793 131.887 173.509 131.887 175.626Z" fill="#99C36B"/>
<path d="M135.17 179.857C137.169 179.857 138.795 177.959 138.795 175.626C138.795 173.293 137.169 171.395 135.17 171.395C133.172 171.395 131.546 173.293 131.546 175.626C131.546 177.959 133.172 179.857 135.17 179.857ZM135.17 172.191C136.793 172.191 138.113 173.732 138.113 175.626C138.113 177.52 136.793 179.06 135.17 179.06C133.548 179.06 132.228 177.52 132.228 175.626C132.228 173.732 133.548 172.191 135.17 172.191Z" fill="#99C36B"/>
<path d="M385.289 185.888C385.289 188.603 387.175 190.803 389.501 190.803C391.827 190.803 393.712 188.603 393.712 185.888C393.712 183.173 391.827 180.972 389.501 180.972C387.175 180.972 385.289 183.173 385.289 185.888Z" fill="#99C36B"/>
<path d="M389.501 191.202C392.011 191.202 394.053 188.818 394.053 185.888C394.053 182.958 392.011 180.574 389.501 180.574C386.991 180.574 384.948 182.958 384.948 185.888C384.949 188.818 386.991 191.202 389.501 191.202ZM389.501 181.37C391.635 181.37 393.371 183.397 393.371 185.888C393.371 188.379 391.635 190.406 389.501 190.406C387.367 190.406 385.63 188.379 385.63 185.888C385.631 183.397 387.367 181.37 389.501 181.37Z" fill="#99C36B"/>
<path d="M371.839 201.812C371.839 204.404 373.639 206.505 375.86 206.505C378.08 206.505 379.88 204.403 379.88 201.812C379.88 199.22 378.08 197.119 375.86 197.119C373.639 197.119 371.839 199.22 371.839 201.812Z" fill="#99C36B"/>
<path d="M375.859 206.903C378.264 206.903 380.221 204.619 380.221 201.812C380.221 199.005 378.264 196.721 375.859 196.721C373.454 196.721 371.498 199.005 371.498 201.812C371.498 204.619 373.454 206.903 375.859 206.903ZM375.859 197.517C377.888 197.517 379.539 199.444 379.539 201.812C379.539 204.18 377.888 206.107 375.859 206.107C373.831 206.107 372.18 204.18 372.18 201.812C372.18 199.444 373.831 197.517 375.859 197.517Z" fill="#99C36B"/>
<path d="M375.86 280.365C373.852 280.365 372.224 278.465 372.224 276.121C372.224 273.777 373.852 271.877 375.86 271.877C377.867 271.877 379.495 273.777 379.495 276.121C379.495 278.465 377.867 280.365 375.86 280.365Z" fill="#99C36B"/>
<path d="M375.86 280.763C378.052 280.763 379.836 278.68 379.836 276.121C379.836 273.561 378.052 271.479 375.86 271.479C373.667 271.479 371.883 273.561 371.883 276.121C371.883 278.68 373.667 280.763 375.86 280.763ZM375.86 272.275C377.676 272.275 379.154 274 379.154 276.121C379.154 278.241 377.676 279.967 375.86 279.967C374.043 279.967 372.565 278.241 372.565 276.121C372.565 274 374.043 272.275 375.86 272.275Z" fill="#99C36B"/>
<path d="M389.5 297.344C386.993 297.344 384.96 294.972 384.96 292.045C384.96 289.118 386.993 286.745 389.5 286.745C392.008 286.745 394.04 289.118 394.04 292.045C394.04 294.972 392.008 297.344 389.5 297.344Z" fill="#99C36B"/>
<path d="M389.5 297.743C392.192 297.743 394.381 295.187 394.381 292.045C394.381 288.903 392.192 286.347 389.5 286.347C386.809 286.347 384.619 288.904 384.619 292.045C384.619 295.187 386.809 297.743 389.5 297.743ZM389.5 287.143C391.816 287.143 393.699 289.342 393.699 292.045C393.699 294.748 391.816 296.947 389.5 296.947C387.185 296.947 385.301 294.748 385.301 292.045C385.301 289.342 387.185 287.143 389.5 287.143Z" fill="#99C36B"/>
<path d="M122.267 583.977C122.267 586.823 124.243 589.13 126.682 589.13C129.12 589.13 131.097 586.823 131.097 583.977C131.097 581.13 129.12 578.823 126.682 578.823C124.243 578.823 122.267 581.13 122.267 583.977Z" fill="#99C36B"/>
<path d="M126.682 589.528C129.305 589.528 131.438 587.037 131.438 583.976C131.438 580.915 129.305 578.424 126.682 578.424C124.06 578.424 121.926 580.915 121.926 583.976C121.926 587.038 124.06 589.528 126.682 589.528ZM126.682 579.22C128.929 579.22 130.756 581.354 130.756 583.976C130.756 586.598 128.929 588.731 126.682 588.731C124.436 588.731 122.608 586.598 122.608 583.976C122.608 581.354 124.436 579.22 126.682 579.22Z" fill="#99C36B"/>
<path d="M137.534 568.052C137.534 569.85 138.783 571.308 140.324 571.308C141.864 571.308 143.113 569.85 143.113 568.052C143.113 566.254 141.864 564.796 140.324 564.796C138.783 564.796 137.534 566.254 137.534 568.052Z" fill="#99C36B"/>
<path d="M140.324 571.707C142.05 571.707 143.454 570.068 143.454 568.052C143.454 566.037 142.05 564.398 140.324 564.398C138.597 564.398 137.193 566.037 137.193 568.052C137.193 570.068 138.598 571.707 140.324 571.707ZM140.324 565.194C141.673 565.194 142.772 566.476 142.772 568.052C142.772 569.628 141.673 570.91 140.324 570.91C138.973 570.91 137.875 569.628 137.875 568.052C137.875 566.476 138.973 565.194 140.324 565.194Z" fill="#99C36B"/>
<path d="M233.213 568.052C233.213 570.314 234.784 572.147 236.721 572.147C238.658 572.147 240.228 570.314 240.228 568.052C240.228 565.791 238.658 563.958 236.721 563.958C234.784 563.958 233.213 565.791 233.213 568.052Z" fill="#99C36B"/>
<path d="M236.72 572.545C238.842 572.545 240.569 570.53 240.569 568.053C240.569 565.576 238.842 563.56 236.72 563.56C234.598 563.56 232.872 565.576 232.872 568.053C232.872 570.53 234.598 572.545 236.72 572.545ZM236.72 564.356C238.466 564.356 239.886 566.015 239.886 568.053C239.886 570.09 238.466 571.749 236.72 571.749C234.974 571.749 233.554 570.09 233.554 568.053C233.554 566.015 234.974 564.356 236.72 564.356Z" fill="#99C36B"/>
<path d="M246.626 583.976C246.626 586.384 248.298 588.336 250.362 588.336C252.425 588.336 254.097 586.384 254.097 583.976C254.097 581.567 252.425 579.615 250.362 579.615C248.298 579.615 246.626 581.567 246.626 583.976Z" fill="#99C36B"/>
<path d="M250.361 588.734C252.61 588.734 254.438 586.6 254.438 583.976C254.438 581.352 252.61 579.217 250.361 579.217C248.114 579.217 246.285 581.352 246.285 583.976C246.285 586.6 248.114 588.734 250.361 588.734ZM250.361 580.013C252.233 580.013 253.756 581.791 253.756 583.976C253.756 586.161 252.233 587.938 250.361 587.938C248.49 587.938 246.967 586.161 246.967 583.976C246.967 581.791 248.49 580.013 250.361 580.013Z" fill="#99C36B"/>
<path d="M250.362 650.741C247.904 650.741 245.911 648.416 245.911 645.546C245.911 642.677 247.904 640.352 250.362 640.352C252.819 640.352 254.812 642.677 254.812 645.546C254.812 648.416 252.819 650.741 250.362 650.741Z" fill="#99C36B"/>
<path d="M250.361 651.141C253.003 651.141 255.153 648.632 255.153 645.547C255.153 642.463 253.003 639.954 250.361 639.954C247.719 639.954 245.569 642.463 245.569 645.547C245.569 648.632 247.719 651.141 250.361 651.141ZM250.361 640.75C252.627 640.75 254.471 642.902 254.471 645.547C254.471 648.192 252.627 650.345 250.361 650.345C248.095 650.345 246.252 648.192 246.252 645.547C246.252 642.902 248.095 640.75 250.361 640.75Z" fill="#99C36B"/>
<path d="M259.357 661.47C259.357 664.465 261.437 666.893 264.002 666.893C266.568 666.893 268.648 664.465 268.648 661.47C268.648 658.475 266.568 656.047 264.002 656.047C261.437 656.047 259.357 658.475 259.357 661.47Z" fill="#99C36B"/>
<path d="M264.002 667.291C266.752 667.291 268.989 664.68 268.989 661.47C268.989 658.26 266.752 655.649 264.002 655.649C261.252 655.649 259.016 658.26 259.016 661.47C259.016 664.68 261.253 667.291 264.002 667.291ZM264.002 656.445C266.376 656.445 268.307 658.699 268.307 661.47C268.307 664.241 266.376 666.495 264.002 666.495C261.629 666.495 259.698 664.241 259.698 661.47C259.698 658.699 261.629 656.445 264.002 656.445Z" fill="#99C36B"/>
<path d="M410.115 666.693C407.644 666.693 405.641 664.355 405.641 661.471C405.641 658.587 407.644 656.249 410.115 656.249C412.585 656.249 414.588 658.587 414.588 661.471C414.588 664.355 412.585 666.693 410.115 666.693Z" fill="#99C36B"/>
<path d="M410.114 667.091C412.769 667.091 414.929 664.57 414.929 661.471C414.929 658.372 412.769 655.851 410.114 655.851C407.459 655.851 405.3 658.372 405.3 661.471C405.3 664.57 407.459 667.091 410.114 667.091ZM410.114 656.647C412.393 656.647 414.246 658.811 414.246 661.471C414.246 664.13 412.393 666.294 410.114 666.294C407.836 666.294 405.982 664.13 405.982 661.471C405.982 658.811 407.836 656.647 410.114 656.647Z" fill="#99C36B"/>
<path d="M420.428 645.547C420.428 647.692 421.918 649.432 423.755 649.432C425.593 649.432 427.083 647.692 427.083 645.547C427.083 643.401 425.593 641.662 423.755 641.662C421.918 641.662 420.428 643.401 420.428 645.547Z" fill="#99C36B"/>
<path d="M423.755 649.829C425.778 649.829 427.424 647.908 427.424 645.546C427.424 643.185 425.778 641.264 423.755 641.264C421.732 641.264 420.086 643.185 420.086 645.546C420.086 647.908 421.732 649.829 423.755 649.829ZM423.755 642.061C425.402 642.061 426.742 643.625 426.742 645.547C426.742 647.469 425.402 649.033 423.755 649.033C422.108 649.033 420.768 647.469 420.768 645.547C420.768 643.625 422.108 642.061 423.755 642.061Z" fill="#99C36B"/>
<path d="M420.508 612.284C420.508 614.378 421.962 616.075 423.755 616.075C425.549 616.075 427.003 614.378 427.003 612.284C427.003 610.19 425.549 608.493 423.755 608.493C421.962 608.493 420.508 610.191 420.508 612.284Z" fill="#99C36B"/>
<path d="M423.756 616.473C425.734 616.473 427.344 614.594 427.344 612.285C427.344 609.975 425.734 608.095 423.756 608.095C421.777 608.095 420.167 609.975 420.167 612.285C420.167 614.594 421.777 616.473 423.756 616.473ZM423.756 608.891C425.358 608.891 426.662 610.414 426.662 612.285C426.662 614.156 425.359 615.677 423.756 615.677C422.153 615.677 420.849 614.156 420.849 612.285C420.849 610.414 422.153 608.891 423.756 608.891Z" fill="#99C36B"/>
<path d="M434.239 596.361C434.239 598.396 435.652 600.046 437.396 600.046C439.14 600.046 440.554 598.396 440.554 596.361C440.554 594.325 439.14 592.675 437.396 592.675C435.653 592.675 434.239 594.325 434.239 596.361Z" fill="#99C36B"/>
<path d="M437.397 600.444C439.326 600.444 440.895 598.612 440.895 596.361C440.895 594.108 439.326 592.277 437.397 592.277C435.468 592.277 433.898 594.109 433.898 596.361C433.898 598.612 435.468 600.444 437.397 600.444ZM437.397 593.073C438.95 593.073 440.213 594.548 440.213 596.361C440.213 598.173 438.95 599.648 437.397 599.648C435.843 599.648 434.58 598.173 434.58 596.361C434.58 594.548 435.844 593.073 437.397 593.073Z" fill="#99C36B"/>
<path d="M470.74 259.49C470.74 261.64 472.233 263.384 474.076 263.384C475.918 263.384 477.412 261.641 477.412 259.49C477.412 257.339 475.918 255.595 474.076 255.595C472.233 255.595 470.74 257.339 470.74 259.49Z" fill="#99C36B"/>
<path d="M474.076 263.783C476.103 263.783 477.753 261.857 477.753 259.49C477.753 257.123 476.103 255.197 474.076 255.197C472.048 255.197 470.399 257.123 470.399 259.49C470.399 261.857 472.048 263.783 474.076 263.783ZM474.076 255.993C475.727 255.993 477.071 257.562 477.071 259.49C477.071 261.417 475.727 262.986 474.076 262.986C472.424 262.986 471.081 261.418 471.081 259.49C471.081 257.562 472.424 255.993 474.076 255.993Z" fill="#99C36B"/>
<path d="M456.719 275.413C456.719 277.808 458.383 279.75 460.435 279.75C462.487 279.75 464.15 277.808 464.15 275.413C464.15 273.018 462.487 271.076 460.435 271.076C458.383 271.076 456.719 273.018 456.719 275.413Z" fill="#99C36B"/>
<path d="M460.435 280.148C462.672 280.148 464.491 278.024 464.491 275.413C464.491 272.802 462.671 270.678 460.435 270.678C458.198 270.678 456.378 272.802 456.378 275.413C456.378 278.024 458.198 280.148 460.435 280.148ZM460.435 271.474C462.295 271.474 463.809 273.241 463.809 275.413C463.809 277.585 462.295 279.352 460.435 279.352C458.574 279.352 457.06 277.585 457.06 275.413C457.061 273.241 458.574 271.474 460.435 271.474Z" fill="#99C36B"/>
<path d="M457.874 370.954C457.874 372.605 459.021 373.944 460.435 373.944C461.849 373.944 462.996 372.605 462.996 370.954C462.996 369.304 461.849 367.965 460.435 367.965C459.021 367.965 457.874 369.304 457.874 370.954Z" fill="#99C36B"/>
<path d="M460.435 374.342C462.034 374.342 463.336 372.823 463.336 370.955C463.336 369.087 462.035 367.567 460.435 367.567C458.835 367.567 457.533 369.087 457.533 370.955C457.533 372.823 458.835 374.342 460.435 374.342ZM460.435 368.363C461.659 368.363 462.654 369.526 462.654 370.954C462.654 372.383 461.659 373.545 460.435 373.545C459.211 373.545 458.215 372.383 458.215 370.954C458.215 369.526 459.211 368.363 460.435 368.363Z" fill="#99C36B"/>
<path d="M471.364 386.878C471.364 388.625 472.578 390.043 474.075 390.043C475.573 390.043 476.787 388.625 476.787 386.878C476.787 385.129 475.573 383.712 474.075 383.712C472.578 383.712 471.364 385.13 471.364 386.878Z" fill="#99C36B"/>
<path d="M474.075 390.441C475.759 390.441 477.128 388.843 477.128 386.878C477.128 384.913 475.759 383.315 474.075 383.315C472.392 383.315 471.023 384.913 471.023 386.878C471.023 388.843 472.392 390.441 474.075 390.441ZM474.075 384.111C475.383 384.111 476.446 385.352 476.446 386.878C476.446 388.403 475.383 389.645 474.075 389.645C472.768 389.645 471.705 388.403 471.705 386.878C471.705 385.352 472.768 384.111 474.075 384.111Z" fill="#99C36B"/>
<path d="M371.442 446.327C371.442 448.979 373.284 451.131 375.557 451.131C377.83 451.131 379.673 448.98 379.673 446.327C379.673 443.673 377.83 441.522 375.557 441.522C373.284 441.522 371.442 443.673 371.442 446.327Z" fill="#99C36B"/>
<path d="M375.557 451.528C378.015 451.528 380.014 449.194 380.014 446.326C380.014 443.458 378.015 441.124 375.557 441.124C373.1 441.124 371.101 443.458 371.101 446.326C371.101 449.194 373.1 451.528 375.557 451.528ZM375.557 441.92C377.638 441.92 379.332 443.896 379.332 446.326C379.332 448.755 377.638 450.731 375.557 450.731C373.476 450.731 371.783 448.755 371.783 446.326C371.783 443.896 373.476 441.92 375.557 441.92Z" fill="#99C36B"/>
<path d="M359.01 462.249C359.01 464.123 360.311 465.641 361.916 465.641C363.52 465.641 364.821 464.123 364.821 462.249C364.821 460.376 363.52 458.858 361.916 458.858C360.311 458.858 359.01 460.376 359.01 462.249Z" fill="#99C36B"/>
<path d="M361.916 466.039C363.707 466.039 365.163 464.339 365.163 462.25C365.163 460.16 363.707 458.459 361.916 458.459C360.126 458.459 358.67 460.16 358.67 462.25C358.67 464.339 360.126 466.039 361.916 466.039ZM361.916 459.255C363.33 459.255 364.481 460.599 364.481 462.249C364.481 463.9 363.33 465.243 361.916 465.243C360.502 465.243 359.352 463.9 359.352 462.249C359.352 460.599 360.502 459.255 361.916 459.255Z" fill="#99C36B"/>
<path d="M36.9509 621.839C36.9509 624.968 39.124 627.504 41.8045 627.504C44.4849 627.504 46.658 624.968 46.658 621.839C46.658 618.71 44.4849 616.173 41.8045 616.173C39.124 616.173 36.9509 618.71 36.9509 621.839Z" fill="#99C36B"/>
<path d="M41.8045 627.902C44.6688 627.902 46.9986 625.182 46.9986 621.839C46.9986 618.496 44.6688 615.776 41.8045 615.776C38.9405 615.776 36.6099 618.496 36.6099 621.839C36.6099 625.182 38.9405 627.902 41.8045 627.902ZM41.8045 616.571C44.2923 616.571 46.3166 618.934 46.3166 621.839C46.3166 624.743 44.2923 627.106 41.8045 627.106C39.316 627.106 37.292 624.743 37.292 621.839C37.292 618.934 39.3163 616.571 41.8045 616.571Z" fill="#99C36B"/>
<path d="M199.78 621.838C199.78 624.547 201.661 626.743 203.982 626.743C206.302 626.743 208.183 624.547 208.183 621.838C208.183 619.129 206.302 616.933 203.982 616.933C201.661 616.933 199.78 619.129 199.78 621.838Z" fill="#99C36B"/>
<path d="M203.982 627.141C206.487 627.141 208.525 624.763 208.525 621.838C208.525 618.914 206.487 616.535 203.982 616.535C201.477 616.535 199.439 618.914 199.439 621.838C199.439 624.763 201.477 627.141 203.982 627.141ZM203.982 617.331C206.111 617.331 207.843 619.353 207.843 621.838C207.843 624.323 206.111 626.345 203.982 626.345C201.853 626.345 200.121 624.323 200.121 621.838C200.121 619.353 201.853 617.331 203.982 617.331Z" fill="#99C36B"/>
<path d="M214.425 637.762C214.425 639.824 215.857 641.495 217.623 641.495C219.388 641.495 220.82 639.824 220.82 637.762C220.82 635.701 219.388 634.03 217.623 634.03C215.857 634.03 214.425 635.701 214.425 637.762Z" fill="#99C36B"/>
<path d="M217.622 641.893C219.574 641.893 221.161 640.04 221.161 637.763C221.161 635.484 219.574 633.631 217.622 633.631C215.671 633.631 214.084 635.484 214.084 637.763C214.084 640.04 215.671 641.893 217.622 641.893ZM217.622 634.428C219.198 634.428 220.479 635.924 220.479 637.763C220.479 639.6 219.198 641.096 217.622 641.096C216.048 641.096 214.766 639.6 214.766 637.763C214.766 635.924 216.048 634.428 217.622 634.428Z" fill="#99C36B"/>
<path d="M61.4987 98.1314C61.4987 100.287 62.9958 102.035 64.8425 102.035C66.6892 102.035 68.1862 100.287 68.1862 98.1314C68.1862 95.9755 66.6892 94.228 64.8425 94.228C62.9958 94.228 61.4987 95.9755 61.4987 98.1314Z" fill="#99C36B"/>
<path d="M64.8425 102.433C66.8747 102.433 68.528 100.503 68.528 98.1311C68.528 95.7596 66.8747 93.8301 64.8425 93.8301C62.811 93.8301 61.1577 95.7596 61.1577 98.1311C61.1577 100.503 62.811 102.433 64.8425 102.433ZM64.8425 94.6265C66.4982 94.6265 67.8459 96.1989 67.8459 98.1316C67.8459 100.065 66.4985 101.637 64.8425 101.637C63.1868 101.637 61.8397 100.065 61.8397 98.1316C61.8397 96.1989 63.1868 94.6265 64.8425 94.6265Z" fill="#99C36B"/>
<path d="M134.702 8.60282C136.734 8.60282 138.387 6.673 138.387 4.30101C138.387 1.92942 136.734 0 134.702 0C132.67 0 131.017 1.92942 131.017 4.30101C131.017 6.673 132.67 8.60282 134.702 8.60282ZM134.702 0.796363C136.358 0.796363 137.705 2.3688 137.705 4.30141C137.705 6.23442 136.358 7.80685 134.702 7.80685C133.046 7.80685 131.699 6.23442 131.699 4.30141C131.699 2.3688 133.046 0.796363 134.702 0.796363Z" fill="#99C36B"/>
<path d="M134.702 0.796363C136.358 0.796363 137.705 2.3688 137.705 4.30141C137.705 6.23442 136.358 7.80685 134.702 7.80685C133.046 7.80685 131.699 6.23442 131.699 4.30141C131.699 2.3688 133.046 0.796363 134.702 0.796363Z" fill="#99C36B"/>
<path d="M159.475 68.9584C161.507 68.9584 163.16 67.0286 163.16 64.6566C163.16 62.285 161.507 60.3556 159.475 60.3556C157.443 60.3556 155.79 62.285 155.79 64.6566C155.79 67.0286 157.443 68.9584 159.475 68.9584ZM159.475 61.152C161.131 61.152 162.478 62.7244 162.478 64.657C162.478 66.59 161.131 68.1625 159.475 68.1625C157.819 68.1625 156.472 66.59 156.472 64.657C156.472 62.7244 157.819 61.152 159.475 61.152Z" fill="#99C36B"/>
<path d="M159.475 61.152C161.131 61.152 162.478 62.7244 162.478 64.657C162.478 66.59 161.131 68.1625 159.475 68.1625C157.819 68.1625 156.472 66.59 156.472 64.657C156.472 62.7244 157.819 61.152 159.475 61.152Z" fill="#99C36B"/>
<path d="M187.479 35.0084C189.511 35.0084 191.164 33.0786 191.164 30.7066C191.164 28.335 189.511 26.4056 187.479 26.4056C185.447 26.4056 183.794 28.335 183.794 30.7066C183.794 33.0786 185.447 35.0084 187.479 35.0084ZM187.479 27.202C189.135 27.202 190.482 28.7744 190.482 30.707C190.482 32.64 189.135 34.2124 187.479 34.2124C185.823 34.2124 184.476 32.64 184.476 30.707C184.476 28.7744 185.823 27.202 187.479 27.202Z" fill="#99C36B"/>
<path d="M187.479 27.202C189.135 27.202 190.482 28.7744 190.482 30.707C190.482 32.64 189.135 34.2124 187.479 34.2124C185.823 34.2124 184.476 32.64 184.476 30.707C184.476 28.7744 185.823 27.202 187.479 27.202Z" fill="#99C36B"/>
<path d="M200.162 98.1316C200.162 100.594 201.872 102.591 203.981 102.591C206.091 102.591 207.801 100.594 207.801 98.1316C207.801 95.6689 206.091 93.6726 203.981 93.6726C201.872 93.6726 200.162 95.6689 200.162 98.1316Z" fill="#99C36B"/>
<path d="M203.981 102.989C206.275 102.989 208.142 100.81 208.142 98.1315C208.142 95.4535 206.275 93.2745 203.981 93.2745C201.687 93.2745 199.82 95.4535 199.82 98.1315C199.82 100.81 201.687 102.989 203.981 102.989ZM203.981 94.0705C205.899 94.0705 207.46 95.8921 207.46 98.1315C207.46 100.371 205.899 102.193 203.981 102.193C202.063 102.193 200.502 100.371 200.502 98.1315C200.502 95.8921 202.063 94.0705 203.981 94.0705Z" fill="#99C36B"/>
<path d="M217.623 85.8899C215.881 85.8899 214.468 84.2413 214.468 82.2077C214.468 80.1741 215.881 78.5256 217.623 78.5256C219.365 78.5256 220.777 80.1741 220.777 82.2077C220.777 84.2413 219.365 85.8899 217.623 85.8899Z" fill="#99C36B"/>
<path d="M217.622 86.2884C219.55 86.2884 221.118 84.4581 221.118 82.2079C221.118 79.9581 219.55 78.1277 217.622 78.1277C215.695 78.1277 214.127 79.9581 214.127 82.2079C214.127 84.4581 215.695 86.2884 217.622 86.2884ZM217.622 78.9241C219.174 78.9241 220.436 80.397 220.436 82.2079C220.436 84.0187 219.174 85.492 217.622 85.492C216.071 85.492 214.809 84.0187 214.809 82.2079C214.809 80.397 216.071 78.9241 217.622 78.9241Z" fill="#99C36B"/>
<path d="M91.4221 216.629C91.4221 219.036 93.0938 220.988 95.156 220.988C97.2182 220.988 98.8899 219.037 98.8899 216.629C98.8899 214.222 97.2182 212.271 95.156 212.271C93.0938 212.271 91.4221 214.222 91.4221 216.629Z" fill="#99C36B"/>
<path d="M95.1559 221.386C97.4026 221.386 99.2308 219.252 99.2308 216.629C99.2308 214.006 97.4026 211.873 95.1559 211.873C92.9092 211.873 91.0816 214.007 91.0816 216.629C91.0816 219.252 92.9092 221.386 95.1559 221.386ZM95.1559 212.669C97.0268 212.669 98.5488 214.445 98.5488 216.629C98.5488 218.813 97.0268 220.59 95.1559 220.59C93.2857 220.59 91.7637 218.813 91.7637 216.629C91.7637 214.445 93.2853 212.669 95.1559 212.669Z" fill="#99C36B"/>
<path d="M199.132 221.776C196.697 221.776 194.723 219.471 194.723 216.629C194.723 213.787 196.697 211.483 199.132 211.483C201.566 211.483 203.54 213.787 203.54 216.629C203.54 219.471 201.566 221.776 199.132 221.776Z" fill="#99C36B"/>
<path d="M199.132 222.173C201.751 222.173 203.882 219.686 203.882 216.629C203.882 213.572 201.751 211.085 199.132 211.085C196.513 211.085 194.382 213.572 194.382 216.629C194.383 219.686 196.513 222.173 199.132 222.173ZM199.132 211.881C201.375 211.881 203.2 214.011 203.2 216.629C203.2 219.248 201.375 221.378 199.132 221.378C196.889 221.378 195.064 219.248 195.064 216.629C195.065 214.011 196.889 211.881 199.132 211.881Z" fill="#99C36B"/>
<path d="M212.773 204.16C211.138 204.16 209.813 202.613 209.813 200.705C209.813 198.797 211.138 197.25 212.773 197.25C214.407 197.25 215.732 198.797 215.732 200.705C215.732 202.613 214.407 204.16 212.773 204.16Z" fill="#99C36B"/>
<path d="M212.773 204.558C214.593 204.558 216.074 202.83 216.074 200.705C216.074 198.581 214.593 196.853 212.773 196.853C210.953 196.853 209.472 198.581 209.472 200.705C209.472 202.83 210.953 204.558 212.773 204.558ZM212.773 197.648C214.217 197.648 215.392 199.02 215.392 200.705C215.392 202.391 214.217 203.762 212.773 203.762C211.329 203.762 210.154 202.391 210.154 200.705C210.154 199.02 211.329 197.648 212.773 197.648Z" fill="#99C36B"/>
<path d="M212.772 145.052C210.83 145.052 209.256 143.215 209.256 140.948C209.256 138.682 210.83 136.844 212.772 136.844C214.714 136.844 216.288 138.682 216.288 140.948C216.288 143.215 214.714 145.052 212.772 145.052Z" fill="#99C36B"/>
<path d="M212.773 145.45C214.899 145.45 216.629 143.431 216.629 140.948C216.629 138.466 214.899 136.446 212.773 136.446C210.646 136.446 208.916 138.466 208.916 140.948C208.916 143.431 210.646 145.45 212.773 145.45ZM212.773 137.242C214.523 137.242 215.947 138.905 215.947 140.948C215.947 142.992 214.523 144.654 212.773 144.654C211.022 144.654 209.598 142.992 209.598 140.948C209.598 138.905 211.022 137.242 212.773 137.242Z" fill="#99C36B"/>
<path d="M226.414 128.985C224.54 128.985 223.021 127.212 223.021 125.024C223.021 122.837 224.54 121.064 226.414 121.064C228.287 121.064 229.806 122.837 229.806 125.024C229.806 127.212 228.287 128.985 226.414 128.985Z" fill="#99C36B"/>
<path d="M226.413 129.383C228.472 129.383 230.147 127.428 230.147 125.024C230.147 122.621 228.472 120.666 226.413 120.666C224.354 120.666 222.68 122.622 222.68 125.024C222.68 127.428 224.354 129.383 226.413 129.383ZM226.413 121.462C228.096 121.462 229.465 123.06 229.465 125.024C229.465 126.988 228.096 128.587 226.413 128.587C224.731 128.587 223.362 126.988 223.362 125.024C223.362 123.06 224.731 121.462 226.413 121.462Z" fill="#99C36B"/>
<path d="M284.01 128.751C282.247 128.751 280.818 127.082 280.818 125.024C280.818 122.966 282.247 121.298 284.01 121.298C285.773 121.298 287.202 122.966 287.202 125.024C287.202 127.082 285.773 128.751 284.01 128.751Z" fill="#99C36B"/>
<path d="M284.01 129.148C285.958 129.148 287.543 127.298 287.543 125.024C287.543 122.75 285.958 120.9 284.01 120.9C282.062 120.9 280.477 122.75 280.477 125.024C280.477 127.298 282.062 129.148 284.01 129.148ZM284.01 121.696C285.582 121.696 286.861 123.189 286.861 125.024C286.861 126.86 285.582 128.352 284.01 128.352C282.438 128.352 281.159 126.86 281.159 125.024C281.159 123.189 282.438 121.696 284.01 121.696Z" fill="#99C36B"/>
<path d="M292.552 109.107C292.552 112.141 294.658 114.6 297.257 114.6C299.856 114.6 301.963 112.141 301.963 109.107C301.963 106.074 299.856 103.614 297.257 103.614C294.658 103.614 292.552 106.073 292.552 109.107Z" fill="#99C36B"/>
<path d="M297.257 114.998C300.04 114.998 302.304 112.355 302.304 109.107C302.304 105.859 300.04 103.216 297.257 103.216C294.475 103.216 292.211 105.859 292.211 109.107C292.211 112.355 294.475 114.998 297.257 114.998ZM297.257 104.012C299.664 104.012 301.622 106.298 301.622 109.107C301.622 111.916 299.664 114.201 297.257 114.201C294.851 114.201 292.893 111.916 292.893 109.107C292.893 106.298 294.851 104.012 297.257 104.012Z" fill="#99C36B"/>
<path d="M27.2539 268.471C25.3483 268.471 23.8034 266.668 23.8034 264.443C23.8034 262.219 25.3483 260.415 27.2539 260.415C29.1596 260.415 30.7045 262.219 30.7045 264.443C30.7045 266.668 29.1596 268.471 27.2539 268.471Z" fill="#99C36B"/>
<path d="M27.2537 268.87C29.3445 268.87 31.0456 266.884 31.0456 264.444C31.0456 262.003 29.3445 260.018 27.2537 260.018C25.1628 260.018 23.4624 262.003 23.4624 264.444C23.4621 266.885 25.1628 268.87 27.2537 268.87ZM27.2537 260.814C28.968 260.814 30.3635 262.443 30.3635 264.444C30.3635 266.445 28.968 268.074 27.2537 268.074C25.5393 268.074 24.1445 266.445 24.1445 264.444C24.1442 262.443 25.539 260.814 27.2537 260.814Z" fill="#99C36B"/>
<path d="M142.464 264.444C142.464 266.582 143.949 268.315 145.78 268.315C147.611 268.315 149.096 266.581 149.096 264.444C149.096 262.306 147.612 260.573 145.78 260.573C143.949 260.573 142.464 262.306 142.464 264.444Z" fill="#99C36B"/>
<path d="M145.78 268.713C147.796 268.713 149.437 266.798 149.437 264.444C149.437 262.091 147.796 260.176 145.78 260.176C143.763 260.176 142.123 262.091 142.123 264.444C142.123 266.798 143.763 268.713 145.78 268.713ZM145.78 260.971C147.42 260.971 148.755 262.529 148.755 264.444C148.755 266.359 147.42 267.917 145.78 267.917C144.139 267.917 142.805 266.359 142.805 264.444C142.805 262.529 144.139 260.971 145.78 260.971Z" fill="#99C36B"/>
<path d="M159.421 252.761C157.414 252.761 155.788 250.862 155.788 248.52C155.788 246.178 157.414 244.28 159.421 244.28C161.427 244.28 163.053 246.178 163.053 248.52C163.053 250.862 161.427 252.761 159.421 252.761Z" fill="#99C36B"/>
<path d="M159.421 253.159C161.612 253.159 163.395 251.078 163.395 248.52C163.395 245.963 161.612 243.882 159.421 243.882C157.23 243.882 155.447 245.963 155.447 248.52C155.447 251.078 157.23 253.159 159.421 253.159ZM159.421 244.678C161.236 244.678 162.713 246.401 162.713 248.52C162.713 250.639 161.236 252.363 159.421 252.363C157.606 252.363 156.129 250.639 156.129 248.52C156.129 246.401 157.606 244.678 159.421 244.678Z" fill="#99C36B"/>
<path d="M22.4266 386.878C22.4266 389.989 24.5877 392.512 27.2535 392.512C29.9193 392.512 32.0804 389.989 32.0804 386.878C32.0804 383.766 29.9193 381.243 27.2535 381.243C24.5874 381.243 22.4266 383.766 22.4266 386.878Z" fill="#99C36B"/>
<path d="M27.2531 392.911C30.1023 392.911 32.421 390.205 32.421 386.879C32.421 383.552 30.1023 380.846 27.2531 380.846C24.4034 380.846 22.0858 383.553 22.0858 386.879C22.0855 390.205 24.4034 392.911 27.2531 392.911ZM27.2531 381.642C29.7269 381.642 31.739 383.991 31.739 386.879C31.739 389.766 29.7269 392.115 27.2531 392.115C24.7799 392.115 22.7679 389.766 22.7679 386.879C22.7679 383.991 24.7799 381.642 27.2531 381.642Z" fill="#99C36B"/>
<path d="M85.9888 386.878C85.9888 389.124 87.5483 390.944 89.472 390.944C91.3958 390.944 92.9553 389.124 92.9553 386.878C92.9553 384.632 91.3958 382.812 89.472 382.812C87.5483 382.812 85.9888 384.633 85.9888 386.878Z" fill="#99C36B"/>
<path d="M89.4719 391.343C91.5808 391.343 93.2966 389.34 93.2966 386.878C93.2966 384.417 91.5808 382.413 89.4719 382.413C87.363 382.413 85.6473 384.417 85.6473 386.878C85.6473 389.34 87.363 391.343 89.4719 391.343ZM89.4719 383.21C91.205 383.21 92.6145 384.855 92.6145 386.878C92.6145 388.901 91.205 390.546 89.4719 390.546C87.7388 390.546 86.3294 388.901 86.3294 386.878C86.3294 384.855 87.7388 383.21 89.4719 383.21Z" fill="#99C36B"/>
<path d="M103.114 407.91C100.697 407.91 98.7376 405.623 98.7376 402.801C98.7376 399.98 100.697 397.693 103.114 397.693C105.53 397.693 107.49 399.98 107.49 402.801C107.49 405.623 105.53 407.91 103.114 407.91Z" fill="#99C36B"/>
<path d="M103.113 408.308C105.714 408.308 107.83 405.837 107.83 402.801C107.83 399.765 105.714 397.295 103.113 397.295C100.512 397.295 98.3963 399.765 98.3963 402.801C98.3963 405.838 100.512 408.308 103.113 408.308ZM103.113 398.091C105.338 398.091 107.148 400.205 107.148 402.801C107.148 405.398 105.338 407.512 103.113 407.512C100.889 407.512 99.0784 405.398 99.0784 402.801C99.0784 400.205 100.889 398.091 103.113 398.091Z" fill="#99C36B"/>
<path d="M0.341264 328.845C0.341264 330.561 1.53285 331.952 3.00234 331.952C4.47217 331.952 5.6637 330.561 5.6637 328.845C5.6637 327.13 4.47217 325.739 3.00234 325.739C1.53285 325.739 0.341264 327.13 0.341264 328.845Z" fill="#99C36B"/>
<path d="M3.00277 332.35C4.65777 332.35 6.00483 330.778 6.00483 328.845C6.00483 326.913 4.65812 325.341 3.00277 325.341C1.34674 325.341 0 326.913 0 328.845C0 330.778 1.34708 332.35 3.00277 332.35ZM3.00277 326.137C4.2823 326.137 5.32277 327.352 5.32277 328.845C5.32277 330.339 4.2823 331.554 3.00277 331.554C1.72323 331.554 0.682056 330.339 0.682056 328.845C0.682056 327.352 1.72323 326.137 3.00277 326.137Z" fill="#99C36B"/>
<path d="M125.463 672.714C127.244 672.714 128.694 671.022 128.694 668.941C128.694 666.861 127.244 665.169 125.463 665.169C123.681 665.169 122.231 666.861 122.231 668.941C122.231 671.022 123.681 672.714 125.463 672.714ZM125.463 666.026C126.84 666.026 127.96 667.334 127.96 668.941C127.96 670.549 126.84 671.857 125.463 671.857C124.086 671.857 122.965 670.549 122.965 668.941C122.965 667.334 124.086 666.026 125.463 666.026Z" fill="#99C36B"/>
<path d="M125.463 666.026C126.84 666.026 127.96 667.334 127.96 668.941C127.96 670.549 126.84 671.857 125.463 671.857C124.086 671.857 122.965 670.549 122.965 668.941C122.965 667.334 124.086 666.026 125.463 666.026Z" fill="#99C36B"/>
<path d="M102.844 651.338C104.625 651.338 106.075 649.646 106.075 647.565C106.075 645.485 104.626 643.793 102.844 643.793C101.062 643.793 99.6124 645.485 99.6124 647.565C99.6124 649.646 101.062 651.338 102.844 651.338ZM102.844 644.65C104.221 644.65 105.341 645.958 105.341 647.565C105.341 649.173 104.221 650.481 102.844 650.481C101.467 650.481 100.346 649.173 100.346 647.565C100.346 645.958 101.467 644.65 102.844 644.65Z" fill="#99C36B"/>
<path d="M102.844 644.65C104.221 644.65 105.341 645.958 105.341 647.565C105.341 649.173 104.221 650.481 102.844 650.481C101.467 650.481 100.346 649.173 100.346 647.565C100.346 645.958 101.467 644.65 102.844 644.65Z" fill="#99C36B"/>
<path d="M165.315 686.545C167.096 686.545 168.546 684.853 168.546 682.773C168.546 680.693 167.096 679.001 165.315 679.001C163.533 679.001 162.083 680.693 162.083 682.773C162.083 684.853 163.533 686.545 165.315 686.545ZM165.315 679.857C166.692 679.857 167.812 681.165 167.812 682.773C167.812 684.381 166.692 685.688 165.315 685.688C163.938 685.688 162.817 684.38 162.817 682.773C162.817 681.165 163.938 679.857 165.315 679.857Z" fill="#99C36B"/>
<path d="M165.315 679.857C166.692 679.857 167.812 681.165 167.812 682.773C167.812 684.381 166.692 685.688 165.315 685.688C163.938 685.688 162.817 684.38 162.817 682.773C162.817 681.165 163.938 679.857 165.315 679.857Z" fill="#99C36B"/>
<path d="M57.2635 332.498C55.5355 332.498 54.1346 330.862 54.1346 328.845C54.1346 326.828 55.5355 325.193 57.2635 325.193C58.9916 325.193 60.3925 326.828 60.3925 328.845C60.3925 330.862 58.9916 332.498 57.2635 332.498Z" fill="#99C36B"/>
<path d="M57.2636 332.896C59.1771 332.896 60.7339 331.079 60.7339 328.846C60.7339 326.612 59.1771 324.796 57.2636 324.796C55.3507 324.796 53.794 326.612 53.794 328.846C53.794 331.079 55.3504 332.896 57.2636 332.896ZM57.2636 325.592C58.8009 325.592 60.0518 327.052 60.0518 328.846C60.0518 330.64 58.8009 332.1 57.2636 332.1C55.7262 332.1 54.476 330.64 54.476 328.846C54.476 327.052 55.7262 325.592 57.2636 325.592Z" fill="#99C36B"/>
<path d="M66.8561 344.769C66.8561 347.38 68.669 349.497 70.9054 349.497C73.1419 349.497 74.9548 347.38 74.9548 344.769C74.9548 342.159 73.1419 340.043 70.9054 340.043C68.669 340.043 66.8561 342.159 66.8561 344.769Z" fill="#99C36B"/>
<path d="M70.9054 349.894C73.3267 349.894 75.2961 347.595 75.2961 344.77C75.2961 341.943 73.3267 339.645 70.9054 339.645C68.4848 339.645 66.5153 341.944 66.5153 344.77C66.515 347.595 68.4848 349.894 70.9054 349.894ZM70.9054 340.441C72.9502 340.441 74.6141 342.382 74.6141 344.77C74.6141 347.156 72.9502 349.098 70.9054 349.098C68.8606 349.098 67.1974 347.156 67.1974 344.77C67.197 342.382 68.8602 340.441 70.9054 340.441Z" fill="#99C36B"/>
<path d="M66.5297 434.649C66.5297 437.47 68.4889 439.757 70.9054 439.757C73.3223 439.757 75.2811 437.47 75.2811 434.649C75.2811 431.827 73.3219 429.54 70.9054 429.54C68.4889 429.54 66.5297 431.827 66.5297 434.649Z" fill="#99C36B"/>
<path d="M70.9052 440.155C73.5062 440.155 75.6223 437.684 75.6223 434.648C75.6223 431.612 73.5062 429.142 70.9052 429.142C68.3049 429.142 66.1888 431.612 66.1888 434.648C66.1885 437.685 68.3049 440.155 70.9052 440.155ZM70.9052 429.938C73.1297 429.938 74.9403 432.052 74.9403 434.648C74.9403 437.245 73.1297 439.359 70.9052 439.359C68.6804 439.359 66.8709 437.245 66.8709 434.648C66.8705 432.052 68.6804 429.938 70.9052 429.938Z" fill="#99C36B"/>
<path d="M84.5463 455.131C82.3896 455.131 80.6412 453.09 80.6412 450.572C80.6412 448.055 82.3896 446.014 84.5463 446.014C86.7031 446.014 88.4515 448.055 88.4515 450.572C88.4515 453.09 86.7031 455.131 84.5463 455.131Z" fill="#99C36B"/>
<path d="M84.5463 455.529C86.8875 455.529 88.7925 453.306 88.7925 450.573C88.7925 447.84 86.8875 445.616 84.5463 445.616C82.2052 445.616 80.3002 447.84 80.3002 450.573C80.2998 453.305 82.2048 455.529 84.5463 455.529ZM84.5463 446.412C86.512 446.412 88.1104 448.278 88.1104 450.572C88.1104 452.867 86.512 454.733 84.5463 454.733C82.5807 454.733 80.9822 452.867 80.9822 450.572C80.9819 448.278 82.5807 446.412 84.5463 446.412Z" fill="#99C36B"/>
<path d="M121.529 453.573C120.109 453.573 118.958 452.229 118.958 450.572C118.958 448.914 120.109 447.571 121.529 447.571C122.949 447.571 124.1 448.914 124.1 450.572C124.1 452.229 122.949 453.573 121.529 453.573Z" fill="#99C36B"/>
<path d="M121.529 453.971C123.135 453.971 124.441 452.447 124.441 450.572C124.441 448.698 123.135 447.173 121.529 447.173C119.924 447.173 118.617 448.698 118.617 450.572C118.617 452.447 119.924 453.971 121.529 453.971ZM121.529 447.969C122.759 447.969 123.759 449.137 123.759 450.572C123.759 452.007 122.759 453.175 121.529 453.175C120.3 453.175 119.299 452.008 119.299 450.572C119.299 449.137 120.3 447.969 121.529 447.969Z" fill="#99C36B"/>
<path d="M131.846 466.496C131.846 468.639 133.334 470.376 135.17 470.376C137.007 470.376 138.495 468.639 138.495 466.496C138.495 464.353 137.007 462.615 135.17 462.615C133.334 462.615 131.846 464.353 131.846 466.496Z" fill="#99C36B"/>
<path d="M135.17 470.775C137.191 470.775 138.835 468.855 138.835 466.496C138.835 464.137 137.191 462.218 135.17 462.218C133.149 462.218 131.505 464.137 131.505 466.496C131.505 468.855 133.149 470.775 135.17 470.775ZM135.17 463.013C136.815 463.013 138.153 464.576 138.153 466.496C138.153 468.417 136.815 469.978 135.17 469.978C133.525 469.978 132.187 468.416 132.187 466.496C132.187 464.576 133.525 463.013 135.17 463.013Z" fill="#99C36B"/>
<path d="M131.617 518.159C131.617 520.449 133.208 522.306 135.17 522.306C137.132 522.306 138.723 520.449 138.723 518.159C138.723 515.868 137.132 514.012 135.17 514.012C133.208 514.012 131.617 515.868 131.617 518.159Z" fill="#99C36B"/>
<path d="M135.17 522.704C137.317 522.704 139.064 520.665 139.064 518.158C139.064 515.652 137.317 513.613 135.17 513.613C133.023 513.613 131.276 515.652 131.276 518.158C131.276 520.665 133.023 522.704 135.17 522.704ZM135.17 514.409C136.941 514.409 138.382 516.091 138.382 518.158C138.382 520.226 136.941 521.907 135.17 521.907C133.399 521.907 131.958 520.226 131.958 518.158C131.958 516.091 133.399 514.409 135.17 514.409Z" fill="#99C36B"/>
<path d="M121.529 537.45C119.935 537.45 118.643 535.942 118.643 534.082C118.643 532.221 119.935 530.713 121.529 530.713C123.123 530.713 124.415 532.221 124.415 534.082C124.415 535.942 123.123 537.45 121.529 537.45Z" fill="#99C36B"/>
<path d="M121.529 537.849C123.308 537.849 124.756 536.16 124.756 534.082C124.756 532.006 123.308 530.316 121.529 530.316C119.749 530.316 118.302 532.005 118.302 534.082C118.302 536.16 119.749 537.849 121.529 537.849ZM121.529 531.112C122.932 531.112 124.073 532.445 124.073 534.082C124.073 535.72 122.932 537.053 121.529 537.053C120.126 537.053 118.984 535.721 118.984 534.082C118.984 532.445 120.126 531.112 121.529 531.112Z" fill="#99C36B"/>
<path d="M89.3968 537.559C87.7518 537.559 86.4183 536.002 86.4183 534.082C86.4183 532.162 87.7518 530.605 89.3968 530.605C91.0418 530.605 92.3753 532.162 92.3753 534.082C92.3753 536.002 91.0418 537.559 89.3968 537.559Z" fill="#99C36B"/>
<path d="M89.3965 537.957C91.2268 537.957 92.716 536.219 92.716 534.082C92.716 531.945 91.2268 530.207 89.3965 530.207C87.5662 530.207 86.077 531.945 86.077 534.082C86.077 536.219 87.5662 537.957 89.3965 537.957ZM89.3965 531.003C90.8513 531.003 92.034 532.384 92.034 534.082C92.034 535.78 90.851 537.161 89.3965 537.161C87.9417 537.161 86.759 535.78 86.759 534.082C86.759 532.384 87.942 531.003 89.3965 531.003Z" fill="#99C36B"/>
<path d="M71.397 550.006C71.397 552.816 73.3483 555.094 75.7556 555.094C78.1629 555.094 80.1143 552.816 80.1143 550.006C80.1143 547.197 78.1629 544.918 75.7556 544.918C73.3483 544.918 71.397 547.197 71.397 550.006Z" fill="#99C36B"/>
<path d="M75.7554 555.492C78.3472 555.492 80.4551 553.031 80.4551 550.006C80.4551 546.98 78.3469 544.52 75.7554 544.52C73.1643 544.52 71.0564 546.98 71.0564 550.006C71.0564 553.031 73.1646 555.492 75.7554 555.492ZM75.7554 545.316C77.9707 545.316 79.773 547.42 79.773 550.006C79.773 552.592 77.9707 554.696 75.7554 554.696C73.5401 554.696 71.7384 552.591 71.7384 550.006C71.7384 547.42 73.5401 545.316 75.7554 545.316Z" fill="#99C36B"/>
</g>
</svg>
