<svg width="108" height="108" viewBox="0 0 108 108" fill="none" xmlns="http://www.w3.org/2000/svg">
<path d="M53.7799 107.246C83.4817 107.246 107.56 83.2379 107.56 53.6229C107.56 24.0078 83.4817 0 53.7799 0C24.0781 0 0 24.0078 0 53.6229C0 83.2379 24.0781 107.246 53.7799 107.246Z" fill="#8CC63E"/>
<path d="M86.1298 53.6444C86.1298 52.4803 85.2767 51.5164 84.162 51.344L79.0408 30.0772C79.9862 29.4705 80.6144 28.4142 80.6144 27.2071C80.6144 25.3255 79.0901 23.8012 77.2085 23.8012C76.4448 23.8012 75.7427 24.0537 75.1761 24.4787L57.6446 14.3565C57.7185 14.0762 57.7647 13.7806 57.7647 13.4757C57.7647 11.5942 56.2404 10.0698 54.3588 10.0698C52.4773 10.0698 50.9529 11.5942 50.9529 13.4757C50.9529 13.836 51.0084 14.1809 51.1131 14.5073L30.5884 26.3572C29.9694 25.5103 28.9686 24.956 27.8384 24.956C25.9569 24.956 24.4325 26.4803 24.4325 28.3619C24.4325 29.5721 25.0638 30.6315 26.0154 31.235L22.979 51.4087C22.0829 51.7474 21.4454 52.6097 21.4454 53.6259C21.4454 54.7376 22.2122 55.6676 23.2438 55.9262L27.3211 77.3655C26.3079 77.9568 25.6243 79.05 25.6243 80.3095C25.6243 82.1911 27.1486 83.7154 29.0302 83.7154C30.2404 83.7154 31.3028 83.081 31.9064 82.1295L51.1654 92.6028C51.0299 92.9692 50.9529 93.3665 50.9529 93.7791C50.9529 95.6607 52.4773 97.185 54.3588 97.185C56.2404 97.185 57.7647 95.6607 57.7647 93.7791C57.7647 93.4435 57.7155 93.117 57.6231 92.8091L74.9543 82.8039C75.5548 83.3366 76.3432 83.6631 77.2116 83.6631C79.0932 83.6631 80.6175 82.1387 80.6175 80.2572C80.6175 79.05 79.9862 77.9907 79.0377 77.384L84.1681 55.9478C85.2829 55.7723 86.1328 54.8115 86.1328 53.6474L86.1298 53.6444ZM73.9874 60.4777C73.6764 60.1821 73.2545 60.0004 72.7895 60.0004C71.8718 60.0004 71.1204 60.7117 71.0527 61.614L62.8551 62.4116C62.6026 61.7618 61.9713 61.2999 61.2322 61.2999C60.721 61.2999 60.2653 61.5216 59.945 61.8696L52.3325 58.5007C52.4496 58.1558 52.5173 57.7863 52.5173 57.4013C52.5173 56.5945 52.2371 55.8554 51.769 55.2734L57.6939 50.0075L81.4767 53.4288C81.4705 53.4996 81.4644 53.5735 81.4644 53.6474C81.4644 53.9554 81.5259 54.251 81.6337 54.5189L73.9874 60.4808V60.4777ZM73.935 81.2026L56.5945 91.2139C56.4621 91.0969 56.3205 90.9922 56.1726 90.8967L61.8666 80.5867C62.0975 80.6575 62.3408 80.6944 62.5964 80.6944C63.9791 80.6944 65.1 79.5735 65.1 78.1908C65.1 77.8952 65.0477 77.6119 64.9522 77.3501L69.2111 75.1268C69.4914 75.3208 69.8301 75.4316 70.1966 75.4316C70.5322 75.4316 70.8463 75.3331 71.1112 75.1699L74.3446 78.4033C73.9997 78.9361 73.7995 79.5674 73.7995 80.2479C73.7995 80.5774 73.8488 80.8977 73.9381 81.1995L73.935 81.2026ZM46.1212 55.76L41.5513 55.1379L44.5045 49.0559C44.5754 49.0683 44.6462 49.0775 44.7201 49.0775C44.8956 49.0775 45.0619 49.0436 45.2128 48.979L45.259 49.0313L45.7764 48.5848L45.7456 48.5509C45.801 48.4739 45.8503 48.3939 45.8872 48.3076L49.2808 48.7942L48.7018 54.017C47.5902 54.1494 46.6417 54.8176 46.1243 55.76H46.1212ZM26.1016 53.0346C25.9569 52.4649 25.6058 51.9753 25.1316 51.655L28.1279 31.7493C28.7623 31.6939 29.3474 31.4629 29.8339 31.1088L43.6361 47.1467C43.5191 47.3376 43.4483 47.5624 43.4483 47.8026C43.4483 48.1506 43.5868 48.4616 43.8116 48.6926L40.7383 55.024L26.0985 53.0315L26.1016 53.0346ZM74.6372 29.4397L71.028 34.0127C70.8001 33.8988 70.5446 33.8341 70.2736 33.8341C69.8855 33.8341 69.5283 33.9665 69.2419 34.1852L64.9738 31.7216C65.0538 31.4752 65.0969 31.2135 65.0969 30.9394C65.0969 29.5413 63.9637 28.4112 62.5687 28.4112C62.2546 28.4112 61.9559 28.4697 61.6787 28.5744L56.2127 16.3242C56.3728 16.2195 56.5237 16.0994 56.6654 15.9701L74.0274 25.9938C73.8827 26.3695 73.8026 26.779 73.8026 27.204C73.8026 28.0601 74.1198 28.8392 74.6402 29.4397H74.6372ZM74.206 48.6341L81.1441 52.6404L58.4053 49.37L60.333 47.6579C60.6009 47.8334 60.9212 47.9381 61.2692 47.9381C61.9528 47.9381 62.5441 47.5316 62.8151 46.9496L71.2651 47.7533C71.3914 48.5694 72.0935 49.1976 72.9465 49.1976C73.4454 49.1976 73.895 48.982 74.206 48.6371V48.6341ZM51.2948 54.7838C51.0761 54.599 50.8298 54.445 50.568 54.3218L51.1531 49.0621L56.8193 49.8782L51.2978 54.7838H51.2948ZM51.2301 48.3353L54.7253 16.857C55.0332 16.8231 55.3289 16.7461 55.606 16.6353L61.0782 28.8977C60.4469 29.3566 60.0374 30.0987 60.0374 30.9394C60.0374 31.9002 60.5732 32.7347 61.3585 33.1628L60.8873 44.5722C60.1298 44.7447 59.5662 45.4222 59.5662 46.2321C59.5662 46.5831 59.6709 46.9065 59.8526 47.1775L57.5307 49.2407L51.2301 48.3353ZM71.4438 46.6847L62.9352 45.8779C62.8305 45.3852 62.5102 44.9695 62.0791 44.7354L62.5441 33.4707C62.5441 33.4707 62.5595 33.4707 62.5656 33.4707C63.2585 33.4707 63.8836 33.1936 64.3394 32.7409L68.6014 35.2014C68.5798 35.3123 68.5675 35.4231 68.5675 35.5401C68.5675 36.4393 69.2635 37.1753 70.1473 37.2369L71.57 46.4846C71.5238 46.5493 71.4807 46.6139 71.4407 46.6847H71.4438ZM49.3609 48.0674L45.9673 47.5778C45.8934 47.1651 45.6224 46.8264 45.2528 46.654L52.0893 23.4563L49.3578 48.0644L49.3609 48.0674ZM51.9692 59.2459L59.5478 62.5964C59.5108 62.738 59.4892 62.8859 59.4892 63.0398C59.4892 63.8774 60.0805 64.5796 60.8719 64.7459L61.768 75.835C60.7918 76.1768 60.0928 77.1038 60.0928 78.1939C60.0928 79.0254 60.4993 79.7614 61.1244 80.2171L55.4243 90.5426C55.2088 90.4718 54.9871 90.4225 54.7561 90.3948L50.4417 60.5362C51.073 60.2683 51.6058 59.8156 51.9753 59.2459H51.9692ZM70.058 71.958C69.1588 72.0288 68.4505 72.7771 68.4505 73.6948C68.4505 73.8919 68.4844 74.0828 68.546 74.2614L64.3733 76.4386C63.9729 76.0321 63.4371 75.7642 62.8366 75.7057L61.9405 64.6319C62.4147 64.4194 62.775 64.0006 62.9105 63.4894L71.3113 62.6734C71.4314 62.8612 71.5854 63.0244 71.764 63.1568L70.0549 71.9611L70.058 71.958ZM82.3328 51.8275C82.1665 51.963 82.0187 52.12 81.8955 52.2925L74.5509 48.052C74.6125 47.8765 74.6495 47.6856 74.6495 47.4885C74.6495 46.5462 73.8858 45.7855 72.9465 45.7855C72.8572 45.7855 72.7679 45.7948 72.6817 45.8071L71.3083 36.8889C71.3391 36.8643 71.3698 36.8397 71.4006 36.815L71.5577 36.9043L72.1551 35.8666L71.9611 35.7557C71.9703 35.6849 71.9765 35.614 71.9765 35.5401C71.9765 35.1152 71.8194 34.7272 71.5638 34.4284L75.133 29.9047C75.7088 30.3481 76.4263 30.613 77.2054 30.613C77.2116 30.613 77.2178 30.613 77.2239 30.613L82.3328 51.8275ZM51.4826 15.308C51.8183 15.8315 52.2956 16.2565 52.8591 16.5336L52.582 19.0342L44.4676 46.5585C44.3506 46.5831 44.2397 46.6262 44.135 46.6817L30.339 30.653C30.8902 30.0464 31.232 29.2457 31.232 28.3588C31.232 27.9246 31.1489 27.512 31.001 27.1332L51.4795 15.308H51.4826ZM24.9776 55.683C25.3286 55.4828 25.6212 55.1964 25.8306 54.8515L39.8946 56.7639L30.0495 77.0514C29.7261 76.9498 29.3782 76.8913 29.0209 76.8913C29.0209 76.8913 29.0148 76.8913 29.0117 76.8913L24.9776 55.6768V55.683ZM32.2359 81.4212C32.3591 81.0701 32.4268 80.6975 32.4268 80.3034C32.4268 79.0592 31.7555 77.9722 30.7578 77.3779L40.7075 56.8778L45.7086 57.5584C45.7856 59.1812 46.9897 60.5023 48.5602 60.7579L52.8869 90.7027C52.3264 90.9706 51.8491 91.3864 51.5072 91.9006L32.2359 81.4212ZM77.2054 76.8451C76.3032 76.8451 75.4871 77.1962 74.8774 77.7689L71.6901 74.5817C71.8441 74.3199 71.9365 74.0181 71.9365 73.6917C71.9365 73.0635 71.6039 72.5154 71.105 72.2105L72.7987 63.4833C73.7564 63.4771 74.5294 62.698 74.5294 61.7403C74.5294 61.5432 74.4955 61.3523 74.4339 61.1767L82.0772 55.218C82.1572 55.3042 82.2404 55.3873 82.3328 55.4612L77.2147 76.8451C77.2147 76.8451 77.2055 76.8451 77.2024 76.8451H77.2054Z" fill="white"/>
</svg>
